<?xml version="1.0" standalone="no"?>
<!DOCTYPE svg PUBLIC "-//W3C//DTD SVG 1.1//EN" "http://www.w3.org/Graphics/SVG/1.1/DTD/svg11.dtd" >
<svg xmlns="http://www.w3.org/2000/svg" xmlns:xlink="http://www.w3.org/1999/xlink" version="1.1">
<metadata>
Created by FontForge 20161003 at Thu Sep 14 01:16:37 2017
 By www-data
Copyright (c) The Font Bureau, Inc., 2006. All rights reserved.
</metadata>
<defs>
<font id="AntennaCondensedBold" horiz-adv-x="650" >
  <font-face 
    font-family="AntennaCondensedBold"
    font-weight="700"
    font-stretch="semi-condensed"
    units-per-em="1000"
    panose-1="0 0 0 0 0 0 0 0 0 0"
    ascent="800"
    descent="-200"
    x-height="567"
    cap-height="741"
    bbox="-53 -287 1477 1040"
    underline-thickness="50"
    underline-position="-150"
    unicode-range="U+0020-FB04"
  />
<missing-glyph horiz-adv-x="500" 
d="M0 0v700h500v-700h-500zM50 650v-600h400v600h-400z" />
    <glyph glyph-name="f_f" unicode="ff" horiz-adv-x="689" 
d="M403 0v435h-148v-435h-151v435h-92v132h92v46q0 174 198 174q44 0 52 -1v-131h-37q-38 0 -50 -13.5t-12 -45.5v-29h148v46q0 174 199 174q46 0 82 -2v-130h-68q-37 0 -49.5 -13.5t-12.5 -45.5v-29h130v-132h-130v-435h-151z" />
    <glyph glyph-name="f_i" unicode="fi" horiz-adv-x="607" 
d="M403 618v137h152v-137h-152zM403 0v567h151v-567h-151zM354 435h-99v-435h-151v435h-92v132h92v46q0 174 198 174q44 0 52 -1v-131h-37q-38 0 -50 -13.5t-12 -45.5v-29h99v-132z" />
    <glyph glyph-name="f_l" unicode="fl" horiz-adv-x="644" 
d="M613 0q-12 -2 -55 -2q-82 0 -118.5 34.5t-36.5 128.5v608h151v-587q0 -33 9.5 -42t49.5 -9v-131zM354 435h-99v-435h-151v435h-92v132h92v46q0 174 198 174q44 0 52 -1v-131h-37q-38 0 -50 -13.5t-12 -45.5v-29h99v-132z" />
    <glyph glyph-name="f_f_i" unicode="ffi" horiz-adv-x="906" 
d="M702 618v137h153v-137h-153zM703 0v567h151v-567h-151zM403 0v435h-148v-435h-151v435h-92v132h92v46q0 174 198 174q44 0 52 -1v-131h-37q-38 0 -50 -13.5t-12 -45.5v-29h148v46q0 174 199 174q44 0 51 -1v-131h-37q-37 0 -49.5 -13.5t-12.5 -45.5v-29h99v-132h-99v-435
h-151z" />
    <glyph glyph-name="f_f_l" unicode="ffl" horiz-adv-x="944" 
d="M913 0q-12 -2 -56 -2q-81 0 -117.5 34.5t-36.5 128.5v608h151v-587q0 -34 9 -42.5t50 -8.5v-131zM403 0v435h-148v-435h-151v435h-92v132h92v46q0 174 198 174q44 0 52 -1v-131h-37q-38 0 -50 -13.5t-12 -45.5v-29h148v46q0 174 199 174q44 0 51 -1v-131h-37
q-37 0 -49.5 -13.5t-12.5 -45.5v-29h99v-132h-99v-435h-151z" />
    <glyph glyph-name="f_j" unicode="fj" horiz-adv-x="607" 
d="M403 618v137h152v-137h-152zM352 -158v121h11q27 0 33.5 11.5t6.5 47.5v545h151v-550q0 -99 -37.5 -137t-141.5 -38h-23zM354 435h-99v-435h-151v435h-92v132h92v46q0 174 198 174q44 0 52 -1v-131h-37q-38 0 -50 -13.5t-12 -45.5v-29h99v-132z" />
    <glyph glyph-name="f_t" unicode="ft" horiz-adv-x="719" 
d="M685 0q-67 -5 -84 -5q-112 0 -154 40t-42 138v262h-150v-435h-151v435h-92v132h92v46q0 174 198 174q44 0 52 -1v-131h-37q-38 0 -50 -13.5t-12 -45.5v-29h157l24 127l120 27v-154h129v-132h-129v-244q0 -33 11.5 -46.5t52.5 -13.5h65v-131z" />
    <glyph glyph-name=".notdef" horiz-adv-x="500" 
d="M0 0v700h500v-700h-500zM50 650v-600h400v600h-400z" />
    <glyph glyph-name=".null" horiz-adv-x="0" 
 />
    <glyph glyph-name="nonmarkingreturn" horiz-adv-x="333" 
 />
    <glyph glyph-name="space" unicode=" " horiz-adv-x="170" 
 />
    <glyph glyph-name="exclam" unicode="!" horiz-adv-x="345" 
d="M104 231l-13 510h164l-14 -510h-137zM86 0v176h172v-176h-172z" />
    <glyph glyph-name="quotedbl" unicode="&#x22;" horiz-adv-x="510" 
d="M293 392l-8 349h156l-8 -349h-140zM76 392l-7 349h156l-7 -349h-142z" />
    <glyph glyph-name="numbersign" unicode="#" horiz-adv-x="647" 
d="M265 308h99l15 98h-99zM88 0l27 181h-74v138h95l11 76h-106v137h127l31 209h143l-31 -209h75l31 209h143l-32 -209h77v-137h-97l-12 -76h109v-138h-130l-27 -181h-142l27 181h-75l-27 -181h-143z" />
    <glyph glyph-name="dollar" unicode="$" horiz-adv-x="563" 
d="M358 -93h-144v94q-113 10 -195 68l71 113q84 -58 187 -58q60 0 82 20.5t22 63.5q0 39 -24 59.5t-87 41.5q-103 34 -136 53q-84 54 -85 165q0 95 40 146t124 65v81h145v-81q82 -11 145 -47l-69 -121q-66 35 -149 35q-48 0 -68 -18.5t-20 -54.5q0 -34 24.5 -52.5
t87.5 -37.5q36 -11 55 -17.5t49.5 -20t47 -28.5t34.5 -37t26 -52t8 -68q0 -97 -39.5 -149t-131.5 -66v-97z" />
    <glyph glyph-name="percent" unicode="%" horiz-adv-x="1067" 
d="M227 258q-102 0 -151.5 56.5t-49.5 188.5t49.5 188.5t151.5 56.5q103 0 153 -56.5t50 -188.5t-50 -188.5t-153 -56.5zM294 0l341 741h140l-342 -741h-139zM228 370q38 0 53 27.5t15 101.5q0 73 -15 101t-53 28t-53 -28t-15 -101q0 -74 15 -101.5t53 -27.5zM838 -7
q-102 0 -151.5 56.5t-49.5 189.5q0 131 49.5 188t151.5 57q103 0 153 -57t50 -188q0 -133 -50 -189.5t-153 -56.5zM839 105q38 0 53.5 28t15.5 101q0 74 -15.5 101.5t-53.5 27.5t-53 -27.5t-15 -101.5q0 -73 15 -101t53 -28z" />
    <glyph glyph-name="ampersand" unicode="&#x26;" horiz-adv-x="727" 
d="M263 570q0 -45 32 -98q67 45 67 98q0 56 -50 56q-27 0 -38 -13.5t-11 -42.5zM286 116q67 0 114 22l-105 117q-34 37 -51 58q-68 -47 -68 -102q0 -21 3.5 -35.5t14 -29.5t33.5 -22.5t59 -7.5zM524 0l-34 38q-78 -46 -204 -46q-132 0 -196 50t-64 162q0 77 36.5 124.5
t104.5 84.5q-50 82 -50 157q0 94 51 140t144 46q188 0 188 -186q0 -115 -129 -195q6 -6 20 -21.5t22 -24.5l78 -86q24 60 44 220l127 -15q-24 -216 -76 -310l125 -138h-187z" />
    <glyph glyph-name="quotesingle" unicode="'" horiz-adv-x="294" 
d="M76 392l-7 349h157l-7 -349h-143z" />
    <glyph glyph-name="parenleft" unicode="(" horiz-adv-x="446" 
d="M252 -178q-70 69 -120.5 191.5t-50.5 290.5q0 155 52 285.5t119 197.5l112 -69q-58 -79 -93.5 -173t-35.5 -240q0 -254 129 -415z" />
    <glyph glyph-name="parenright" unicode=")" horiz-adv-x="446" 
d="M194 -178l-111 68q37 51 61 96t45.5 130.5t21.5 187.5q0 253 -128 414l111 69q70 -69 120.5 -191.5t50.5 -290.5q0 -156 -52 -287t-119 -196z" />
    <glyph glyph-name="asterisk" unicode="*" horiz-adv-x="531" 
d="M204 250l14 154l-112 -88l-66 109l134 71l-134 72l65 108l113 -89l-14 155h120l-13 -157l114 91l65 -107l-135 -73l135 -72l-64 -107l-115 89l13 -156h-120z" />
    <glyph glyph-name="plus" unicode="+" horiz-adv-x="609" 
d="M233 105v182h-154v131h154v180h143v-180h154v-131h-154v-182h-143z" />
    <glyph glyph-name="comma" unicode="," horiz-adv-x="260" 
d="M89 -153l-42 76q50 26 61.5 38t11.5 39h-76v179h172v-164q0 -65 -23 -97t-104 -71z" />
    <glyph glyph-name="hyphen" unicode="-" horiz-adv-x="347" 
d="M30 264v138h286v-138h-286z" />
    <glyph glyph-name="period" unicode="." horiz-adv-x="260" 
d="M44 0v179h172v-179h-172z" />
    <glyph glyph-name="slash" unicode="/" horiz-adv-x="495" 
d="M0 0l342 741h153l-342 -741h-153z" />
    <glyph glyph-name="zero" unicode="0" horiz-adv-x="641" 
d="M322 -9q-71 0 -120.5 17.5t-79 46.5t-46 79.5t-22 104t-5.5 131.5t5 130.5t21.5 103.5t46 80.5t79.5 47.5t121 18t120.5 -18.5t78.5 -48t45 -81t21 -103.5t5 -129q0 -66 -3.5 -112.5t-13.5 -92.5t-28.5 -75.5t-48 -53.5t-73.5 -34.5t-103 -10.5zM322 131q70 0 92.5 52
t22.5 187q0 133 -22.5 183.5t-92.5 50.5q-71 0 -94 -50.5t-23 -183.5q0 -134 23 -186.5t94 -52.5z" />
    <glyph glyph-name="one" unicode="1" horiz-adv-x="357" 
d="M125 0v603h-102v138h253v-741h-151z" />
    <glyph glyph-name="two" unicode="2" horiz-adv-x="540" 
d="M24 0v120l186 200q79 84 99.5 121t20.5 86q0 42 -21 60.5t-74 18.5q-75 0 -147 -35l-65 127q104 52 238 52q117 0 169 -49.5t52 -150.5q0 -86 -30.5 -143t-134.5 -170l-97 -105h274v-132h-470z" />
    <glyph glyph-name="three" unicode="3" horiz-adv-x="544" 
d="M250 -9q-133 0 -231 55l68 125q78 -42 153 -42q66 0 89.5 22t23.5 84q0 52 -23.5 72t-93.5 20h-105v125h107q57 0 77 18t20 61q0 44 -21.5 59.5t-74.5 15.5q-75 0 -146 -34l-64 123q96 55 234 55q114 0 167.5 -38.5t53.5 -140.5q0 -73 -16 -111t-56 -54q53 -17 72.5 -57
t19.5 -130q0 -125 -61 -176.5t-193 -51.5z" />
    <glyph glyph-name="four" unicode="4" horiz-adv-x="591" 
d="M570 146h-90v-146h-141v146h-312v117l259 478h158l-255 -470h152l30 207h109v-207h90v-125z" />
    <glyph glyph-name="five" unicode="5" horiz-adv-x="566" 
d="M274 -9q-152 0 -253 56l68 124q77 -42 175 -42q63 0 89.5 23.5t26.5 94.5q0 70 -25 93t-81 23q-63 0 -105 -26l-117 34l20 370h424v-138h-295l-7 -132q43 25 136 25q108 0 155 -53.5t47 -192.5q0 -80 -16 -131.5t-51.5 -79t-79.5 -38t-111 -10.5z" />
    <glyph glyph-name="six" unicode="6" horiz-adv-x="612" 
d="M318 -9q-72 0 -122 15.5t-79 41t-45 69.5t-21 89.5t-5 113.5q0 67 2.5 112.5t10.5 93.5t23.5 78.5t40.5 59t62 44t88.5 24.5t119.5 9h87v-138h-95q-57 0 -93 -9t-55 -30t-26.5 -45t-10.5 -63q43 51 170 51q63 0 105 -17.5t63.5 -53t30 -77.5t8.5 -102
q0 -139 -57.5 -202.5t-201.5 -63.5zM321 124q59 0 81.5 31t22.5 101q0 68 -23 97.5t-79 29.5q-119 0 -119 -122q0 -75 23.5 -106t93.5 -31z" />
    <glyph glyph-name="seven" unicode="7" horiz-adv-x="501" 
d="M105 0l212 603h-299v138h464v-119l-215 -622h-162z" />
    <glyph glyph-name="eight" unicode="8" horiz-adv-x="611" 
d="M305 -9q-68 0 -117.5 12.5t-77 32t-44 50t-21 59t-4.5 67.5q0 38 3 64t12.5 53.5t30 47t52.5 31.5q-46 21 -61.5 60.5t-15.5 99.5q0 39 10 69t35 57t75 41.5t123 14.5t123.5 -14.5t75 -42t34.5 -57t10 -68.5q0 -60 -16.5 -100.5t-61.5 -59.5q34 -12 55.5 -31.5t31 -47.5
t12 -53t2.5 -64t-4.5 -67.5t-21 -59t-44.5 -50t-77.5 -32t-118.5 -12.5zM305 453q53 0 74 20.5t21 63.5t-21 63.5t-74 20.5q-52 0 -73.5 -20.5t-21.5 -63.5t21.5 -63.5t73.5 -20.5zM305 120q64 0 88 28.5t24 84.5t-23.5 83.5t-88.5 27.5q-64 0 -87 -27.5t-23 -83.5t23 -84.5
t87 -28.5z" />
    <glyph glyph-name="nine" unicode="9" horiz-adv-x="612" 
d="M131 0v132h96q105 0 142 34t42 115q-40 -51 -169 -51q-63 0 -105 17.5t-63.5 52.5t-30 77t-8.5 102q0 140 57 205.5t201 65.5q72 0 122 -15.5t79.5 -41t45.5 -69.5t21 -89.5t5 -113.5q0 -67 -3 -113.5t-11 -94t-24 -78.5t-41.5 -58.5t-62.5 -43t-88 -24.5t-118 -9h-87z
M288 353q120 0 120 123q0 75 -24 105.5t-94 30.5q-59 0 -81.5 -31t-22.5 -101q0 -68 23.5 -97.5t78.5 -29.5z" />
    <glyph glyph-name="colon" unicode=":" horiz-adv-x="276" 
d="M52 392v175h171v-175h-171zM52 0v175h171v-175h-171z" />
    <glyph glyph-name="semicolon" unicode=";" horiz-adv-x="276" 
d="M52 392v175h171v-175h-171zM97 -153l-42 76q50 26 61.5 38t11.5 39h-76v175h171v-160q0 -65 -22.5 -97t-103.5 -71z" />
    <glyph glyph-name="less" unicode="&#x3c;" horiz-adv-x="608" 
d="M483 77l-392 217v104l392 217v-145l-234 -123l234 -124v-146z" />
    <glyph glyph-name="equal" unicode="=" horiz-adv-x="609" 
d="M80 395v138h449v-138h-449zM80 166v139h449v-139h-449z" />
    <glyph glyph-name="greater" unicode="&#x3e;" horiz-adv-x="609" 
d="M124 77v145l235 123l-235 124v146l393 -217v-104z" />
    <glyph glyph-name="question" unicode="?" horiz-adv-x="572" 
d="M194 217q-1 87 15.5 125t84.5 93q45 37 60 56.5t15 49.5q0 35 -21 52t-79 17q-71 0 -149 -37l-66 127q102 50 241 50q125 0 175.5 -46t50.5 -133q0 -51 -14 -87.5t-31 -55t-54 -49.5q-58 -48 -70 -72.5t-11 -89.5h-147zM181 0v157h172v-157h-172z" />
    <glyph glyph-name="at" unicode="@" horiz-adv-x="861" 
d="M431 -165q-215 0 -304.5 108t-89.5 348q0 239 89.5 348t304.5 109q214 0 303.5 -109t89.5 -348q0 -144 -32 -201.5t-128 -57.5q-108 0 -129 68q-39 -68 -164 -68q-44 0 -75.5 14t-50 36.5t-29 58t-13.5 69.5t-3 80q0 59 6.5 101t24 80.5t53.5 58.5t90 20q62 0 91 -11
t46 -37l25 43l97 -9v-334q1 -24 2 -32.5t3.5 -22t7 -17.5t12.5 -7.5t21 -3.5q35 0 45 31t10 141q0 203 -68.5 289t-234.5 86q-167 0 -235.5 -86t-68.5 -289t68.5 -288.5t235.5 -85.5q119 0 231 46l33 -77q-127 -51 -264 -51zM414 147q54 0 70 32.5t16 109.5
q0 78 -15.5 107.5t-70.5 29.5q-48 0 -63.5 -31.5t-15.5 -106.5q0 -76 15 -108.5t64 -32.5z" />
    <glyph glyph-name="A" unicode="A" horiz-adv-x="656" 
d="M240 253h170l-84 281zM13 0l231 746h168l231 -746h-161l-34 115h-245l-33 -115h-157z" />
    <glyph glyph-name="B" unicode="B" horiz-adv-x="616" 
d="M58 0v741h271q125 0 181 -48t56 -142q0 -127 -87 -163q53 -18 77.5 -61t24.5 -120q0 -207 -246 -207h-277zM212 442h112q45 0 65 20.5t20 64.5q0 43 -19.5 61t-65.5 18h-112v-164zM212 131h121q45 0 67.5 20t22.5 68t-22.5 67t-68.5 19h-120v-174z" />
    <glyph glyph-name="C" unicode="C" horiz-adv-x="564" 
d="M324 -9q-164 0 -230.5 96t-66.5 283q0 90 13.5 155t46.5 118.5t95 80t154 26.5q119 0 201 -54l-84 -130q-49 31 -122 31q-80 0 -112.5 -49t-32.5 -182q0 -132 32.5 -183t113.5 -51q72 0 131 38l77 -121q-92 -58 -216 -58z" />
    <glyph glyph-name="D" unicode="D" horiz-adv-x="642" 
d="M58 0v741h231q179 0 252.5 -80.5t73.5 -289.5q0 -145 -33 -225.5t-102 -113t-191 -32.5h-231zM215 136h88q85 0 119 48t34 186q0 94 -16.5 143.5t-48.5 67t-92 17.5h-84v-462z" />
    <glyph glyph-name="E" unicode="E" horiz-adv-x="557" 
d="M58 0v741h457v-143h-304v-148h291v-142h-291v-168h305v-140h-458z" />
    <glyph glyph-name="F" unicode="F" horiz-adv-x="543" 
d="M58 0v741h458v-143h-301v-160h287v-142h-287v-296h-157z" />
    <glyph glyph-name="G" unicode="G" horiz-adv-x="616" 
d="M315 -9q-84 0 -141.5 25.5t-89 77t-44.5 117.5t-13 159q0 202 70.5 291t244.5 89q125 0 215 -57l-83 -130q-64 36 -139 36q-39 0 -65 -9t-46.5 -33.5t-30 -71.5t-9.5 -119q0 -140 31.5 -191t113.5 -51q68 0 90 36t22 127v18h-144v135h293v-125q0 -184 -56 -254t-219 -70z
" />
    <glyph glyph-name="H" unicode="H" horiz-adv-x="677" 
d="M58 0v741h157v-281h246v281h158v-741h-158v305h-246v-305h-157z" />
    <glyph glyph-name="I" unicode="I" horiz-adv-x="290" 
d="M67 0v741h156v-741h-156z" />
    <glyph glyph-name="J" unicode="J" horiz-adv-x="391" 
d="M26 0v140h71q47 0 65 17t18 56v528h157v-538q0 -113 -55 -158t-159 -45h-97z" />
    <glyph glyph-name="K" unicode="K" horiz-adv-x="639" 
d="M450 0l-159 322l-78 -108v-214h-155v741h155v-305l226 305h180l-222 -287l226 -454h-173z" />
    <glyph glyph-name="L" unicode="L" horiz-adv-x="513" 
d="M58 0v741h157v-601h288v-140h-445z" />
    <glyph glyph-name="M" unicode="M" horiz-adv-x="805" 
d="M58 0v741h200l144 -470l146 470h200v-741h-153v473l-148 -473h-101l-149 473v-473h-139z" />
    <glyph glyph-name="N" unicode="N" horiz-adv-x="673" 
d="M58 0v741h166l243 -427v427h149v-741h-144l-265 462v-462h-149z" />
    <glyph glyph-name="O" unicode="O" horiz-adv-x="668" 
d="M334 -9q-77 0 -133.5 21t-89.5 54t-52 84.5t-25.5 102t-6.5 117.5t6.5 118t25.5 102.5t52 84.5t89.5 54t133.5 21t133.5 -21t89.5 -54t52 -84.5t25.5 -102.5t6.5 -118t-6.5 -117.5t-25.5 -102t-52 -84.5t-89.5 -54t-133.5 -21zM334 130q39 0 66 11.5t43 30t25 50.5
t11.5 64t2.5 79q0 46 -2.5 78t-11.5 64t-25 50.5t-43 30t-66 11.5t-66 -11.5t-43 -30t-25 -50.5t-11.5 -64t-2.5 -78q0 -47 2.5 -79t11.5 -64t25 -50.5t43 -30t66 -11.5z" />
    <glyph glyph-name="P" unicode="P" horiz-adv-x="613" 
d="M58 0v741h285q129 0 186.5 -61.5t57.5 -179.5q0 -257 -247 -257h-128v-243h-154zM212 379h126q51 0 73.5 26t22.5 86t-22.5 86t-73.5 26h-126v-224z" />
    <glyph glyph-name="Q" unicode="Q" horiz-adv-x="668" 
d="M528 -183h-94q-101 0 -150.5 38.5t-48.5 120.5q0 20 1 31q-64 14 -107 47.5t-64.5 85t-29.5 105t-8 125.5q0 67 6.5 118t25.5 102.5t52 84.5t89.5 54t133.5 21t133.5 -21t89.5 -54t52 -84.5t25.5 -102.5t6.5 -118q0 -62 -5.5 -109t-21.5 -95.5t-43.5 -81t-74 -56
t-110.5 -29.5q2 -29 16 -40t51 -11h75v-131zM334 130q39 0 66 11.5t43 30t25 50.5t11.5 64t2.5 79q0 46 -2.5 78t-11.5 64t-25 50.5t-43 30t-66 11.5t-66 -11.5t-43 -30t-25 -50.5t-11.5 -64t-2.5 -78q0 -47 2.5 -79t11.5 -64t25 -50.5t43 -30t66 -11.5z" />
    <glyph glyph-name="R" unicode="R" horiz-adv-x="624" 
d="M212 385h125q51 0 73 25t22 84q0 60 -22 84.5t-73 24.5h-125v-218zM212 0h-154v741h283q129 0 186.5 -59.5t57.5 -176.5q0 -180 -123 -234l118 -271h-164l-106 248h-98v-248z" />
    <glyph glyph-name="S" unicode="S" horiz-adv-x="583" 
d="M293 -9q-178 0 -280 67l79 120q84 -53 197 -53q62 0 87.5 19t25.5 57q0 46 -27.5 64t-127.5 49q-106 33 -153.5 81.5t-47.5 136.5q0 108 66 163t190 55q130 0 227 -46l-68 -134q-68 33 -155 33q-56 0 -81.5 -15.5t-25.5 -50.5q0 -36 23 -52t95 -40q72 -23 112.5 -41.5
t71.5 -46t42 -63t11 -90.5q0 -101 -64.5 -157t-196.5 -56z" />
    <glyph glyph-name="T" unicode="T" horiz-adv-x="579" 
d="M210 0v598h-199v143h557v-143h-200v-598h-158z" />
    <glyph glyph-name="U" unicode="U" horiz-adv-x="668" 
d="M334 -11q-153 0 -217 66.5t-64 204.5v481h157v-466q0 -79 26 -112t100 -33q73 0 100 32.5t27 112.5v466h152v-481q0 -138 -63 -204.5t-218 -66.5z" />
    <glyph glyph-name="V" unicode="V" horiz-adv-x="648" 
d="M240 -5l-227 746h161l153 -519l150 519h159l-228 -746h-168z" />
    <glyph glyph-name="W" unicode="W" horiz-adv-x="899" 
d="M187 -5l-166 746h160l96 -450l107 450h139l108 -450l96 450h150l-165 -746h-154l-108 442l-108 -442h-155z" />
    <glyph glyph-name="X" unicode="X" horiz-adv-x="648" 
d="M457 0l-142 251l-130 -251h-169l221 391l-198 350h173l119 -211l108 211h170l-198 -352l219 -389h-173z" />
    <glyph glyph-name="Y" unicode="Y" horiz-adv-x="626" 
d="M390 0h-156v251l-236 490h167l150 -323l151 323h161l-237 -492v-249z" />
    <glyph glyph-name="Z" unicode="Z" horiz-adv-x="564" 
d="M23 0v118l320 480h-306v143h493v-129l-317 -472h326v-140h-516z" />
    <glyph glyph-name="bracketleft" unicode="[" horiz-adv-x="444" 
d="M88 -158v927h287v-130h-133v-673h135v-124h-289z" />
    <glyph glyph-name="backslash" unicode="\" horiz-adv-x="495" 
d="M342 0l-342 741h153l342 -741h-153z" />
    <glyph glyph-name="bracketright" unicode="]" horiz-adv-x="444" 
d="M68 -158v124h135v673h-132v130h286v-927h-289z" />
    <glyph glyph-name="asciicircum" unicode="^" horiz-adv-x="487" 
d="M65 570l109 183h139l110 -183h-120l-61 79l-60 -79h-117z" />
    <glyph glyph-name="underscore" unicode="_" horiz-adv-x="374" 
d="M-31 -150v112h436v-112h-436z" />
    <glyph glyph-name="grave" unicode="`" horiz-adv-x="487" 
d="M203 620l-145 183h168l106 -183h-129z" />
    <glyph glyph-name="a" unicode="a" horiz-adv-x="545" 
d="M237 117q48 0 72.5 22t24.5 77v52h-19q-86 0 -117 -16t-31 -64q0 -38 16 -54.5t54 -16.5zM358 45q-43 -52 -156 -52q-103 0 -141 46t-38 132q0 116 67 160t224 44h20q-2 37 -18 52t-57 15q-82 0 -144 -30l-61 122q87 45 222 45q115 0 159.5 -43t44.5 -150v-211
q0 -28 6.5 -36t32.5 -8v-131q-16 -2 -45 -2q-56 0 -80 9t-36 38z" />
    <glyph glyph-name="b" unicode="b" horiz-adv-x="568" 
d="M48 5v764h150v-245q40 54 154 54q49 0 84.5 -16.5t55.5 -41.5t31.5 -65.5t15 -79t3.5 -90.5t-4 -91.5t-16 -79t-33 -64.5t-57.5 -41t-85.5 -16q-74 0 -105 11t-60 39l-23 -49zM300 124q54 0 71.5 35t17.5 119q0 86 -17 122t-72 36q-62 0 -81.5 -37t-19.5 -121t19 -119
t82 -35z" />
    <glyph glyph-name="c" unicode="c" horiz-adv-x="448" 
d="M264 -8q-136 0 -187 72t-51 221q0 73 10.5 123t37 90t76 59.5t123.5 19.5q94 0 157 -30l-66 -131q-38 20 -83 20q-57 0 -79 -35t-22 -121q0 -88 22 -122.5t82 -34.5q41 0 95 23l57 -115q-81 -39 -172 -39z" />
    <glyph glyph-name="d" unicode="d" horiz-adv-x="568" 
d="M268 124q62 0 81.5 37t19.5 122q0 83 -19 118.5t-82 35.5q-54 0 -71.5 -35.5t-17.5 -118.5q0 -86 17 -122.5t72 -36.5zM216 -7q-60 0 -99.5 22.5t-58 67t-25 90.5t-6.5 113q0 43 3 76.5t10 68.5t21 60t35.5 45.5t53.5 30.5t73 10q107 0 146 -43v235h152v-764l-121 -10
l-12 52q-46 -54 -172 -54z" />
    <glyph glyph-name="e" unicode="e" horiz-adv-x="515" 
d="M267 445q-53 0 -73 -26t-23 -86h181q-2 64 -16.5 88t-68.5 24zM481 40q-88 -47 -214 -47q-73 0 -121.5 19t-74 59t-35.5 90t-10 124q0 146 54 219t191 73q65 0 108.5 -17.5t64.5 -49t31.5 -76.5t10 -100t-0.5 -118h-313q5 -52 26.5 -73t76.5 -21q79 0 149 33z" />
    <glyph glyph-name="f" unicode="f" horiz-adv-x="390" 
d="M384 435h-129v-435h-151v435h-92v132h92v46q0 174 198 174q48 0 82 -2v-130h-67q-38 0 -50 -13.5t-12 -45.5v-29h129v-132z" />
    <glyph glyph-name="g" unicode="g" horiz-adv-x="547" 
d="M264 308q43 0 61.5 18t18.5 55q0 36 -18.5 54t-61.5 18q-79 0 -79 -72q0 -73 79 -73zM521 10q0 -97 -61.5 -137.5t-194.5 -40.5q-138 0 -196.5 28t-58.5 107q0 106 96 129q-30 26 -30 78q0 38 20 67q-59 45 -59 143q0 101 57 147.5t170 46.5q18 0 28 -1l224 46v-117h-77
q53 -35 53 -122q0 -99 -59 -141.5t-169 -42.5q-33 0 -60 3q-2 -5 -2 -15q0 -18 14 -24t59 -6q146 0 196 -31.5t50 -116.5zM263 -63q64 0 84.5 14.5t20.5 48.5q0 29 -19.5 39.5t-84.5 10.5q-59 0 -81.5 -13t-22.5 -43t22.5 -43.5t80.5 -13.5z" />
    <glyph glyph-name="h" unicode="h" horiz-adv-x="562" 
d="M48 0v769h150v-242q39 50 154 50q50 0 84 -15t51.5 -44.5t24 -64t6.5 -82.5v-371h-152v333q0 55 -13.5 77.5t-59.5 22.5q-57 0 -75.5 -26.5t-18.5 -94.5v-312h-151z" />
    <glyph glyph-name="i" unicode="i" horiz-adv-x="256" 
d="M52 618v137h152v-137h-152zM52 0v567h151v-567h-151z" />
    <glyph glyph-name="j" unicode="j" horiz-adv-x="256" 
d="M52 618v137h152v-137h-152zM1 -158v121h11q27 0 33.5 11.5t6.5 47.5v545h151v-550q0 -99 -37.5 -137t-141.5 -38h-23z" />
    <glyph glyph-name="k" unicode="k" horiz-adv-x="523" 
d="M358 0l-115 207l-47 -70v-137h-148v769h148v-430l154 228h159l-167 -237l177 -330h-161z" />
    <glyph glyph-name="l" unicode="l" horiz-adv-x="293" 
d="M262 0q-12 -2 -55 -2q-82 0 -118.5 34.5t-36.5 128.5v608h151v-587q0 -33 9.5 -42t49.5 -9v-131z" />
    <glyph glyph-name="m" unicode="m" horiz-adv-x="855" 
d="M48 0v558l121 10l11 -45q41 54 167 54q109 0 133 -55q45 55 176 55q51 0 83.5 -14.5t48.5 -45t21.5 -63.5t5.5 -83v-371h-150v333q0 57 -12 78.5t-57 21.5q-55 0 -72.5 -26.5t-17.5 -94.5v-312h-150v333q0 57 -11.5 78.5t-56.5 21.5q-56 0 -73.5 -27t-17.5 -94v-312h-149
z" />
    <glyph glyph-name="n" unicode="n" horiz-adv-x="562" 
d="M48 0v558l121 10l11 -45q43 54 172 54q50 0 84 -15t51.5 -44.5t24 -64t6.5 -82.5v-371h-152v333q0 55 -13.5 77.5t-59.5 22.5q-57 0 -75.5 -27.5t-18.5 -93.5v-312h-151z" />
    <glyph glyph-name="o" unicode="o" horiz-adv-x="551" 
d="M276 -9q-141 0 -195.5 74t-54.5 220q0 145 54 218.5t196 73.5q74 0 124 -20.5t76.5 -61t37.5 -90.5t11 -120q0 -73 -11 -123.5t-37.5 -91t-76.5 -60t-124 -19.5zM276 123q60 0 78.5 37t18.5 120q0 84 -18 120t-79 36t-79 -36t-18 -120q0 -83 18.5 -120t78.5 -37z" />
    <glyph glyph-name="p" unicode="p" horiz-adv-x="568" 
d="M300 124q53 0 71 35t18 119q0 86 -17 122t-72 36q-62 0 -81.5 -37t-19.5 -121t19 -119t82 -35zM48 -158v716l121 10l10 -45q45 54 173 54q49 0 84.5 -16t55.5 -41.5t31.5 -65.5t15 -78.5t3.5 -90.5q0 -66 -7.5 -113.5t-27 -90.5t-60 -65.5t-101.5 -22.5q-106 0 -147 44
v-195h-151z" />
    <glyph glyph-name="q" unicode="q" horiz-adv-x="568" 
d="M370 -158v202q-40 -51 -154 -51q-60 0 -99.5 22.5t-58 67t-25 90.5t-6.5 113q0 43 3 76.5t10 68.5t21 60t35.5 45.5t53.5 30.5t73 10q73 0 108.5 -11t56.5 -36l22 42l111 -10v-720h-151zM268 124q62 0 81.5 37t19.5 122q0 83 -19 118.5t-82 35.5q-54 0 -71.5 -35.5
t-17.5 -118.5q0 -86 17 -122.5t72 -36.5z" />
    <glyph glyph-name="r" unicode="r" horiz-adv-x="345" 
d="M48 0v558l120 10l13 -53q43 57 158 57v-143q-38 0 -64.5 -8t-41 -19.5t-22 -32t-9.5 -39t-2 -46.5v-284h-152z" />
    <glyph glyph-name="s" unicode="s" horiz-adv-x="454" 
d="M231 -7q-143 0 -223 42l58 117q76 -37 165 -37q63 0 63 44q0 24 -19.5 36.5t-90.5 35.5q-57 19 -87.5 37.5t-49 51t-18.5 83.5q0 174 212 174q103 0 176 -30l-58 -125q-58 24 -124 24q-35 0 -48.5 -9.5t-13.5 -30.5q0 -20 19 -32t79 -32q92 -30 128 -66t36 -115
q0 -168 -204 -168z" />
    <glyph glyph-name="t" unicode="t" horiz-adv-x="415" 
d="M380 0q-65 -5 -84 -5q-112 0 -153.5 40t-41.5 138v262h-89v132h96l23 127l120 27v-154h129v-132h-129v-244q0 -33 11.5 -46.5t52.5 -13.5h65v-131z" />
    <glyph glyph-name="u" unicode="u" horiz-adv-x="552" 
d="M276 -8q-134 0 -183 54t-49 186v335h152v-327q0 -67 13.5 -90.5t68.5 -23.5q53 0 67 24t14 91v326h149v-335q0 -133 -47.5 -186.5t-184.5 -53.5z" />
    <glyph glyph-name="v" unicode="v" horiz-adv-x="519" 
d="M176 -5l-174 572h158l103 -374l103 374h152l-176 -572h-166z" />
    <glyph glyph-name="w" unicode="w" horiz-adv-x="761" 
d="M148 -5l-138 572h153l69 -332l83 332h139l82 -326l70 326h145l-137 -572h-148l-85 318l-83 -318h-150z" />
    <glyph glyph-name="x" unicode="x" horiz-adv-x="507" 
d="M341 0l-96 168l-89 -168h-154l168 298l-154 269h164l82 -144l75 144h154l-154 -275l167 -292h-163z" />
    <glyph glyph-name="y" unicode="y" horiz-adv-x="498" 
d="M131 -158h-63v121h64q19 0 27 5.5t12 18.5l4 12l-174 568h155l97 -348l94 348h149l-187 -611q-21 -69 -60.5 -91.5t-117.5 -22.5z" />
    <glyph glyph-name="z" unicode="z" horiz-adv-x="447" 
d="M12 0v100l226 335h-212v132h402v-102l-228 -342h237v-123h-425z" />
    <glyph glyph-name="braceleft" unicode="{" horiz-adv-x="474" 
d="M300 -158q-96 0 -138.5 33.5t-42.5 101.5q0 29 20.5 118.5t20.5 102.5q0 28 -21 36t-84 8v127q63 0 84 7.5t21 35.5q0 19 -20.5 105t-20.5 116q0 69 42 102.5t137 33.5h110v-130h-62q-36 0 -53.5 -12t-17.5 -44q0 -20 18 -94.5t18 -102.5q0 -62 -56 -80q56 -21 56 -81
q0 -35 -18 -109.5t-18 -89.5q0 -60 71 -60h62v-124h-108z" />
    <glyph glyph-name="bar" unicode="|" horiz-adv-x="329" 
d="M88 -158v927h154v-927h-154z" />
    <glyph glyph-name="braceright" unicode="}" horiz-adv-x="474" 
d="M67 -158v124h61q72 0 72 60q0 15 -18.5 89.5t-18.5 109.5q0 61 56 81q-56 20 -56 80q0 28 18.5 102.5t18.5 94.5q0 32 -18 44t-54 12h-61v130h109q95 0 137 -33.5t42 -102.5q0 -30 -20.5 -116t-20.5 -105q0 -27 20.5 -34.5t85.5 -7.5v-128q-64 0 -85 -7.5t-21 -36.5
q0 -13 20.5 -102.5t20.5 -118.5q0 -68 -42.5 -101.5t-137.5 -33.5h-108z" />
    <glyph glyph-name="asciitilde" unicode="~" horiz-adv-x="487" 
d="M127 360l-97 56q56 110 146 110q30 0 68 -21.5t50 -21.5q28 0 63 48l96 -56q-30 -58 -64 -84.5t-81 -26.5q-30 0 -68.5 21t-49.5 21q-31 0 -63 -46z" />
    <glyph glyph-name="exclamdown" unicode="&#xa1;" horiz-adv-x="345" 
d="M87 565v176h172v-176h-172zM90 0l14 510h138l13 -510h-165z" />
    <glyph glyph-name="cent" unicode="&#xa2;" horiz-adv-x="477" 
d="M449 33q-54 -27 -105 -34v-94h-146v99q-89 19 -123.5 87.5t-34.5 193.5q0 123 34 191t124 89v80h146v-74q56 -5 99 -27l-64 -128q-38 20 -84 20q-57 0 -78.5 -34.5t-21.5 -121.5q0 -88 21.5 -122.5t81.5 -34.5q41 0 95 23z" />
    <glyph glyph-name="sterling" unicode="&#xa3;" horiz-adv-x="567" 
d="M547 191q0 -108 -36 -152t-127 -44t-178 40q-55 -35 -191 -35v132q78 0 99 11t21 54q0 34 -18 115h-99v122h71q-16 78 -16 118q0 102 56 150t172 48q126 0 214 -45l-64 -123q-59 29 -149 29q-79 0 -79 -77q0 -33 12 -100h143v-122h-120q14 -75 14 -113q0 -35 -4 -58
q46 -18 96 -18q31 0 41 17t10 57v57h132v-63z" />
    <glyph glyph-name="yen" unicode="&#xa5;" horiz-adv-x="580" 
d="M519 56h-156v-56h-147v56h-155v107h155v53h-155v107h149l-203 418h161l122 -284l123 284h159l-202 -418h149v-107h-156v-53h156v-107z" />
    <glyph glyph-name="brokenbar" unicode="&#xa6;" horiz-adv-x="329" 
d="M88 386v383h154v-383h-154zM88 -158v383h154v-383h-154z" />
    <glyph glyph-name="section" unicode="&#xa7;" horiz-adv-x="489" 
d="M126 -5q-28 0 -56 2v118h40q38 0 49.5 14.5t11.5 49.5v30q-66 12 -93.5 50t-27.5 108q0 71 27.5 110t93.5 51v22q0 46 7 78t26 60.5t57.5 42.5t97.5 14q28 0 56 -2v-124h-40q-38 0 -49.5 -14.5t-11.5 -50.5v-25q68 -12 96.5 -51.5t28.5 -110.5t-28.5 -109t-96.5 -50v-18
q0 -46 -7 -78.5t-26 -60.5t-58 -42t-97 -14zM244 302q76 0 76 61q0 32 -18 46.5t-58 14.5q-39 0 -57 -14.5t-18 -46.5q0 -61 75 -61z" />
    <glyph glyph-name="dieresis" unicode="&#xa8;" horiz-adv-x="487" 
d="M275 620v134h133v-134h-133zM79 620v134h134v-134h-134z" />
    <glyph glyph-name="copyright" unicode="&#xa9;" horiz-adv-x="668" 
d="M334 -9q-89 0 -150 28t-94 81.5t-46.5 118.5t-13.5 151q0 69 8 123t29 104t54.5 82.5t87.5 52t125 19.5q88 0 149.5 -28.5t94.5 -82t47 -119t14 -151.5t-14 -151t-47 -118.5t-94.5 -81.5t-149.5 -28zM334 45q59 0 102.5 16.5t71 44.5t44 70.5t23 88.5t6.5 105t-6.5 105.5
t-23 89t-44 70.5t-71 44.5t-102.5 16.5q-73 0 -122.5 -24t-76 -70.5t-37 -101.5t-10.5 -130q0 -74 10.5 -129t37 -101.5t76 -70.5t122.5 -24zM340 138q-103 0 -144 59.5t-41 177.5q0 117 41 177t151 60q74 0 126 -33l-52 -80q-32 20 -77 20q-51 0 -71 -31t-20 -116
q0 -83 20.5 -115.5t71.5 -32.5q44 0 82 25l48 -76q-58 -35 -135 -35z" />
    <glyph glyph-name="ordfeminine" unicode="&#xaa;" horiz-adv-x="496" 
d="M221 376q39 0 58.5 17.5t19.5 62.5v36h-15q-70 0 -94.5 -11t-24.5 -48q0 -30 13 -43.5t43 -13.5zM315 327q-18 -28 -47 -39.5t-85 -11.5q-135 0 -135 143q0 93 53.5 126t182.5 33h15q-1 33 -13 46.5t-47 13.5q-63 0 -117 -24l-49 100q72 36 180 36q94 0 129.5 -35
t35.5 -122v-170q0 -22 5.5 -28.5t26.5 -6.5v-108q-7 0 -19.5 -0.5t-17.5 -0.5q-47 0 -68 9t-30 39zM63 118v108h365v-108h-365z" />
    <glyph glyph-name="guillemotleft" unicode="&#xab;" horiz-adv-x="654" 
d="M435 0l-125 283l125 284h132l-114 -284l114 -283h-132zM188 0l-125 283l125 284h133l-114 -284l114 -283h-133z" />
    <glyph glyph-name="registered" unicode="&#xae;" horiz-adv-x="668" 
d="M334 -9q-89 0 -150 28t-94 81.5t-46.5 118.5t-13.5 151q0 69 8 123t29 104t54.5 82.5t87.5 52t125 19.5q88 0 149.5 -28.5t94.5 -82t47 -119t14 -151.5t-14 -151t-47 -118.5t-94.5 -81.5t-149.5 -28zM334 45q59 0 102.5 16.5t71 44.5t44 70.5t23 88.5t6.5 105t-6.5 105.5
t-23 89t-44 70.5t-71 44.5t-102.5 16.5q-73 0 -122.5 -24t-76 -70.5t-37 -101.5t-10.5 -130q0 -74 10.5 -129t37 -101.5t76 -70.5t122.5 -24zM275 381h76q33 0 46.5 15.5t13.5 52.5q0 38 -13.5 53.5t-46.5 15.5h-76v-137zM275 146h-93v453h173q83 0 115 -35t32 -108
q0 -57 -17.5 -91.5t-60.5 -48.5l75 -170h-95l-69 160h-60v-160z" />
    <glyph glyph-name="macron" unicode="&#xaf;" horiz-adv-x="487" 
d="M63 620v125h360v-125h-360z" />
    <glyph glyph-name="degree" unicode="&#xb0;" horiz-adv-x="474" 
d="M237 266q-60 0 -101 18.5t-62.5 54t-30.5 76t-9 93.5t9 93.5t30.5 75.5t62.5 54t101 19t101.5 -19t63.5 -54t31 -75.5t9 -93.5t-9 -93.5t-31 -76t-63.5 -54t-101.5 -18.5zM237 379q50 0 66.5 32t16.5 93t-16.5 92t-66.5 31q-48 0 -65 -31.5t-17 -91.5q0 -61 17 -93
t65 -32z" />
    <glyph glyph-name="plusminus" unicode="&#xb1;" horiz-adv-x="609" 
d="M530 6h-451v131h154v150h-154v131h154v180h143v-180h154v-131h-154v-150h154v-131z" />
    <glyph glyph-name="two.sups" unicode="&#xb2;" horiz-adv-x="431" 
d="M45 256v88l123 131q52 56 65 75.5t13 41.5q0 27 -13.5 36t-43.5 9q-48 0 -96 -23l-51 99q70 34 167 34q156 0 156 -133q0 -58 -20.5 -96t-89.5 -108l-55 -56h174v-98h-329z" />
    <glyph glyph-name="three.sups" unicode="&#xb3;" horiz-adv-x="437" 
d="M207 250q-104 0 -166 37l51 93q50 -27 105 -27q42 0 55.5 12.5t13.5 47.5q0 28 -15 38.5t-60 10.5h-75v96h75q37 0 50 9t13 33q0 25 -12 32.5t-47 7.5q-54 0 -100 -22l-48 93q63 36 169 36q78 0 117 -25.5t39 -92.5q0 -45 -10 -70.5t-37 -36.5q35 -12 47 -38t12 -84
q0 -81 -43.5 -115.5t-133.5 -34.5z" />
    <glyph glyph-name="acute" unicode="&#xb4;" horiz-adv-x="487" 
d="M155 620l106 183h167l-144 -183h-129z" />
    <glyph glyph-name="paragraph" unicode="&#xb6;" horiz-adv-x="573" 
d="M290 379h86v226h-86q-61 0 -85.5 -26t-24.5 -88q0 -61 24.5 -86.5t85.5 -25.5zM376 249h-60v-249h-147v264q-79 23 -110.5 81t-31.5 151q0 60 12 103t40.5 76t81.5 49.5t132 16.5h230v-741h-147v249z" />
    <glyph glyph-name="periodcentered" unicode="&#xb7;" horiz-adv-x="260" 
d="M44 278v183h172v-183h-172z" />
    <glyph glyph-name="cedilla" unicode="&#xb8;" horiz-adv-x="487" 
d="M250 -243q-64 0 -118 26l32 70q40 -15 75 -15q29 0 39.5 8.5t10.5 29.5q0 24 -15 29.5t-57 3.5l-26 19l16 79h82l-9 -49q51 3 78.5 -17t27.5 -76q0 -58 -31 -83t-105 -25z" />
    <glyph glyph-name="one.sups" unicode="&#xb9;" horiz-adv-x="321" 
d="M112 256v375h-68v110h194v-485h-126z" />
    <glyph glyph-name="ordmasculine" unicode="&#xba;" horiz-adv-x="496" 
d="M248 274q-114 0 -158 60t-44 178q0 117 44 177.5t158 60.5q116 0 159.5 -60.5t43.5 -177.5q0 -120 -43 -179t-160 -59zM248 382q49 0 63.5 29.5t14.5 97.5q0 67 -14.5 96.5t-63.5 29.5q-48 0 -63 -29.5t-15 -96.5t15 -97t63 -30zM63 118v108h369v-108h-369z" />
    <glyph glyph-name="guillemotright" unicode="&#xbb;" horiz-adv-x="654" 
d="M333 0l114 284l-114 283h133l124 -283l-124 -284h-133zM86 0l115 284l-115 283h133l125 -283l-125 -284h-133z" />
    <glyph glyph-name="onequarter" unicode="&#xbc;" horiz-adv-x="901" 
d="M115 256v375h-67v110h193v-485h-126zM187 0l341 741h134l-340 -741h-135zM865 82h-59v-82h-112v82h-205v91l169 312h124l-167 -306h81l20 104h90v-104h59v-97z" />
    <glyph glyph-name="onehalf" unicode="&#xbd;" horiz-adv-x="945" 
d="M115 256v375h-67v110h193v-485h-126zM187 0l341 741h134l-340 -741h-135zM568 0v88l123 131q53 57 65.5 75.5t12.5 41.5q0 28 -13 36.5t-44 8.5q-48 0 -96 -23l-50 99q72 35 167 35q156 0 156 -134q0 -57 -21.5 -96t-89.5 -108l-55 -56h174v-98h-329z" />
    <glyph glyph-name="threequarters" unicode="&#xbe;" horiz-adv-x="990" 
d="M276 0l341 741h134l-340 -741h-135zM207 250q-104 0 -166 37l51 93q50 -27 105 -27q42 0 55.5 12.5t13.5 47.5q0 28 -15 38.5t-60 10.5h-75v96h75q37 0 50 9t13 33q0 25 -12 32.5t-47 7.5q-54 0 -100 -22l-48 93q63 36 169 36q78 0 117 -25.5t39 -92.5q0 -45 -10 -70.5
t-37 -36.5q35 -12 47 -38t12 -84q0 -81 -43.5 -115.5t-133.5 -34.5zM954 82h-58v-82h-112v82h-206v91l170 312h124l-167 -306h81l20 104h90v-104h58v-97z" />
    <glyph glyph-name="questiondown" unicode="&#xbf;" horiz-adv-x="579" 
d="M226 584v157h172v-157h-172zM284 -9q-125 0 -175.5 46t-50.5 133q0 51 14 87.5t31 55t54 49.5q58 48 70 72t11 90h148q0 -87 -16.5 -125t-84.5 -93q-45 -37 -59.5 -56.5t-14.5 -49.5q0 -35 20.5 -52t78.5 -17q71 0 149 37l66 -127q-100 -50 -241 -50z" />
    <glyph glyph-name="Agrave" unicode="&#xc0;" horiz-adv-x="656" 
d="M287 779l-145 183h168l106 -183h-129zM240 253h170l-84 281zM13 0l231 746h168l231 -746h-161l-34 115h-245l-33 -115h-157z" />
    <glyph glyph-name="Aacute" unicode="&#xc1;" horiz-adv-x="656" 
d="M239 779l106 183h167l-144 -183h-129zM240 253h170l-84 281zM13 0l231 746h168l231 -746h-161l-34 115h-245l-33 -115h-157z" />
    <glyph glyph-name="Acircumflex" unicode="&#xc2;" horiz-adv-x="656" 
d="M149 779l109 183h139l110 -183h-120l-61 79l-60 -79h-117zM240 253h170l-84 281zM13 0l231 746h168l231 -746h-161l-34 115h-245l-33 -115h-157z" />
    <glyph glyph-name="Atilde" unicode="&#xc3;" horiz-adv-x="656" 
d="M211 773l-97 56q56 110 146 110q30 0 68 -21.5t50 -21.5q28 0 63 48l96 -56q-30 -58 -64 -84.5t-81 -26.5q-30 0 -68.5 21t-49.5 21q-31 0 -63 -46zM240 253h170l-84 281zM13 0l231 746h168l231 -746h-161l-34 115h-245l-33 -115h-157z" />
    <glyph glyph-name="Adieresis" unicode="&#xc4;" horiz-adv-x="656" 
d="M359 779v134h133v-134h-133zM163 779v134h134v-134h-134zM240 253h170l-84 281zM13 0l231 746h168l231 -746h-161l-34 115h-245l-33 -115h-157z" />
    <glyph glyph-name="Aring" unicode="&#xc5;" horiz-adv-x="656" 
d="M327 747q49 0 49 62q0 63 -49 63t-49 -63q0 -62 49 -62zM240 253h170l-84 281zM13 0l220 711q-29 35 -29 98q0 136 123 136q63 0 93.5 -37t30.5 -99q0 -61 -29 -96l221 -713h-161l-34 115h-245l-33 -115h-157z" />
    <glyph glyph-name="AE" unicode="&#xc6;" horiz-adv-x="940" 
d="M281 251h160v334zM9 0l354 741h535v-143h-304v-150h290v-140h-290v-168h305v-140h-458v117h-223l-55 -117h-154z" />
    <glyph glyph-name="Ccedilla" unicode="&#xc7;" horiz-adv-x="564" 
d="M288 -243q-64 0 -118 26l32 70q40 -15 75 -15q29 0 39.5 8.5t10.5 29.5q0 24 -15 29.5t-57 3.5l-26 19l14 71q-118 22 -167 115.5t-49 255.5q0 90 13.5 155t46.5 118.5t95 80t154 26.5q119 0 201 -54l-84 -130q-49 31 -122 31q-80 0 -112.5 -49t-32.5 -182
q0 -132 32.5 -183t113.5 -51q72 0 131 38l77 -121q-92 -58 -216 -58l-6 -33q51 3 78.5 -17t27.5 -76q0 -58 -31 -83t-105 -25z" />
    <glyph glyph-name="Egrave" unicode="&#xc8;" horiz-adv-x="557" 
d="M238 779l-145 183h168l106 -183h-129zM58 0v741h457v-143h-304v-148h291v-142h-291v-168h305v-140h-458z" />
    <glyph glyph-name="Eacute" unicode="&#xc9;" horiz-adv-x="557" 
d="M190 779l106 183h167l-144 -183h-129zM58 0v741h457v-143h-304v-148h291v-142h-291v-168h305v-140h-458z" />
    <glyph glyph-name="Ecircumflex" unicode="&#xca;" horiz-adv-x="557" 
d="M100 779l109 183h139l110 -183h-120l-61 79l-60 -79h-117zM58 0v741h457v-143h-304v-148h291v-142h-291v-168h305v-140h-458z" />
    <glyph glyph-name="Edieresis" unicode="&#xcb;" horiz-adv-x="557" 
d="M310 779v134h133v-134h-133zM114 779v134h134v-134h-134zM58 0v741h457v-143h-304v-148h291v-142h-291v-168h305v-140h-458z" />
    <glyph glyph-name="Igrave" unicode="&#xcc;" horiz-adv-x="290" 
d="M89 780l-129 183h167l91 -183h-129zM67 0v741h156v-741h-156z" />
    <glyph glyph-name="Iacute" unicode="&#xcd;" horiz-adv-x="290" 
d="M71 780l92 183h166l-130 -183h-128zM67 0v741h156v-741h-156z" />
    <glyph glyph-name="Icircumflex" unicode="&#xce;" horiz-adv-x="290" 
d="M-33 780l108 183h139l109 -183h-120l-60 79l-59 -79h-117zM67 0v741h156v-741h-156z" />
    <glyph glyph-name="Idieresis" unicode="&#xcf;" horiz-adv-x="290" 
d="M177 779v134h133v-134h-133zM-19 779v134h134v-134h-134zM67 0v741h156v-741h-156z" />
    <glyph glyph-name="Eth" unicode="&#xd0;" horiz-adv-x="642" 
d="M289 0h-231v310h-58v127h58v304h231q179 0 252.5 -80.5t73.5 -289.5q0 -145 -33 -225.5t-102 -113t-191 -32.5zM215 136h88q85 0 119 48t34 186q0 94 -16.5 143.5t-48.5 67t-92 17.5h-84v-161h105v-127h-105v-174z" />
    <glyph glyph-name="Ntilde" unicode="&#xd1;" horiz-adv-x="673" 
d="M219 773l-97 56q56 110 146 110q30 0 68 -21.5t50 -21.5q28 0 63 48l96 -56q-30 -58 -64 -84.5t-81 -26.5q-30 0 -68.5 21t-49.5 21q-31 0 -63 -46zM58 0v741h166l243 -427v427h149v-741h-144l-265 462v-462h-149z" />
    <glyph glyph-name="Ograve" unicode="&#xd2;" horiz-adv-x="668" 
d="M293 779l-145 183h168l106 -183h-129zM334 -9q-77 0 -133.5 21t-89.5 54t-52 84.5t-25.5 102t-6.5 117.5t6.5 118t25.5 102.5t52 84.5t89.5 54t133.5 21t133.5 -21t89.5 -54t52 -84.5t25.5 -102.5t6.5 -118t-6.5 -117.5t-25.5 -102t-52 -84.5t-89.5 -54t-133.5 -21z
M334 130q39 0 66 11.5t43 30t25 50.5t11.5 64t2.5 79q0 46 -2.5 78t-11.5 64t-25 50.5t-43 30t-66 11.5t-66 -11.5t-43 -30t-25 -50.5t-11.5 -64t-2.5 -78q0 -47 2.5 -79t11.5 -64t25 -50.5t43 -30t66 -11.5z" />
    <glyph glyph-name="Oacute" unicode="&#xd3;" horiz-adv-x="668" 
d="M245 779l106 183h167l-144 -183h-129zM334 -9q-77 0 -133.5 21t-89.5 54t-52 84.5t-25.5 102t-6.5 117.5t6.5 118t25.5 102.5t52 84.5t89.5 54t133.5 21t133.5 -21t89.5 -54t52 -84.5t25.5 -102.5t6.5 -118t-6.5 -117.5t-25.5 -102t-52 -84.5t-89.5 -54t-133.5 -21z
M334 130q39 0 66 11.5t43 30t25 50.5t11.5 64t2.5 79q0 46 -2.5 78t-11.5 64t-25 50.5t-43 30t-66 11.5t-66 -11.5t-43 -30t-25 -50.5t-11.5 -64t-2.5 -78q0 -47 2.5 -79t11.5 -64t25 -50.5t43 -30t66 -11.5z" />
    <glyph glyph-name="Ocircumflex" unicode="&#xd4;" horiz-adv-x="668" 
d="M155 779l109 183h139l110 -183h-120l-61 79l-60 -79h-117zM334 -9q-77 0 -133.5 21t-89.5 54t-52 84.5t-25.5 102t-6.5 117.5t6.5 118t25.5 102.5t52 84.5t89.5 54t133.5 21t133.5 -21t89.5 -54t52 -84.5t25.5 -102.5t6.5 -118t-6.5 -117.5t-25.5 -102t-52 -84.5
t-89.5 -54t-133.5 -21zM334 130q39 0 66 11.5t43 30t25 50.5t11.5 64t2.5 79q0 46 -2.5 78t-11.5 64t-25 50.5t-43 30t-66 11.5t-66 -11.5t-43 -30t-25 -50.5t-11.5 -64t-2.5 -78q0 -47 2.5 -79t11.5 -64t25 -50.5t43 -30t66 -11.5z" />
    <glyph glyph-name="Otilde" unicode="&#xd5;" horiz-adv-x="668" 
d="M217 773l-97 56q56 110 146 110q30 0 68 -21.5t50 -21.5q28 0 63 48l96 -56q-30 -58 -64 -84.5t-81 -26.5q-30 0 -68.5 21t-49.5 21q-31 0 -63 -46zM334 -9q-77 0 -133.5 21t-89.5 54t-52 84.5t-25.5 102t-6.5 117.5t6.5 118t25.5 102.5t52 84.5t89.5 54t133.5 21
t133.5 -21t89.5 -54t52 -84.5t25.5 -102.5t6.5 -118t-6.5 -117.5t-25.5 -102t-52 -84.5t-89.5 -54t-133.5 -21zM334 130q39 0 66 11.5t43 30t25 50.5t11.5 64t2.5 79q0 46 -2.5 78t-11.5 64t-25 50.5t-43 30t-66 11.5t-66 -11.5t-43 -30t-25 -50.5t-11.5 -64t-2.5 -78
q0 -47 2.5 -79t11.5 -64t25 -50.5t43 -30t66 -11.5z" />
    <glyph glyph-name="Odieresis" unicode="&#xd6;" horiz-adv-x="668" 
d="M365 779v134h133v-134h-133zM169 779v134h134v-134h-134zM334 -9q-77 0 -133.5 21t-89.5 54t-52 84.5t-25.5 102t-6.5 117.5t6.5 118t25.5 102.5t52 84.5t89.5 54t133.5 21t133.5 -21t89.5 -54t52 -84.5t25.5 -102.5t6.5 -118t-6.5 -117.5t-25.5 -102t-52 -84.5
t-89.5 -54t-133.5 -21zM334 130q39 0 66 11.5t43 30t25 50.5t11.5 64t2.5 79q0 46 -2.5 78t-11.5 64t-25 50.5t-43 30t-66 11.5t-66 -11.5t-43 -30t-25 -50.5t-11.5 -64t-2.5 -78q0 -47 2.5 -79t11.5 -64t25 -50.5t43 -30t66 -11.5z" />
    <glyph glyph-name="multiply" unicode="&#xd7;" horiz-adv-x="609" 
d="M180 134l-92 94l124 124l-123 123l92 94l123 -123l124 123l92 -94l-124 -123l123 -122l-91 -95l-124 123z" />
    <glyph glyph-name="Oslash" unicode="&#xd8;" horiz-adv-x="668" 
d="M181 365q0 -110 19 -159l178 396q-17 4 -44 4q-40 0 -68 -12t-44.5 -31t-25.5 -52t-12 -65.5t-3 -80.5zM334 123q40 0 68 12t44.5 31t25.5 51.5t12 66t3 81.5q0 113 -21 164l-182 -401q25 -5 50 -5zM334 -9q-56 0 -102 11l-21 -43h-133l45 96q-96 85 -96 315
q0 67 6.5 118t25.5 102.5t52 84.5t89.5 54t133.5 21q55 0 102 -11l21 44h134l-47 -97q55 -49 76 -128t21 -188q0 -67 -6.5 -117.5t-25.5 -102t-52 -84.5t-89.5 -54t-133.5 -21z" />
    <glyph glyph-name="Ugrave" unicode="&#xd9;" horiz-adv-x="668" 
d="M292 779l-145 183h168l106 -183h-129zM334 -11q-153 0 -217 66.5t-64 204.5v481h157v-466q0 -79 26 -112t100 -33q73 0 100 32.5t27 112.5v466h152v-481q0 -138 -63 -204.5t-218 -66.5z" />
    <glyph glyph-name="Uacute" unicode="&#xda;" horiz-adv-x="668" 
d="M244 779l106 183h167l-144 -183h-129zM334 -11q-153 0 -217 66.5t-64 204.5v481h157v-466q0 -79 26 -112t100 -33q73 0 100 32.5t27 112.5v466h152v-481q0 -138 -63 -204.5t-218 -66.5z" />
    <glyph glyph-name="Ucircumflex" unicode="&#xdb;" horiz-adv-x="668" 
d="M154 779l109 183h139l110 -183h-120l-61 79l-60 -79h-117zM334 -11q-153 0 -217 66.5t-64 204.5v481h157v-466q0 -79 26 -112t100 -33q73 0 100 32.5t27 112.5v466h152v-481q0 -138 -63 -204.5t-218 -66.5z" />
    <glyph glyph-name="Udieresis" unicode="&#xdc;" horiz-adv-x="668" 
d="M364 779v134h133v-134h-133zM168 779v134h134v-134h-134zM334 -11q-153 0 -217 66.5t-64 204.5v481h157v-466q0 -79 26 -112t100 -33q73 0 100 32.5t27 112.5v466h152v-481q0 -138 -63 -204.5t-218 -66.5z" />
    <glyph glyph-name="Yacute" unicode="&#xdd;" horiz-adv-x="626" 
d="M224 779l106 183h167l-144 -183h-129zM390 0h-156v251l-236 490h167l150 -323l151 323h161l-237 -492v-249z" />
    <glyph glyph-name="Thorn" unicode="&#xde;" horiz-adv-x="608" 
d="M58 0v741h154v-109h131q139 0 191.5 -60t52.5 -183q0 -124 -53 -187.5t-194 -63.5h-128v-138h-154zM212 270h126q53 0 74.5 26t21.5 86q0 62 -21.5 88t-74.5 26h-126v-226z" />
    <glyph glyph-name="germandbls" unicode="&#xdf;" horiz-adv-x="577" 
d="M48 0v562q0 217 235 217q123 0 176 -46.5t53 -148.5q0 -81 -15 -121.5t-53 -56.5q61 -13 84 -56.5t23 -137.5q0 -121 -56.5 -166.5t-207.5 -45.5h-34v135h34q67 0 90.5 21.5t23.5 77.5q0 54 -23.5 73t-92.5 19h-20v119h20q44 0 63 22t19 74q0 51 -19.5 72t-64.5 21
t-65.5 -21t-20.5 -67v-546h-149z" />
    <glyph glyph-name="agrave" unicode="&#xe0;" horiz-adv-x="545" 
d="M232 620l-145 183h168l106 -183h-129zM237 117q48 0 72.5 22t24.5 77v52h-19q-86 0 -117 -16t-31 -64q0 -38 16 -54.5t54 -16.5zM358 45q-43 -52 -156 -52q-103 0 -141 46t-38 132q0 116 67 160t224 44h20q-2 37 -18 52t-57 15q-82 0 -144 -30l-61 122q87 45 222 45
q115 0 159.5 -43t44.5 -150v-211q0 -28 6.5 -36t32.5 -8v-131q-16 -2 -45 -2q-56 0 -80 9t-36 38z" />
    <glyph glyph-name="aacute" unicode="&#xe1;" horiz-adv-x="545" 
d="M184 620l106 183h167l-144 -183h-129zM237 117q48 0 72.5 22t24.5 77v52h-19q-86 0 -117 -16t-31 -64q0 -38 16 -54.5t54 -16.5zM358 45q-43 -52 -156 -52q-103 0 -141 46t-38 132q0 116 67 160t224 44h20q-2 37 -18 52t-57 15q-82 0 -144 -30l-61 122q87 45 222 45
q115 0 159.5 -43t44.5 -150v-211q0 -28 6.5 -36t32.5 -8v-131q-16 -2 -45 -2q-56 0 -80 9t-36 38z" />
    <glyph glyph-name="acircumflex" unicode="&#xe2;" horiz-adv-x="545" 
d="M94 620l109 183h139l110 -183h-120l-61 79l-60 -79h-117zM237 117q48 0 72.5 22t24.5 77v52h-19q-86 0 -117 -16t-31 -64q0 -38 16 -54.5t54 -16.5zM358 45q-43 -52 -156 -52q-103 0 -141 46t-38 132q0 116 67 160t224 44h20q-2 37 -18 52t-57 15q-82 0 -144 -30l-61 122
q87 45 222 45q115 0 159.5 -43t44.5 -150v-211q0 -28 6.5 -36t32.5 -8v-131q-16 -2 -45 -2q-56 0 -80 9t-36 38z" />
    <glyph glyph-name="atilde" unicode="&#xe3;" horiz-adv-x="545" 
d="M156 614l-97 56q56 110 146 110q29 0 68 -21.5t50 -21.5q28 0 63 48l96 -56q-30 -58 -64 -84.5t-81 -26.5q-30 0 -68.5 21t-49.5 21q-31 0 -63 -46zM237 117q48 0 72.5 22t24.5 77v52h-19q-86 0 -117 -16t-31 -64q0 -38 16 -54.5t54 -16.5zM358 45q-43 -52 -156 -52
q-103 0 -141 46t-38 132q0 116 67 160t224 44h20q-2 37 -18 52t-57 15q-82 0 -144 -30l-61 122q87 45 222 45q115 0 159.5 -43t44.5 -150v-211q0 -28 6.5 -36t32.5 -8v-131q-16 -2 -45 -2q-56 0 -80 9t-36 38z" />
    <glyph glyph-name="adieresis" unicode="&#xe4;" horiz-adv-x="545" 
d="M304 620v134h133v-134h-133zM108 620v134h134v-134h-134zM237 117q48 0 72.5 22t24.5 77v52h-19q-86 0 -117 -16t-31 -64q0 -38 16 -54.5t54 -16.5zM358 45q-43 -52 -156 -52q-103 0 -141 46t-38 132q0 116 67 160t224 44h20q-2 37 -18 52t-57 15q-82 0 -144 -30l-61 122
q87 45 222 45q115 0 159.5 -43t44.5 -150v-211q0 -28 6.5 -36t32.5 -8v-131q-16 -2 -45 -2q-56 0 -80 9t-36 38z" />
    <glyph glyph-name="aring" unicode="&#xe5;" horiz-adv-x="545" 
d="M272 611q-123 0 -123 134q0 136 123 136q63 0 93.5 -37t30.5 -99q0 -61 -30.5 -97.5t-93.5 -36.5zM272 683q49 0 49 62q0 63 -49 63t-49 -63q0 -62 49 -62zM237 117q48 0 72.5 22t24.5 77v52h-19q-86 0 -117 -16t-31 -64q0 -38 16 -54.5t54 -16.5zM358 45
q-43 -52 -156 -52q-103 0 -141 46t-38 132q0 116 67 160t224 44h20q-2 37 -18 52t-57 15q-82 0 -144 -30l-61 122q87 45 222 45q115 0 159.5 -43t44.5 -150v-211q0 -28 6.5 -36t32.5 -8v-131q-16 -2 -45 -2q-56 0 -80 9t-36 38z" />
    <glyph glyph-name="ae" unicode="&#xe6;" horiz-adv-x="821" 
d="M573 445q-53 0 -73 -26t-23 -86h180q-1 64 -15.5 88t-68.5 24zM237 117q48 0 72.5 22t24.5 77v52h-19q-86 0 -117 -16t-31 -64q0 -38 16 -54.5t54 -16.5zM787 40q-88 -47 -214 -47q-125 0 -180 69q-48 -69 -191 -69q-103 0 -141 46t-38 132q0 116 67 160t224 44h20
q-2 37 -18 52t-57 15q-82 0 -144 -30l-61 122q87 45 222 45q110 0 151 -44q57 42 149 42q66 0 109.5 -17.5t64.5 -49.5t31.5 -77t10 -99.5t-0.5 -117.5h-313q5 -52 26.5 -73t76.5 -21q77 0 149 33z" />
    <glyph glyph-name="ccedilla" unicode="&#xe7;" horiz-adv-x="448" 
d="M230 -243q-64 0 -118 26l32 70q40 -15 75 -15q29 0 39.5 8.5t10.5 29.5q0 24 -15 29.5t-57 3.5l-26 19l14 72q-90 19 -124.5 89t-34.5 196q0 73 10.5 123t37 90t76 59.5t123.5 19.5q94 0 157 -30l-66 -131q-38 20 -83 20q-57 0 -79 -35t-22 -121q0 -88 22 -122.5
t82 -34.5q41 0 95 23l57 -115q-81 -39 -170 -39l-6 -34q51 3 78.5 -17t27.5 -76q0 -58 -31 -83t-105 -25z" />
    <glyph glyph-name="egrave" unicode="&#xe8;" horiz-adv-x="515" 
d="M216 620l-145 183h168l106 -183h-129zM267 445q-53 0 -73 -26t-23 -86h181q-2 64 -16.5 88t-68.5 24zM481 40q-88 -47 -214 -47q-73 0 -121.5 19t-74 59t-35.5 90t-10 124q0 146 54 219t191 73q65 0 108.5 -17.5t64.5 -49t31.5 -76.5t10 -100t-0.5 -118h-313
q5 -52 26.5 -73t76.5 -21q79 0 149 33z" />
    <glyph glyph-name="eacute" unicode="&#xe9;" horiz-adv-x="515" 
d="M168 620l106 183h167l-144 -183h-129zM267 445q-53 0 -73 -26t-23 -86h181q-2 64 -16.5 88t-68.5 24zM481 40q-88 -47 -214 -47q-73 0 -121.5 19t-74 59t-35.5 90t-10 124q0 146 54 219t191 73q65 0 108.5 -17.5t64.5 -49t31.5 -76.5t10 -100t-0.5 -118h-313
q5 -52 26.5 -73t76.5 -21q79 0 149 33z" />
    <glyph glyph-name="ecircumflex" unicode="&#xea;" horiz-adv-x="515" 
d="M78 620l109 183h139l110 -183h-120l-61 79l-60 -79h-117zM267 445q-53 0 -73 -26t-23 -86h181q-2 64 -16.5 88t-68.5 24zM481 40q-88 -47 -214 -47q-73 0 -121.5 19t-74 59t-35.5 90t-10 124q0 146 54 219t191 73q65 0 108.5 -17.5t64.5 -49t31.5 -76.5t10 -100
t-0.5 -118h-313q5 -52 26.5 -73t76.5 -21q79 0 149 33z" />
    <glyph glyph-name="edieresis" unicode="&#xeb;" horiz-adv-x="515" 
d="M288 620v134h133v-134h-133zM92 620v134h134v-134h-134zM267 445q-53 0 -73 -26t-23 -86h181q-2 64 -16.5 88t-68.5 24zM481 40q-88 -47 -214 -47q-73 0 -121.5 19t-74 59t-35.5 90t-10 124q0 146 54 219t191 73q65 0 108.5 -17.5t64.5 -49t31.5 -76.5t10 -100t-0.5 -118
h-313q5 -52 26.5 -73t76.5 -21q79 0 149 33z" />
    <glyph glyph-name="igrave" unicode="&#xec;" horiz-adv-x="256" 
d="M74 620l-111 183h166l74 -183h-129zM52 0v567h151v-567h-151z" />
    <glyph glyph-name="iacute" unicode="&#xed;" horiz-adv-x="256" 
d="M53 620l72 183h167l-111 -183h-128zM52 0v567h151v-567h-151z" />
    <glyph glyph-name="icircumflex" unicode="&#xee;" horiz-adv-x="256" 
d="M-39 620l97 183h139l97 -183h-120l-48 79l-48 -79h-117zM52 0v567h151v-567h-151z" />
    <glyph glyph-name="idieresis" unicode="&#xef;" horiz-adv-x="256" 
d="M152 620v134h119v-134h-119zM-16 620v134h119v-134h-119zM52 0v567h151v-567h-151z" />
    <glyph glyph-name="eth" unicode="&#xf0;" horiz-adv-x="553" 
d="M276 -9q-133 0 -191.5 71t-58.5 207q0 260 210 260q88 0 127 -41q-13 47 -33 93l-95 -20v91l53 11q-26 39 -44 56l117 67q38 -29 75 -92l95 20v-91l-58 -12q53 -141 53 -299q0 -63 -5 -107.5t-20.5 -87.5t-42.5 -69t-72.5 -41.5t-109.5 -15.5zM276 123q60 0 78.5 36
t18.5 107t-18.5 106t-78.5 35t-78.5 -35t-18.5 -106t18.5 -107t78.5 -36z" />
    <glyph glyph-name="ntilde" unicode="&#xf1;" horiz-adv-x="562" 
d="M163 614l-97 56q56 110 146 110q29 0 67.5 -21.5t50.5 -21.5q28 0 63 48l96 -56q-30 -58 -64 -84.5t-81 -26.5q-30 0 -68.5 21t-49.5 21q-31 0 -63 -46zM48 0v558l121 10l11 -45q43 54 172 54q50 0 84 -15t51.5 -44.5t24 -64t6.5 -82.5v-371h-152v333q0 55 -13.5 77.5
t-59.5 22.5q-57 0 -75.5 -27.5t-18.5 -93.5v-312h-151z" />
    <glyph glyph-name="ograve" unicode="&#xf2;" horiz-adv-x="551" 
d="M234 620l-145 183h168l106 -183h-129zM276 -9q-141 0 -195.5 74t-54.5 220q0 145 54 218.5t196 73.5q74 0 124 -20.5t76.5 -61t37.5 -90.5t11 -120q0 -73 -11 -123.5t-37.5 -91t-76.5 -60t-124 -19.5zM276 123q60 0 78.5 37t18.5 120q0 84 -18 120t-79 36t-79 -36
t-18 -120q0 -83 18.5 -120t78.5 -37z" />
    <glyph glyph-name="oacute" unicode="&#xf3;" horiz-adv-x="551" 
d="M186 620l106 183h167l-144 -183h-129zM276 -9q-141 0 -195.5 74t-54.5 220q0 145 54 218.5t196 73.5q74 0 124 -20.5t76.5 -61t37.5 -90.5t11 -120q0 -73 -11 -123.5t-37.5 -91t-76.5 -60t-124 -19.5zM276 123q60 0 78.5 37t18.5 120q0 84 -18 120t-79 36t-79 -36
t-18 -120q0 -83 18.5 -120t78.5 -37z" />
    <glyph glyph-name="ocircumflex" unicode="&#xf4;" horiz-adv-x="551" 
d="M96 620l109 183h139l110 -183h-120l-61 79l-60 -79h-117zM276 -9q-141 0 -195.5 74t-54.5 220q0 145 54 218.5t196 73.5q74 0 124 -20.5t76.5 -61t37.5 -90.5t11 -120q0 -73 -11 -123.5t-37.5 -91t-76.5 -60t-124 -19.5zM276 123q60 0 78.5 37t18.5 120q0 84 -18 120
t-79 36t-79 -36t-18 -120q0 -83 18.5 -120t78.5 -37z" />
    <glyph glyph-name="otilde" unicode="&#xf5;" horiz-adv-x="551" 
d="M158 614l-97 56q56 110 146 110q29 0 68 -21.5t50 -21.5q28 0 63 48l96 -56q-30 -58 -64 -84.5t-81 -26.5q-30 0 -68.5 21t-49.5 21q-31 0 -63 -46zM276 -9q-141 0 -195.5 74t-54.5 220q0 145 54 218.5t196 73.5q74 0 124 -20.5t76.5 -61t37.5 -90.5t11 -120
q0 -73 -11 -123.5t-37.5 -91t-76.5 -60t-124 -19.5zM276 123q60 0 78.5 37t18.5 120q0 84 -18 120t-79 36t-79 -36t-18 -120q0 -83 18.5 -120t78.5 -37z" />
    <glyph glyph-name="odieresis" unicode="&#xf6;" horiz-adv-x="551" 
d="M306 620v134h133v-134h-133zM110 620v134h134v-134h-134zM276 -9q-141 0 -195.5 74t-54.5 220q0 145 54 218.5t196 73.5q74 0 124 -20.5t76.5 -61t37.5 -90.5t11 -120q0 -73 -11 -123.5t-37.5 -91t-76.5 -60t-124 -19.5zM276 123q60 0 78.5 37t18.5 120q0 84 -18 120
t-79 36t-79 -36t-18 -120q0 -83 18.5 -120t78.5 -37z" />
    <glyph glyph-name="divide" unicode="&#xf7;" horiz-adv-x="609" 
d="M229 480v130h150v-130h-150zM75 283v139h459v-139h-459zM229 94v130h150v-130h-150z" />
    <glyph glyph-name="oslash" unicode="&#xf8;" horiz-adv-x="551" 
d="M173 280q0 -53 7 -87l126 245q-14 3 -30 3q-62 0 -82.5 -38t-20.5 -123zM276 119q63 0 83 38t20 123q0 56 -6 84l-126 -242q13 -3 29 -3zM276 -9q-50 0 -87 9l-24 -44h-119l50 93q-70 67 -70 236q0 145 54 218.5t196 73.5q47 0 92 -10l23 43h121l-52 -94q65 -68 65 -231
q0 -73 -11 -123.5t-37.5 -91t-76.5 -60t-124 -19.5z" />
    <glyph glyph-name="ugrave" unicode="&#xf9;" horiz-adv-x="552" 
d="M235 620l-145 183h168l106 -183h-129zM276 -8q-134 0 -183 54t-49 186v335h152v-327q0 -67 13.5 -90.5t68.5 -23.5q53 0 67 24t14 91v326h149v-335q0 -133 -47.5 -186.5t-184.5 -53.5z" />
    <glyph glyph-name="uacute" unicode="&#xfa;" horiz-adv-x="552" 
d="M187 620l106 183h167l-144 -183h-129zM276 -8q-134 0 -183 54t-49 186v335h152v-327q0 -67 13.5 -90.5t68.5 -23.5q53 0 67 24t14 91v326h149v-335q0 -133 -47.5 -186.5t-184.5 -53.5z" />
    <glyph glyph-name="ucircumflex" unicode="&#xfb;" horiz-adv-x="552" 
d="M97 620l109 183h139l110 -183h-120l-61 79l-60 -79h-117zM276 -8q-134 0 -183 54t-49 186v335h152v-327q0 -67 13.5 -90.5t68.5 -23.5q53 0 67 24t14 91v326h149v-335q0 -133 -47.5 -186.5t-184.5 -53.5z" />
    <glyph glyph-name="udieresis" unicode="&#xfc;" horiz-adv-x="552" 
d="M307 620v134h133v-134h-133zM111 620v134h134v-134h-134zM276 -8q-134 0 -183 54t-49 186v335h152v-327q0 -67 13.5 -90.5t68.5 -23.5q53 0 67 24t14 91v326h149v-335q0 -133 -47.5 -186.5t-184.5 -53.5z" />
    <glyph glyph-name="yacute" unicode="&#xfd;" horiz-adv-x="498" 
d="M160 620l106 183h167l-144 -183h-129zM131 -158h-63v121h64q19 0 27 5.5t12 18.5l4 12l-174 568h155l97 -348l94 348h149l-187 -611q-21 -69 -60.5 -91.5t-117.5 -22.5z" />
    <glyph glyph-name="thorn" unicode="&#xfe;" horiz-adv-x="568" 
d="M300 124q53 0 71 35t18 119q0 86 -17 122t-72 36q-62 0 -81.5 -37t-19.5 -121t19 -119t82 -35zM48 -158v927h150v-246q35 54 154 54q49 0 84.5 -16t55.5 -41.5t31.5 -65.5t15 -78.5t3.5 -90.5q0 -66 -7.5 -113.5t-27 -90.5t-60 -65.5t-101.5 -22.5q-106 0 -147 44v-195
h-151z" />
    <glyph glyph-name="ydieresis" unicode="&#xff;" horiz-adv-x="498" 
d="M280 620v134h133v-134h-133zM84 620v134h134v-134h-134zM131 -158h-63v121h64q19 0 27 5.5t12 18.5l4 12l-174 568h155l97 -348l94 348h149l-187 -611q-21 -69 -60.5 -91.5t-117.5 -22.5z" />
    <glyph glyph-name="Amacron" unicode="&#x100;" horiz-adv-x="656" 
d="M147 779v125h360v-125h-360zM240 253h170l-84 281zM13 0l231 746h168l231 -746h-161l-34 115h-245l-33 -115h-157z" />
    <glyph glyph-name="amacron" unicode="&#x101;" horiz-adv-x="545" 
d="M92 620v125h360v-125h-360zM237 117q48 0 72.5 22t24.5 77v52h-19q-86 0 -117 -16t-31 -64q0 -38 16 -54.5t54 -16.5zM358 45q-43 -52 -156 -52q-103 0 -141 46t-38 132q0 116 67 160t224 44h20q-2 37 -18 52t-57 15q-82 0 -144 -30l-61 122q87 45 222 45
q115 0 159.5 -43t44.5 -150v-211q0 -28 6.5 -36t32.5 -8v-131q-16 -2 -45 -2q-56 0 -80 9t-36 38z" />
    <glyph glyph-name="Abreve" unicode="&#x102;" horiz-adv-x="656" 
d="M327 773q-96 0 -133.5 41t-50.5 136l108 16q8 -46 23 -62.5t53 -16.5t53.5 16.5t22.5 62.5l109 -15q-14 -97 -51.5 -137.5t-133.5 -40.5zM240 253h170l-84 281zM13 0l231 746h168l231 -746h-161l-34 115h-245l-33 -115h-157z" />
    <glyph glyph-name="abreve" unicode="&#x103;" horiz-adv-x="545" 
d="M272 614q-96 0 -133.5 41t-50.5 136l108 16q8 -46 23 -62.5t53 -16.5t53.5 16.5t22.5 62.5l109 -15q-14 -97 -51.5 -137.5t-133.5 -40.5zM237 117q48 0 72.5 22t24.5 77v52h-19q-86 0 -117 -16t-31 -64q0 -38 16 -54.5t54 -16.5zM358 45q-43 -52 -156 -52q-103 0 -141 46
t-38 132q0 116 67 160t224 44h20q-2 37 -18 52t-57 15q-82 0 -144 -30l-61 122q87 45 222 45q115 0 159.5 -43t44.5 -150v-211q0 -28 6.5 -36t32.5 -8v-131q-16 -2 -45 -2q-56 0 -80 9t-36 38z" />
    <glyph glyph-name="Aogonek" unicode="&#x104;" horiz-adv-x="656" 
d="M13 0l231 746h168l231 -746h-68q-66 -62 -66 -107q0 -42 49 -42h30v-85h-43q-74 0 -105.5 21.5t-31.5 81.5q0 73 73 133l-33 113h-245l-33 -115h-157zM240 253h170l-84 281z" />
    <glyph glyph-name="aogonek" unicode="&#x105;" horiz-adv-x="545" 
d="M202 -7q-103 0 -141 46t-38 132q0 116 67 160t224 44h20q-2 37 -18 52t-57 15q-82 0 -144 -30l-61 122q87 45 222 45q115 0 159.5 -43t44.5 -150v-211q0 -28 6.5 -36t32.5 -8v-131q-47 -35 -68.5 -58t-21.5 -49q0 -42 50 -42h29v-85h-43q-74 0 -105.5 21.5t-31.5 81.5
q0 45 27 79t61 53q-43 7 -58 44q-43 -52 -156 -52zM237 117q48 0 72.5 22t24.5 77v52h-19q-86 0 -117 -16t-31 -64q0 -38 16 -54.5t54 -16.5z" />
    <glyph glyph-name="Cacute" unicode="&#x106;" horiz-adv-x="564" 
d="M193 779l106 183h167l-144 -183h-129zM324 -9q-164 0 -230.5 96t-66.5 283q0 90 13.5 155t46.5 118.5t95 80t154 26.5q119 0 201 -54l-84 -130q-49 31 -122 31q-80 0 -112.5 -49t-32.5 -182q0 -132 32.5 -183t113.5 -51q72 0 131 38l77 -121q-92 -58 -216 -58z" />
    <glyph glyph-name="cacute" unicode="&#x107;" horiz-adv-x="448" 
d="M135 620l106 183h167l-144 -183h-129zM264 -8q-136 0 -187 72t-51 221q0 73 10.5 123t37 90t76 59.5t123.5 19.5q94 0 157 -30l-66 -131q-38 20 -83 20q-57 0 -79 -35t-22 -121q0 -88 22 -122.5t82 -34.5q41 0 95 23l57 -115q-81 -39 -172 -39z" />
    <glyph glyph-name="Ccaron" unicode="&#x10c;" horiz-adv-x="564" 
d="M212 779l-109 183h120l60 -79l60 79h118l-110 -183h-139zM324 -9q-164 0 -230.5 96t-66.5 283q0 90 13.5 155t46.5 118.5t95 80t154 26.5q119 0 201 -54l-84 -130q-49 31 -122 31q-80 0 -112.5 -49t-32.5 -182q0 -132 32.5 -183t113.5 -51q72 0 131 38l77 -121
q-92 -58 -216 -58z" />
    <glyph glyph-name="ccaron" unicode="&#x10d;" horiz-adv-x="448" 
d="M154 620l-109 183h120l60 -79l60 79h118l-110 -183h-139zM264 -8q-136 0 -187 72t-51 221q0 73 10.5 123t37 90t76 59.5t123.5 19.5q94 0 157 -30l-66 -131q-38 20 -83 20q-57 0 -79 -35t-22 -121q0 -88 22 -122.5t82 -34.5q41 0 95 23l57 -115q-81 -39 -172 -39z" />
    <glyph glyph-name="Dcaron" unicode="&#x10e;" horiz-adv-x="642" 
d="M251 779l-109 183h120l60 -79l60 79h118l-110 -183h-139zM58 0v741h231q179 0 252.5 -80.5t73.5 -289.5q0 -145 -33 -225.5t-102 -113t-191 -32.5h-231zM215 136h88q85 0 119 48t34 186q0 94 -16.5 143.5t-48.5 67t-92 17.5h-84v-462z" />
    <glyph glyph-name="dcaron" unicode="&#x10f;" horiz-adv-x="693" 
d="M599 518l-31 56q39 23 48.5 33t9.5 32h-58v130h133v-118q0 -50 -18.5 -76.5t-83.5 -56.5zM268 124q62 0 81.5 37t19.5 122q0 83 -19 118.5t-82 35.5q-54 0 -71.5 -35.5t-17.5 -118.5q0 -86 17 -122.5t72 -36.5zM216 -7q-60 0 -99.5 22.5t-58 67t-25 90.5t-6.5 113
q0 43 3 76.5t10 68.5t21 60t35.5 45.5t53.5 30.5t73 10q107 0 146 -43v235h152v-764l-121 -10l-12 52q-46 -54 -172 -54z" />
    <glyph glyph-name="Dcroat" unicode="&#x110;" horiz-adv-x="642" 
d="M289 0h-231v310h-58v127h58v304h231q179 0 252.5 -80.5t73.5 -289.5q0 -145 -33 -225.5t-102 -113t-191 -32.5zM215 136h88q85 0 119 48t34 186q0 94 -16.5 143.5t-48.5 67t-92 17.5h-84v-161h105v-127h-105v-174z" />
    <glyph glyph-name="dcroat" unicode="&#x111;" horiz-adv-x="568" 
d="M268 124q62 0 81.5 37t19.5 122q0 83 -19 118.5t-82 35.5q-54 0 -71.5 -35.5t-17.5 -118.5q0 -86 17 -122.5t72 -36.5zM388 47q-46 -54 -172 -54q-60 0 -99.5 22.5t-58 67t-25 90.5t-6.5 113q0 43 3 76.5t10 68.5t21 60t35.5 45.5t53.5 30.5t73 10q107 0 146 -43v69h-100
v116h100v50h152v-50h47v-116h-47v-598l-121 -10z" />
    <glyph glyph-name="Emacron" unicode="&#x112;" horiz-adv-x="557" 
d="M98 779v125h360v-125h-360zM58 0v741h457v-143h-304v-148h291v-142h-291v-168h305v-140h-458z" />
    <glyph glyph-name="emacron" unicode="&#x113;" horiz-adv-x="515" 
d="M76 620v125h360v-125h-360zM267 445q-53 0 -73 -26t-23 -86h181q-2 64 -16.5 88t-68.5 24zM481 40q-88 -47 -214 -47q-73 0 -121.5 19t-74 59t-35.5 90t-10 124q0 146 54 219t191 73q65 0 108.5 -17.5t64.5 -49t31.5 -76.5t10 -100t-0.5 -118h-313q5 -52 26.5 -73
t76.5 -21q79 0 149 33z" />
    <glyph glyph-name="Edotaccent" unicode="&#x116;" horiz-adv-x="557" 
d="M203 779v137h152v-137h-152zM58 0v741h457v-143h-304v-148h291v-142h-291v-168h305v-140h-458z" />
    <glyph glyph-name="edotaccent" unicode="&#x117;" horiz-adv-x="515" 
d="M181 620v137h152v-137h-152zM267 445q-53 0 -73 -26t-23 -86h181q-2 64 -16.5 88t-68.5 24zM481 40q-88 -47 -214 -47q-73 0 -121.5 19t-74 59t-35.5 90t-10 124q0 146 54 219t191 73q65 0 108.5 -17.5t64.5 -49t31.5 -76.5t10 -100t-0.5 -118h-313q5 -52 26.5 -73
t76.5 -21q79 0 149 33z" />
    <glyph glyph-name="Eogonek" unicode="&#x118;" horiz-adv-x="557" 
d="M58 0v741h457v-143h-304v-148h291v-142h-291v-168h305v-140h-29q-66 -63 -66 -107q0 -42 50 -42h29v-85h-43q-74 0 -105.5 21.5t-31.5 81.5q0 75 71 131h-333z" />
    <glyph glyph-name="eogonek" unicode="&#x119;" horiz-adv-x="515" 
d="M267 -7q-73 0 -121.5 19t-74 59t-35.5 90t-10 124q0 146 54 219t191 73q65 0 108.5 -17.5t64.5 -49t31.5 -76.5t10 -100t-0.5 -118h-313q5 -52 26.5 -73t76.5 -21q79 0 149 33l57 -115q-23 -13 -64 -27q-81 -68 -81 -120q0 -42 50 -42h29v-85h-43q-74 0 -105.5 21.5
t-31.5 81.5q0 69 64 125q-11 -1 -32 -1zM267 445q-53 0 -73 -26t-23 -86h181q-2 64 -16.5 88t-68.5 24z" />
    <glyph glyph-name="Ecaron" unicode="&#x11a;" horiz-adv-x="557" 
d="M209 779l-109 183h120l60 -79l60 79h118l-110 -183h-139zM58 0v741h457v-143h-304v-148h291v-142h-291v-168h305v-140h-458z" />
    <glyph glyph-name="ecaron" unicode="&#x11b;" horiz-adv-x="515" 
d="M187 620l-109 183h120l60 -79l60 79h118l-110 -183h-139zM267 445q-53 0 -73 -26t-23 -86h181q-2 64 -16.5 88t-68.5 24zM481 40q-88 -47 -214 -47q-73 0 -121.5 19t-74 59t-35.5 90t-10 124q0 146 54 219t191 73q65 0 108.5 -17.5t64.5 -49t31.5 -76.5t10 -100
t-0.5 -118h-313q5 -52 26.5 -73t76.5 -21q79 0 149 33z" />
    <glyph glyph-name="Gbreve" unicode="&#x11e;" horiz-adv-x="616" 
d="M307 773q-96 0 -133.5 41t-50.5 136l108 16q8 -46 23 -62.5t53 -16.5t53.5 16.5t22.5 62.5l109 -15q-14 -97 -51.5 -137.5t-133.5 -40.5zM315 -9q-84 0 -141.5 25.5t-89 77t-44.5 117.5t-13 159q0 202 70.5 291t244.5 89q125 0 215 -57l-83 -130q-64 36 -139 36
q-39 0 -65 -9t-46.5 -33.5t-30 -71.5t-9.5 -119q0 -140 31.5 -191t113.5 -51q68 0 90 36t22 127v18h-144v135h293v-125q0 -184 -56 -254t-219 -70z" />
    <glyph glyph-name="gbreve" unicode="&#x11f;" horiz-adv-x="547" 
d="M272 614q-96 0 -133.5 41t-50.5 136l108 16q8 -46 23 -62.5t53 -16.5t53.5 16.5t22.5 62.5l109 -15q-14 -97 -51.5 -137.5t-133.5 -40.5zM264 308q43 0 61.5 18t18.5 55q0 36 -18.5 54t-61.5 18q-79 0 -79 -72q0 -73 79 -73zM521 10q0 -97 -61.5 -137.5t-194.5 -40.5
q-138 0 -196.5 28t-58.5 107q0 106 96 129q-30 26 -30 78q0 38 20 67q-59 45 -59 143q0 101 57 147.5t170 46.5q18 0 28 -1l224 46v-117h-77q53 -35 53 -122q0 -99 -59 -141.5t-169 -42.5q-33 0 -60 3q-2 -5 -2 -15q0 -18 14 -24t59 -6q146 0 196 -31.5t50 -116.5zM263 -63
q64 0 84.5 14.5t20.5 48.5q0 29 -19.5 39.5t-84.5 10.5q-59 0 -81.5 -13t-22.5 -43t22.5 -43.5t80.5 -13.5z" />
    <glyph glyph-name="Gcommaaccent" unicode="&#x122;" horiz-adv-x="616" 
d="M315 -9q-84 0 -141.5 25.5t-89 77t-44.5 117.5t-13 159q0 202 70.5 291t244.5 89q125 0 215 -57l-83 -130q-64 36 -139 36q-39 0 -65 -9t-46.5 -33.5t-30 -71.5t-9.5 -119q0 -140 31.5 -191t113.5 -51q68 0 90 36t22 127v18h-144v135h293v-125q0 -184 -56 -254t-219 -70z
M272 -287l-32 57q39 22 49 32t10 33h-58v130h132v-118q0 -51 -18 -77t-83 -57z" />
    <glyph glyph-name="gcommaaccent" unicode="&#x123;" horiz-adv-x="547" 
d="M207 620v117q0 51 18.5 77t83.5 57l31 -56q-39 -23 -48.5 -33t-9.5 -32h57v-130h-132zM264 308q43 0 61.5 18t18.5 55q0 36 -18.5 54t-61.5 18q-79 0 -79 -72q0 -73 79 -73zM521 10q0 -97 -61.5 -137.5t-194.5 -40.5q-138 0 -196.5 28t-58.5 107q0 106 96 129
q-30 26 -30 78q0 38 20 67q-59 45 -59 143q0 101 57 147.5t170 46.5q18 0 28 -1l224 46v-117h-77q53 -35 53 -122q0 -99 -59 -141.5t-169 -42.5q-33 0 -60 3q-2 -5 -2 -15q0 -18 14 -24t59 -6q146 0 196 -31.5t50 -116.5zM263 -63q64 0 84.5 14.5t20.5 48.5q0 29 -19.5 39.5
t-84.5 10.5q-59 0 -81.5 -13t-22.5 -43t22.5 -43.5t80.5 -13.5z" />
    <glyph glyph-name="Imacron" unicode="&#x12a;" horiz-adv-x="290" 
d="M-35 779v125h360v-125h-360zM67 0v741h156v-741h-156z" />
    <glyph glyph-name="imacron" unicode="&#x12b;" horiz-adv-x="256" 
d="M-53 620v125h360v-125h-360zM52 0v567h151v-567h-151z" />
    <glyph glyph-name="Iogonek" unicode="&#x12e;" horiz-adv-x="290" 
d="M67 0v741h156v-741q-46 -34 -67.5 -57.5t-21.5 -49.5q0 -42 50 -42h29v-85h-43q-74 0 -105.5 21.5t-31.5 81.5q0 47 27.5 80t61.5 51h-55z" />
    <glyph glyph-name="iogonek" unicode="&#x12f;" horiz-adv-x="256" 
d="M52 618v137h152v-137h-152zM52 0v567h151v-567q-46 -34 -67 -57.5t-21 -49.5q0 -42 49 -42h30v-85h-43q-74 0 -105.5 21.5t-31.5 81.5q0 47 27 80t61 51h-50z" />
    <glyph glyph-name="Idotaccent" unicode="&#x130;" horiz-adv-x="290" 
d="M70 779v137h152v-137h-152zM67 0v741h156v-741h-156z" />
    <glyph glyph-name="dotlessi" unicode="&#x131;" horiz-adv-x="256" 
d="M52 0v567h151v-567h-151z" />
    <glyph glyph-name="Kcommaaccent" unicode="&#x136;" horiz-adv-x="639" 
d="M450 0l-159 322l-78 -108v-214h-155v741h155v-305l226 305h180l-222 -287l226 -454h-173zM284 -287l-32 57q39 22 49 32t10 33h-58v130h132v-118q0 -51 -18 -77t-83 -57z" />
    <glyph glyph-name="kcommaaccent" unicode="&#x137;" horiz-adv-x="523" 
d="M358 0l-115 207l-47 -70v-137h-148v769h148v-430l154 228h159l-167 -237l177 -330h-161zM226 -287l-32 57q39 22 49 32t10 33h-58v130h132v-118q0 -51 -18 -77t-83 -57z" />
    <glyph glyph-name="Lacute" unicode="&#x139;" horiz-adv-x="513" 
d="M75 779l106 183h167l-144 -183h-129zM58 0v741h157v-601h288v-140h-445z" />
    <glyph glyph-name="lacute" unicode="&#x13a;" horiz-adv-x="293" 
d="M59 815l106 183h167l-144 -183h-129zM262 0q-12 -2 -55 -2q-82 0 -118.5 34.5t-36.5 128.5v608h151v-587q0 -33 9.5 -42t49.5 -9v-131z" />
    <glyph glyph-name="Lcommaaccent" unicode="&#x13b;" horiz-adv-x="513" 
d="M58 0v741h157v-601h288v-140h-445zM221 -287l-32 57q39 22 49 32t10 33h-58v130h132v-118q0 -51 -18 -77t-83 -57z" />
    <glyph glyph-name="lcommaaccent" unicode="&#x13c;" horiz-adv-x="293" 
d="M262 0q-12 -2 -55 -2q-82 0 -118.5 34.5t-36.5 128.5v608h151v-587q0 -33 9.5 -42t49.5 -9v-131zM111 -287l-32 57q39 22 49 32t10 33h-58v130h132v-118q0 -51 -18 -77t-83 -57z" />
    <glyph glyph-name="Lcaron" unicode="&#x13d;" horiz-adv-x="513" 
d="M301 518l-31 56q39 23 48.5 33t9.5 32h-58v130h133v-118q0 -50 -18.5 -76.5t-83.5 -56.5zM58 0v741h157v-601h288v-140h-445z" />
    <glyph glyph-name="lcaron" unicode="&#x13e;" horiz-adv-x="377" 
d="M262 0q-12 -2 -55 -2q-82 0 -118.5 34.5t-36.5 128.5v608h151v-587q0 -33 9.5 -42t49.5 -9v-131zM282 518l-31 56q39 23 48.5 33t9.5 32h-58v130h133v-118q0 -50 -18.5 -76.5t-83.5 -56.5z" />
    <glyph glyph-name="Lslash" unicode="&#x141;" horiz-adv-x="513" 
d="M503 0h-445v304l-58 -33v127l58 33v310h157v-220l104 59v-126l-104 -60v-254h288v-140z" />
    <glyph glyph-name="lslash" unicode="&#x142;" horiz-adv-x="353" 
d="M247 -2q-82 0 -118.5 34.5t-36.5 128.5v221l-72 -42v132l72 42v255h151v-168l79 46v-132l-79 -46v-287q0 -33 9.5 -42t49.5 -9v-131q-12 -2 -55 -2z" />
    <glyph glyph-name="Nacute" unicode="&#x143;" horiz-adv-x="673" 
d="M247 779l106 183h167l-144 -183h-129zM58 0v741h166l243 -427v427h149v-741h-144l-265 462v-462h-149z" />
    <glyph glyph-name="nacute" unicode="&#x144;" horiz-adv-x="562" 
d="M191 620l106 183h167l-144 -183h-129zM48 0v558l121 10l11 -45q43 54 172 54q50 0 84 -15t51.5 -44.5t24 -64t6.5 -82.5v-371h-152v333q0 55 -13.5 77.5t-59.5 22.5q-57 0 -75.5 -27.5t-18.5 -93.5v-312h-151z" />
    <glyph glyph-name="Ncommaaccent" unicode="&#x145;" horiz-adv-x="673" 
d="M58 0v741h166l243 -427v427h149v-741h-144l-265 462v-462h-149zM301 -287l-32 57q39 22 49 32t10 33h-58v130h132v-118q0 -51 -18 -77t-83 -57z" />
    <glyph glyph-name="ncommaaccent" unicode="&#x146;" horiz-adv-x="562" 
d="M48 0v558l121 10l11 -45q43 54 172 54q50 0 84 -15t51.5 -44.5t24 -64t6.5 -82.5v-371h-152v333q0 55 -13.5 77.5t-59.5 22.5q-57 0 -75.5 -27.5t-18.5 -93.5v-312h-151zM245 -287l-32 57q39 22 49 32t10 33h-58v130h132v-118q0 -51 -18 -77t-83 -57z" />
    <glyph glyph-name="Ncaron" unicode="&#x147;" horiz-adv-x="673" 
d="M266 779l-109 183h120l60 -79l60 79h118l-110 -183h-139zM58 0v741h166l243 -427v427h149v-741h-144l-265 462v-462h-149z" />
    <glyph glyph-name="ncaron" unicode="&#x148;" horiz-adv-x="562" 
d="M210 620l-109 183h120l60 -79l60 79h118l-110 -183h-139zM48 0v558l121 10l11 -45q43 54 172 54q50 0 84 -15t51.5 -44.5t24 -64t6.5 -82.5v-371h-152v333q0 55 -13.5 77.5t-59.5 22.5q-57 0 -75.5 -27.5t-18.5 -93.5v-312h-151z" />
    <glyph glyph-name="Omacron" unicode="&#x14c;" horiz-adv-x="668" 
d="M153 779v125h360v-125h-360zM334 -9q-77 0 -133.5 21t-89.5 54t-52 84.5t-25.5 102t-6.5 117.5t6.5 118t25.5 102.5t52 84.5t89.5 54t133.5 21t133.5 -21t89.5 -54t52 -84.5t25.5 -102.5t6.5 -118t-6.5 -117.5t-25.5 -102t-52 -84.5t-89.5 -54t-133.5 -21zM334 130
q39 0 66 11.5t43 30t25 50.5t11.5 64t2.5 79q0 46 -2.5 78t-11.5 64t-25 50.5t-43 30t-66 11.5t-66 -11.5t-43 -30t-25 -50.5t-11.5 -64t-2.5 -78q0 -47 2.5 -79t11.5 -64t25 -50.5t43 -30t66 -11.5z" />
    <glyph glyph-name="omacron" unicode="&#x14d;" horiz-adv-x="551" 
d="M94 620v125h360v-125h-360zM276 -9q-141 0 -195.5 74t-54.5 220q0 145 54 218.5t196 73.5q74 0 124 -20.5t76.5 -61t37.5 -90.5t11 -120q0 -73 -11 -123.5t-37.5 -91t-76.5 -60t-124 -19.5zM276 123q60 0 78.5 37t18.5 120q0 84 -18 120t-79 36t-79 -36t-18 -120
q0 -83 18.5 -120t78.5 -37z" />
    <glyph glyph-name="Ohungarumlaut" unicode="&#x150;" horiz-adv-x="668" 
d="M366 779l101 183h154l-140 -183h-115zM159 779l101 183h155l-140 -183h-116zM334 -9q-77 0 -133.5 21t-89.5 54t-52 84.5t-25.5 102t-6.5 117.5t6.5 118t25.5 102.5t52 84.5t89.5 54t133.5 21t133.5 -21t89.5 -54t52 -84.5t25.5 -102.5t6.5 -118t-6.5 -117.5t-25.5 -102
t-52 -84.5t-89.5 -54t-133.5 -21zM334 130q39 0 66 11.5t43 30t25 50.5t11.5 64t2.5 79q0 46 -2.5 78t-11.5 64t-25 50.5t-43 30t-66 11.5t-66 -11.5t-43 -30t-25 -50.5t-11.5 -64t-2.5 -78q0 -47 2.5 -79t11.5 -64t25 -50.5t43 -30t66 -11.5z" />
    <glyph glyph-name="ohungarumlaut" unicode="&#x151;" horiz-adv-x="551" 
d="M307 620l101 183h154l-140 -183h-115zM100 620l101 183h155l-140 -183h-116zM276 -9q-141 0 -195.5 74t-54.5 220q0 145 54 218.5t196 73.5q74 0 124 -20.5t76.5 -61t37.5 -90.5t11 -120q0 -73 -11 -123.5t-37.5 -91t-76.5 -60t-124 -19.5zM276 123q60 0 78.5 37
t18.5 120q0 84 -18 120t-79 36t-79 -36t-18 -120q0 -83 18.5 -120t78.5 -37z" />
    <glyph glyph-name="OE" unicode="&#x152;" horiz-adv-x="983" 
d="M334 130q39 0 66 11.5t43 30t25 50.5t11.5 64t2.5 79q0 46 -2.5 78t-11.5 64t-25 50.5t-43 30t-66 11.5t-66 -11.5t-43 -30t-25 -50.5t-11.5 -64t-2.5 -78q0 -47 2.5 -79t11.5 -64t25 -50.5t43 -30t66 -11.5zM499 0v31q-64 -40 -165 -40q-77 0 -133.5 21t-89.5 54
t-52 84.5t-25.5 102t-6.5 117.5t6.5 118t25.5 102.5t52 84.5t89.5 54t133.5 21q101 0 165 -40v31h442v-143h-304v-150h290v-140h-290v-168h304v-140h-442z" />
    <glyph glyph-name="oe" unicode="&#x153;" horiz-adv-x="867" 
d="M620 445q-53 0 -73 -26t-23 -86h180q-1 33 -3.5 50t-10.5 33.5t-25 22.5t-45 6zM276 123q60 0 78.5 37t18.5 120q0 84 -18 120t-79 36t-79 -36t-18 -120q0 -83 18.5 -120t78.5 -37zM619 -7q-114 0 -169 55q-59 -57 -174 -57q-141 0 -195.5 74t-54.5 220q0 145 54 218.5
t196 73.5q118 0 176 -60q57 60 171 60q65 0 108.5 -18t64.5 -50.5t31.5 -77.5t10 -99.5t-0.5 -115.5h-312q5 -52 26 -73t76 -21q79 0 149 33l57 -115q-86 -47 -214 -47z" />
    <glyph glyph-name="Racute" unicode="&#x154;" horiz-adv-x="624" 
d="M223 779l106 183h167l-144 -183h-129zM212 385h125q51 0 73 25t22 84q0 60 -22 84.5t-73 24.5h-125v-218zM212 0h-154v741h283q129 0 186.5 -59.5t57.5 -176.5q0 -180 -123 -234l118 -271h-164l-106 248h-98v-248z" />
    <glyph glyph-name="racute" unicode="&#x155;" horiz-adv-x="345" 
d="M84 620l106 183h167l-144 -183h-129zM48 0v558l120 10l13 -53q43 57 158 57v-143q-38 0 -64.5 -8t-41 -19.5t-22 -32t-9.5 -39t-2 -46.5v-284h-152z" />
    <glyph glyph-name="Rcommaaccent" unicode="&#x156;" horiz-adv-x="624" 
d="M212 385h125q51 0 73 25t22 84q0 60 -22 84.5t-73 24.5h-125v-218zM212 0h-154v741h283q129 0 186.5 -59.5t57.5 -176.5q0 -180 -123 -234l118 -271h-164l-106 248h-98v-248zM277 -287l-32 57q39 22 49 32t10 33h-58v130h132v-118q0 -51 -18 -77t-83 -57z" />
    <glyph glyph-name="rcommaaccent" unicode="&#x157;" horiz-adv-x="345" 
d="M48 0v558l120 10l13 -53q43 57 158 57v-143q-38 0 -64.5 -8t-41 -19.5t-22 -32t-9.5 -39t-2 -46.5v-284h-152zM89 -287l-32 57q39 22 49 32t10 33h-58v130h132v-118q0 -51 -18 -77t-83 -57z" />
    <glyph glyph-name="Rcaron" unicode="&#x158;" horiz-adv-x="624" 
d="M242 779l-109 183h120l60 -79l60 79h118l-110 -183h-139zM212 385h125q51 0 73 25t22 84q0 60 -22 84.5t-73 24.5h-125v-218zM212 0h-154v741h283q129 0 186.5 -59.5t57.5 -176.5q0 -180 -123 -234l118 -271h-164l-106 248h-98v-248z" />
    <glyph glyph-name="rcaron" unicode="&#x159;" horiz-adv-x="345" 
d="M103 620l-109 183h120l60 -79l60 79h118l-110 -183h-139zM48 0v558l120 10l13 -53q43 57 158 57v-143q-38 0 -64.5 -8t-41 -19.5t-22 -32t-9.5 -39t-2 -46.5v-284h-152z" />
    <glyph glyph-name="Sacute" unicode="&#x15a;" horiz-adv-x="583" 
d="M202 779l106 183h167l-144 -183h-129zM293 -9q-178 0 -280 67l79 120q84 -53 197 -53q62 0 87.5 19t25.5 57q0 46 -27.5 64t-127.5 49q-106 33 -153.5 81.5t-47.5 136.5q0 108 66 163t190 55q130 0 227 -46l-68 -134q-68 33 -155 33q-56 0 -81.5 -15.5t-25.5 -50.5
q0 -36 23 -52t95 -40q72 -23 112.5 -41.5t71.5 -46t42 -63t11 -90.5q0 -101 -64.5 -157t-196.5 -56z" />
    <glyph glyph-name="sacute" unicode="&#x15b;" horiz-adv-x="454" 
d="M139 620l106 183h167l-144 -183h-129zM231 -7q-143 0 -223 42l58 117q76 -37 165 -37q63 0 63 44q0 24 -19.5 36.5t-90.5 35.5q-57 19 -87.5 37.5t-49 51t-18.5 83.5q0 174 212 174q103 0 176 -30l-58 -125q-58 24 -124 24q-35 0 -48.5 -9.5t-13.5 -30.5q0 -20 19 -32
t79 -32q92 -30 128 -66t36 -115q0 -168 -204 -168z" />
    <glyph glyph-name="Scedilla" unicode="&#x15e;" horiz-adv-x="583" 
d="M297 -243q-64 0 -118 26l32 70q40 -15 75 -15q29 0 39.5 8.5t10.5 29.5q0 24 -15 29.5t-57 3.5l-26 19l13 64q-149 7 -238 66l79 120q84 -53 197 -53q62 0 87.5 19t25.5 57q0 46 -27.5 64t-127.5 49q-106 33 -153.5 81.5t-47.5 136.5q0 108 66 163t190 55q130 0 227 -46
l-68 -134q-68 33 -155 33q-56 0 -81.5 -15.5t-25.5 -50.5q0 -36 23 -52t95 -40q72 -23 112.5 -41.5t71.5 -46t42 -63t11 -90.5q0 -93 -54.5 -148t-166.5 -64l-6 -34q51 3 78.5 -17t27.5 -76q0 -58 -31 -83t-105 -25z" />
    <glyph glyph-name="scedilla" unicode="&#x15f;" horiz-adv-x="454" 
d="M234 -243q-64 0 -118 26l32 70q40 -15 75 -15q29 0 39.5 8.5t10.5 29.5q0 24 -15 29.5t-57 3.5l-26 19l13 66q-112 5 -180 41l58 117q76 -37 165 -37q63 0 63 44q0 24 -19.5 36.5t-90.5 35.5q-57 19 -87.5 37.5t-49 51t-18.5 83.5q0 174 212 174q103 0 176 -30l-58 -125
q-58 24 -124 24q-35 0 -48.5 -9.5t-13.5 -30.5q0 -20 19 -32t79 -32q92 -30 128 -66t36 -115q0 -151 -164 -166l-7 -37q51 3 78.5 -17t27.5 -76q0 -58 -31 -83t-105 -25z" />
    <glyph glyph-name="Scaron" unicode="&#x160;" horiz-adv-x="583" 
d="M221 779l-109 183h120l60 -79l60 79h118l-110 -183h-139zM293 -9q-178 0 -280 67l79 120q84 -53 197 -53q62 0 87.5 19t25.5 57q0 46 -27.5 64t-127.5 49q-106 33 -153.5 81.5t-47.5 136.5q0 108 66 163t190 55q130 0 227 -46l-68 -134q-68 33 -155 33q-56 0 -81.5 -15.5
t-25.5 -50.5q0 -36 23 -52t95 -40q72 -23 112.5 -41.5t71.5 -46t42 -63t11 -90.5q0 -101 -64.5 -157t-196.5 -56z" />
    <glyph glyph-name="scaron" unicode="&#x161;" horiz-adv-x="454" 
d="M158 620l-109 183h120l60 -79l60 79h118l-110 -183h-139zM231 -7q-143 0 -223 42l58 117q76 -37 165 -37q63 0 63 44q0 24 -19.5 36.5t-90.5 35.5q-57 19 -87.5 37.5t-49 51t-18.5 83.5q0 174 212 174q103 0 176 -30l-58 -125q-58 24 -124 24q-35 0 -48.5 -9.5
t-13.5 -30.5q0 -20 19 -32t79 -32q92 -30 128 -66t36 -115q0 -168 -204 -168z" />
    <glyph glyph-name="Tcaron" unicode="&#x164;" horiz-adv-x="579" 
d="M219 779l-109 183h120l60 -79l60 79h118l-110 -183h-139zM210 0v598h-199v143h557v-143h-200v-598h-158z" />
    <glyph glyph-name="tcaron" unicode="&#x165;" horiz-adv-x="415" 
d="M327 621l-31 56q39 23 48.5 33t9.5 32h-58v130h133v-117q0 -51 -18.5 -77t-83.5 -57zM380 0q-65 -5 -84 -5q-112 0 -153.5 40t-41.5 138v262h-89v132h96l23 127l120 27v-154h129v-132h-129v-244q0 -33 11.5 -46.5t52.5 -13.5h65v-131z" />
    <glyph glyph-name="Umacron" unicode="&#x16a;" horiz-adv-x="668" 
d="M152 779v125h360v-125h-360zM334 -11q-153 0 -217 66.5t-64 204.5v481h157v-466q0 -79 26 -112t100 -33q73 0 100 32.5t27 112.5v466h152v-481q0 -138 -63 -204.5t-218 -66.5z" />
    <glyph glyph-name="umacron" unicode="&#x16b;" horiz-adv-x="552" 
d="M95 620v125h360v-125h-360zM276 -8q-134 0 -183 54t-49 186v335h152v-327q0 -67 13.5 -90.5t68.5 -23.5q53 0 67 24t14 91v326h149v-335q0 -133 -47.5 -186.5t-184.5 -53.5z" />
    <glyph glyph-name="Uring" unicode="&#x16e;" horiz-adv-x="668" 
d="M332 770q-123 0 -123 134q0 136 123 136q63 0 93.5 -37t30.5 -99q0 -61 -30.5 -97.5t-93.5 -36.5zM332 842q49 0 49 62q0 63 -49 63t-49 -63q0 -62 49 -62zM334 -11q-153 0 -217 66.5t-64 204.5v481h157v-466q0 -79 26 -112t100 -33q73 0 100 32.5t27 112.5v466h152v-481
q0 -138 -63 -204.5t-218 -66.5z" />
    <glyph glyph-name="uring" unicode="&#x16f;" horiz-adv-x="552" 
d="M275 611q-123 0 -123 134q0 136 123 136q63 0 93.5 -37t30.5 -99q0 -61 -30.5 -97.5t-93.5 -36.5zM275 683q49 0 49 62q0 63 -49 63t-49 -63q0 -62 49 -62zM276 -8q-134 0 -183 54t-49 186v335h152v-327q0 -67 13.5 -90.5t68.5 -23.5q53 0 67 24t14 91v326h149v-335
q0 -133 -47.5 -186.5t-184.5 -53.5z" />
    <glyph glyph-name="Uhungarumlaut" unicode="&#x170;" horiz-adv-x="668" 
d="M365 779l101 183h154l-140 -183h-115zM158 779l101 183h155l-140 -183h-116zM334 -11q-153 0 -217 66.5t-64 204.5v481h157v-466q0 -79 26 -112t100 -33q73 0 100 32.5t27 112.5v466h152v-481q0 -138 -63 -204.5t-218 -66.5z" />
    <glyph glyph-name="uhungarumlaut" unicode="&#x171;" horiz-adv-x="552" 
d="M308 620l101 183h154l-140 -183h-115zM101 620l101 183h155l-140 -183h-116zM276 -8q-134 0 -183 54t-49 186v335h152v-327q0 -67 13.5 -90.5t68.5 -23.5q53 0 67 24t14 91v326h149v-335q0 -133 -47.5 -186.5t-184.5 -53.5z" />
    <glyph glyph-name="Uogonek" unicode="&#x172;" horiz-adv-x="668" 
d="M363 -234q-74 0 -105.5 21.5t-31.5 81.5q0 67 61 122q-127 9 -180.5 75.5t-53.5 193.5v481h157v-466q0 -79 26 -112t100 -33q73 0 100 32.5t27 112.5v466h152v-481q0 -127 -52.5 -193t-178.5 -76q-57 -55 -57 -98q0 -42 50 -42h29v-85h-43z" />
    <glyph glyph-name="uogonek" unicode="&#x173;" horiz-adv-x="552" 
d="M305 -234q-74 0 -105.5 21.5t-31.5 81.5q0 69 64 125q-108 7 -148 61.5t-40 176.5v335h152v-327q0 -67 13.5 -90.5t68.5 -23.5q53 0 67 24t14 91v326h149v-335q0 -120 -37.5 -174.5t-141.5 -63.5q-60 -58 -60 -101q0 -42 50 -42h29v-85h-43z" />
    <glyph glyph-name="Ydieresis" unicode="&#x178;" horiz-adv-x="626" 
d="M344 779v134h133v-134h-133zM148 779v134h134v-134h-134zM390 0h-156v251l-236 490h167l150 -323l151 323h161l-237 -492v-249z" />
    <glyph glyph-name="Zacute" unicode="&#x179;" horiz-adv-x="564" 
d="M193 779l106 183h167l-144 -183h-129zM23 0v118l320 480h-306v143h493v-129l-317 -472h326v-140h-516z" />
    <glyph glyph-name="zacute" unicode="&#x17a;" horiz-adv-x="447" 
d="M135 620l106 183h167l-144 -183h-129zM12 0v100l226 335h-212v132h402v-102l-228 -342h237v-123h-425z" />
    <glyph glyph-name="Zdotaccent" unicode="&#x17b;" horiz-adv-x="564" 
d="M206 779v137h152v-137h-152zM23 0v118l320 480h-306v143h493v-129l-317 -472h326v-140h-516z" />
    <glyph glyph-name="zdotaccent" unicode="&#x17c;" horiz-adv-x="447" 
d="M148 620v137h152v-137h-152zM12 0v100l226 335h-212v132h402v-102l-228 -342h237v-123h-425z" />
    <glyph glyph-name="Zcaron" unicode="&#x17d;" horiz-adv-x="564" 
d="M212 779l-109 183h120l60 -79l60 79h118l-110 -183h-139zM23 0v118l320 480h-306v143h493v-129l-317 -472h326v-140h-516z" />
    <glyph glyph-name="zcaron" unicode="&#x17e;" horiz-adv-x="447" 
d="M154 620l-109 183h120l60 -79l60 79h118l-110 -183h-139zM12 0v100l226 335h-212v132h402v-102l-228 -342h237v-123h-425z" />
    <glyph glyph-name="florin" unicode="&#x192;" horiz-adv-x="507" 
d="M443 329h-145l-76 -487h-151l73 487h-79v131h99l16 107q7 45 18 74.5t32.5 53.5t58 35t90.5 11q30 0 64 -2v-131h-50q-33 0 -44.5 -13t-16.5 -45l-14 -90h125v-131z" />
    <glyph glyph-name="Scommaaccent" unicode="&#x218;" horiz-adv-x="583" 
d="M293 -9q-178 0 -280 67l79 120q84 -53 197 -53q62 0 87.5 19t25.5 57q0 46 -27.5 64t-127.5 49q-106 33 -153.5 81.5t-47.5 136.5q0 108 66 163t190 55q130 0 227 -46l-68 -134q-68 33 -155 33q-56 0 -81.5 -15.5t-25.5 -50.5q0 -36 23 -52t95 -40q72 -23 112.5 -41.5
t71.5 -46t42 -63t11 -90.5q0 -101 -64.5 -157t-196.5 -56zM256 -287l-32 57q39 22 49 32t10 33h-58v130h132v-118q0 -51 -18 -77t-83 -57z" />
    <glyph glyph-name="scommaaccent" unicode="&#x219;" horiz-adv-x="454" 
d="M231 -7q-143 0 -223 42l58 117q76 -37 165 -37q63 0 63 44q0 24 -19.5 36.5t-90.5 35.5q-57 19 -87.5 37.5t-49 51t-18.5 83.5q0 174 212 174q103 0 176 -30l-58 -125q-58 24 -124 24q-35 0 -48.5 -9.5t-13.5 -30.5q0 -20 19 -32t79 -32q92 -30 128 -66t36 -115
q0 -168 -204 -168zM192 -287l-32 57q39 22 49 32t10 33h-58v130h132v-118q0 -51 -18 -77t-83 -57z" />
    <glyph glyph-name="Tcommaaccent" unicode="&#x21a;" horiz-adv-x="579" 
d="M210 0v598h-199v143h557v-143h-200v-598h-158zM254 -287l-32 57q39 22 49 32t10 33h-58v130h132v-118q0 -51 -18 -77t-83 -57z" />
    <glyph glyph-name="tcommaaccent" unicode="&#x21b;" horiz-adv-x="415" 
d="M380 0q-65 -5 -84 -5q-112 0 -153.5 40t-41.5 138v262h-89v132h96l23 127l120 27v-154h129v-132h-129v-244q0 -33 11.5 -46.5t52.5 -13.5h65v-131zM151 -287l-32 57q39 22 49 32t10 33h-58v130h132v-118q0 -51 -18 -77t-83 -57z" />
    <glyph glyph-name="circumflex" unicode="&#x2c6;" horiz-adv-x="487" 
d="M65 620l109 183h139l110 -183h-120l-61 79l-60 -79h-117z" />
    <glyph glyph-name="caron" unicode="&#x2c7;" horiz-adv-x="487" 
d="M174 620l-109 183h120l60 -79l60 79h118l-110 -183h-139z" />
    <glyph glyph-name="breve" unicode="&#x2d8;" horiz-adv-x="487" 
d="M243 614q-96 0 -133.5 41t-50.5 136l108 16q8 -46 23 -62.5t53 -16.5t53.5 16.5t22.5 62.5l109 -15q-14 -97 -51.5 -137.5t-133.5 -40.5z" />
    <glyph glyph-name="dotaccent" unicode="&#x2d9;" horiz-adv-x="487" 
d="M168 620v137h152v-137h-152z" />
    <glyph glyph-name="ring" unicode="&#x2da;" horiz-adv-x="487" 
d="M243 611q-123 0 -123 134q0 136 123 136q63 0 93.5 -37t30.5 -99q0 -61 -30.5 -97.5t-93.5 -36.5zM243 683q49 0 49 62q0 63 -49 63t-49 -63q0 -62 49 -62z" />
    <glyph glyph-name="ogonek" unicode="&#x2db;" horiz-adv-x="487" 
d="M271 -234q-74 0 -105.5 21.5t-31.5 81.5q0 53 34.5 93.5t70.5 60.5h89q-93 -75 -93 -130q0 -42 50 -42h29v-85h-43z" />
    <glyph glyph-name="tilde" unicode="&#x2dc;" horiz-adv-x="487" 
d="M127 614l-97 56q56 110 146 110q30 0 68 -21.5t50 -21.5q28 0 63 48l96 -56q-30 -58 -64 -84.5t-81 -26.5q-30 0 -68.5 21t-49.5 21q-31 0 -63 -46z" />
    <glyph glyph-name="hungarumlaut" unicode="&#x2dd;" horiz-adv-x="487" 
d="M276 620l101 183h154l-140 -183h-115zM69 620l101 183h155l-140 -183h-116z" />
    <glyph glyph-name="mu" unicode="&#x3bc;" horiz-adv-x="555" 
d="M48 -158v725h152v-327q0 -67 13.5 -90.5t67.5 -23.5t68 24t14 91v326h148v-335q0 -133 -46 -186.5t-178 -53.5q-64 0 -88 24v-174h-151z" />
    <glyph glyph-name="endash" unicode="&#x2013;" horiz-adv-x="623" 
d="M30 264v138h563v-138h-563z" />
    <glyph glyph-name="emdash" unicode="&#x2014;" horiz-adv-x="799" 
d="M30 264v138h740v-138h-740z" />
    <glyph glyph-name="quoteleft" unicode="&#x2018;" horiz-adv-x="260" 
d="M44 398v157q0 77 23.5 112.5t104.5 74.5l41 -76q-47 -26 -60 -40.5t-13 -44.5h76v-183h-172z" />
    <glyph glyph-name="quoteright" unicode="&#x2019;" horiz-adv-x="260" 
d="M89 397l-42 76q47 26 60 40.5t13 44.5h-76v183h172v-156q0 -78 -23 -113.5t-104 -74.5z" />
    <glyph glyph-name="quotesinglbase" unicode="&#x201a;" horiz-adv-x="260" 
d="M89 -161l-42 76q47 26 60 40.5t13 44.5h-76v183h172v-156q0 -78 -23 -113.5t-104 -74.5z" />
    <glyph glyph-name="quotedblleft" unicode="&#x201c;" horiz-adv-x="475" 
d="M264 407v156q0 75 22 108t102 71l40 -72q-46 -26 -59 -40.5t-13 -43.5h75v-179h-167zM44 407v156q0 75 22.5 107.5t102.5 71.5l39 -72q-46 -26 -58.5 -40.5t-12.5 -43.5h75v-179h-168z" />
    <glyph glyph-name="quotedblright" unicode="&#x201d;" horiz-adv-x="475" 
d="M306 406l-38 72q45 25 57.5 39.5t12.5 43.5h-75v180h168v-156q0 -76 -22.5 -108.5t-102.5 -70.5zM87 406l-40 72q46 25 59 40t13 43h-75v180h167v-156q0 -76 -22 -108.5t-102 -70.5z" />
    <glyph glyph-name="quotedblbase" unicode="&#x201e;" horiz-adv-x="475" 
d="M306 -152l-38 72q45 25 57.5 39.5t12.5 43.5h-75v180h168v-156q0 -76 -22.5 -108.5t-102.5 -70.5zM87 -152l-40 72q46 25 59 40t13 43h-75v180h167v-156q0 -76 -22 -108.5t-102 -70.5z" />
    <glyph glyph-name="dagger" unicode="&#x2020;" horiz-adv-x="512" 
d="M181 -158v566h-144v140h144v221h150v-221h144v-140h-144v-566h-150z" />
    <glyph glyph-name="daggerdbl" unicode="&#x2021;" horiz-adv-x="512" 
d="M181 -158v225h-144v140h144v202h-144v140h144v220h150v-220h144v-140h-144v-202h144v-140h-144v-225h-150z" />
    <glyph glyph-name="bullet" unicode="&#x2022;" horiz-adv-x="338" 
d="M72 188v232h194v-232h-194z" />
    <glyph glyph-name="ellipsis" unicode="&#x2026;" horiz-adv-x="748" 
d="M533 0v179h171v-179h-171zM288 0v179h172v-179h-172zM44 0v179h172v-179h-172z" />
    <glyph glyph-name="perthousand" unicode="&#x2030;" horiz-adv-x="1502" 
d="M227 258q-102 0 -151.5 56.5t-49.5 188.5t49.5 188.5t151.5 56.5q103 0 153 -56.5t50 -188.5t-50 -188.5t-153 -56.5zM294 0l341 741h140l-342 -741h-139zM228 370q38 0 53 27.5t15 101.5q0 73 -15 101t-53 28t-53 -28t-15 -101q0 -74 15 -101.5t53 -27.5zM1274 -7
q-102 0 -151.5 56.5t-49.5 189.5q0 131 49.5 188t151.5 57t152.5 -57t50.5 -188q0 -132 -50 -189t-153 -57zM838 -7q-102 0 -151.5 56.5t-49.5 189.5q0 131 49.5 188t151.5 57q103 0 153 -57t50 -188q0 -133 -50 -189.5t-153 -56.5zM1275 105q38 0 53 28t15 101
q0 74 -15 101.5t-53 27.5t-53 -27.5t-15 -101.5q0 -73 15 -101t53 -28zM839 105q38 0 53.5 28t15.5 101q0 74 -15.5 101.5t-53.5 27.5t-53 -27.5t-15 -101.5q0 -73 15 -101t53 -28z" />
    <glyph glyph-name="guilsinglleft" unicode="&#x2039;" horiz-adv-x="411" 
d="M188 0l-125 283l125 284h137l-114 -284l114 -283h-137z" />
    <glyph glyph-name="guilsinglright" unicode="&#x203a;" horiz-adv-x="411" 
d="M86 0l114 284l-114 283h137l125 -283l-125 -284h-137z" />
    <glyph glyph-name="fraction" unicode="&#x2044;" horiz-adv-x="477" 
d="M1 0l340 741h134l-340 -741h-134z" />
    <glyph glyph-name="zero.sups" unicode="&#x2070;" horiz-adv-x="498" 
d="M250 250q-61 0 -99.5 15.5t-57.5 51t-25.5 76t-6.5 105.5q0 51 3.5 85t14.5 68t31.5 53t55 31t84.5 12q61 0 99 -16.5t57 -52.5t25 -76.5t6 -103.5q0 -66 -6 -106.5t-25 -75.5t-57 -50.5t-99 -15.5zM250 357q41 0 52.5 28t11.5 113q0 84 -11.5 111t-52.5 27
q-42 0 -54 -27t-12 -111q0 -85 12 -113t54 -28z" />
    <glyph glyph-name="four.sups" unicode="&#x2074;" horiz-adv-x="468" 
d="M423 337h-59v-81h-112v81h-205v92l170 312h123l-167 -307h81l20 105h90v-105h59v-97z" />
    <glyph glyph-name="five.sups" unicode="&#x2075;" horiz-adv-x="451" 
d="M218 250q-107 0 -175 36l52 96q50 -27 115 -27q40 0 54.5 13.5t14.5 54.5q0 38 -14.5 49.5t-54.5 11.5q-38 0 -65 -17l-82 23l13 251h299v-104h-197l-4 -71q24 19 82 19q78 0 110.5 -36t32.5 -129q0 -101 -44 -135.5t-137 -34.5z" />
    <glyph glyph-name="six.sups" unicode="&#x2076;" horiz-adv-x="481" 
d="M249 250q-60 0 -98.5 14.5t-58 45t-26.5 66.5t-7 91q0 79 8 125.5t32.5 83t72 51t125.5 14.5h67v-102h-72q-68 0 -90.5 -16t-25.5 -61q28 31 107 31q81 0 113 -44.5t32 -124.5q0 -89 -41 -131.5t-138 -42.5zM250 350q35 0 47 18t12 63q0 42 -12.5 59t-44.5 17
q-35 0 -52 -17t-17 -57q0 -46 13 -64.5t54 -18.5z" />
    <glyph glyph-name="seven.sups" unicode="&#x2077;" horiz-adv-x="413" 
d="M99 256l137 375h-195v110h328v-96l-141 -389h-129z" />
    <glyph glyph-name="eight.sups" unicode="&#x2078;" horiz-adv-x="479" 
d="M238 250q-59 0 -97.5 11.5t-56.5 33.5t-24.5 45t-6.5 55q0 50 12.5 81t51.5 47q-49 24 -49 104q0 55 37 87.5t133 32.5q98 0 134.5 -32.5t36.5 -87.5q0 -81 -50 -104q29 -11 44 -32t18 -41.5t3 -54.5q0 -32 -6.5 -55t-24.5 -45t-57 -33.5t-98 -11.5zM238 557
q33 0 44.5 11.5t11.5 37.5t-11.5 37t-44.5 11q-32 0 -43.5 -11.5t-11.5 -36.5q0 -26 11.5 -37.5t43.5 -11.5zM238 343q40 0 53 16.5t13 50.5t-13 50t-53 16q-39 0 -51.5 -16t-12.5 -50t12.5 -50.5t51.5 -16.5z" />
    <glyph glyph-name="nine.sups" unicode="&#x2079;" horiz-adv-x="466" 
d="M102 256v100h72q67 0 90 16t26 60q-27 -30 -107 -30q-81 0 -113 45t-32 126q0 89 41 131.5t138 42.5q60 0 98 -14t57.5 -45t26.5 -67t7 -91q0 -80 -7.5 -126.5t-32.5 -82.5t-72 -50.5t-125 -14.5h-67zM214 488q34 0 51 17t17 57q0 47 -12.5 65t-53.5 18q-35 0 -47 -18
t-12 -62q0 -43 12.5 -60t44.5 -17z" />
    <glyph glyph-name="zero.sinf" unicode="&#x2080;" horiz-adv-x="498" 
d="M250 -5q-61 0 -99.5 15.5t-57.5 51t-25.5 76t-6.5 105.5q0 51 3.5 85t14.5 68t31.5 53t55 31t84.5 12q61 0 99 -16.5t57 -52.5t25 -76.5t6 -103.5q0 -66 -6 -106.5t-25 -75.5t-57 -50.5t-99 -15.5zM250 102q41 0 52.5 28t11.5 113q0 84 -11.5 111t-52.5 27q-42 0 -54 -27
t-12 -111q0 -85 12 -113t54 -28z" />
    <glyph glyph-name="one.sinf" unicode="&#x2081;" horiz-adv-x="321" 
d="M112 1v375h-68v110h194v-485h-126z" />
    <glyph glyph-name="two.sinf" unicode="&#x2082;" horiz-adv-x="431" 
d="M45 1v88l123 131q52 56 65 75t13 42q0 27 -13.5 36t-43.5 9q-48 0 -96 -23l-51 99q70 34 167 34q156 0 156 -133q0 -58 -20.5 -96t-89.5 -108l-55 -56h174v-98h-329z" />
    <glyph glyph-name="three.sinf" unicode="&#x2083;" horiz-adv-x="437" 
d="M207 -5q-104 0 -166 37l51 93q50 -27 105 -27q42 0 55.5 12.5t13.5 47.5q0 28 -15 38.5t-60 10.5h-75v96h75q37 0 50 9t13 33q0 25 -12 32.5t-47 7.5q-54 0 -100 -22l-48 93q63 36 169 36q78 0 117 -25.5t39 -92.5q0 -45 -10 -70.5t-37 -36.5q35 -12 47 -38t12 -84
q0 -81 -43.5 -115.5t-133.5 -34.5z" />
    <glyph glyph-name="four.sinf" unicode="&#x2084;" horiz-adv-x="468" 
d="M423 82h-59v-81h-112v81h-205v92l170 312h123l-167 -307h81l20 105h90v-105h59v-97z" />
    <glyph glyph-name="five.sinf" unicode="&#x2085;" horiz-adv-x="453" 
d="M217 -5q-107 0 -175 36l52 96q50 -27 115 -27q40 0 54.5 13.5t14.5 54.5q0 38 -14.5 49.5t-54.5 11.5q-38 0 -65 -17l-82 23l13 251h299v-104h-197l-4 -71q24 19 82 19q78 0 110.5 -36t32.5 -129q0 -101 -44 -135.5t-137 -34.5z" />
    <glyph glyph-name="six.sinf" unicode="&#x2086;" horiz-adv-x="481" 
d="M249 -5q-60 0 -98.5 14.5t-58 45t-26.5 66.5t-7 91q0 79 8 125.5t32.5 83t72 51t125.5 14.5h67v-102h-72q-68 0 -90.5 -16t-25.5 -61q28 31 107 31q81 0 113 -44.5t32 -124.5q0 -89 -41 -131.5t-138 -42.5zM250 95q35 0 47 18t12 63q0 42 -12.5 59t-44.5 17
q-35 0 -52 -17t-17 -57q0 -46 13 -64.5t54 -18.5z" />
    <glyph glyph-name="seven.sinf" unicode="&#x2087;" horiz-adv-x="413" 
d="M99 1l137 375h-195v110h328v-96l-141 -389h-129z" />
    <glyph glyph-name="eight.sinf" unicode="&#x2088;" horiz-adv-x="479" 
d="M238 -5q-59 0 -97.5 11.5t-56.5 33.5t-24.5 45t-6.5 55q0 50 12.5 81t51.5 47q-49 24 -49 104q0 55 37 87.5t133 32.5q98 0 134.5 -32.5t36.5 -87.5q0 -81 -50 -104q29 -11 44 -32t18 -41.5t3 -54.5q0 -32 -6.5 -55t-24.5 -45t-57 -33.5t-98 -11.5zM238 302
q33 0 44.5 11.5t11.5 37.5t-11.5 37t-44.5 11q-32 0 -43.5 -11.5t-11.5 -36.5t11.5 -37t43.5 -12zM238 88q40 0 53 16.5t13 50.5t-13 50t-53 16q-39 0 -51.5 -16t-12.5 -50t12.5 -50.5t51.5 -16.5z" />
    <glyph glyph-name="nine.sinf" unicode="&#x2089;" horiz-adv-x="466" 
d="M102 1v100h72q67 0 90 16t26 60q-27 -30 -107 -30q-81 0 -113 45t-32 126q0 89 41 131.5t138 42.5q60 0 98 -14t57.5 -45t26.5 -67t7 -91q0 -80 -7.5 -126.5t-32.5 -82.5t-72 -50.5t-125 -14.5h-67zM214 233q34 0 51 17t17 57q0 47 -12.5 65t-53.5 18q-35 0 -47 -18
t-12 -62q0 -43 12.5 -60t44.5 -17z" />
    <glyph glyph-name="Euro" unicode="&#x20ac;" horiz-adv-x="609" 
d="M581 43q-91 -52 -204 -52q-120 0 -178.5 57.5t-73.5 188.5h-102v107h95v26v26h-95v107h102q16 131 76.5 189t186.5 58q115 0 194 -47l-71 -128q-56 29 -124 29q-49 0 -74 -23.5t-35 -77.5h170v-107h-178v-25v-27h178v-107h-170q10 -55 35.5 -80.5t73.5 -25.5q64 0 126 33
z" />
    <glyph glyph-name="uni2117" unicode="&#x2117;" horiz-adv-x="668" 
d="M334 -9q-89 0 -150 28t-94 81.5t-46.5 118.5t-13.5 151q0 69 8 123t29 104t54.5 82.5t87.5 52t125 19.5q88 0 149.5 -28.5t94.5 -82t47 -119t14 -151.5t-14 -151t-47 -118.5t-94.5 -81.5t-149.5 -28zM334 45q59 0 102.5 16.5t71 44.5t44 70.5t23 88.5t6.5 105t-6.5 105.5
t-23 89t-44 70.5t-71 44.5t-102.5 16.5q-73 0 -122.5 -24t-76 -70.5t-37 -101.5t-10.5 -130q0 -74 10.5 -129t37 -101.5t76 -70.5t122.5 -24zM190 133v466h177q87 0 119.5 -36.5t32.5 -113.5q0 -78 -33 -117t-120 -39h-81v-160h-95zM285 371h79q34 0 48 16.5t14 54.5
q0 40 -14 56.5t-48 16.5h-79v-144z" />
    <glyph glyph-name="trademark" unicode="&#x2122;" horiz-adv-x="916" 
d="M150 267v373h-119v101h351v-101h-120v-373h-112zM410 267v474h126l90 -296l89 296h127v-474h-108v265l-75 -265h-71l-76 265v-265h-102z" />
    <glyph glyph-name="minus" unicode="&#x2212;" horiz-adv-x="609" 
d="M79 287v131h451v-131h-451z" />
    <glyph glyph-name="radical" unicode="&#x221a;" horiz-adv-x="584" 
d="M169 -5l-146 452h159l71 -252l160 546h149l-235 -746h-158z" />
    <glyph glyph-name="infinity" unicode="&#x221e;" horiz-adv-x="711" 
d="M202 165q-79 0 -119.5 42t-40.5 137t41 137.5t119 42.5t155 -100q79 100 153 100q75 0 116.5 -37.5t41.5 -142.5q0 -104 -42 -141.5t-116 -37.5q-77 0 -156 100q-79 -100 -152 -100zM213 278q32 0 81 65q-48 68 -81 68q-61 0 -61 -67q0 -66 61 -66zM500 279q59 0 59 65
q0 66 -59 66q-21 0 -40 -16.5t-44 -48.5q25 -33 44 -49.5t40 -16.5z" />
    <glyph glyph-name="approxequal" unicode="&#x2248;" horiz-adv-x="609" 
d="M157 378l-103 60q30 59 66.5 86t86.5 27q38 0 99 -21t82 -21q30 0 65 48l102 -59q-30 -59 -66.5 -86.5t-86.5 -27.5q-39 0 -99 21t-82 21q-31 0 -64 -48zM157 149l-103 60q30 59 66.5 86t86.5 27q38 0 99 -21t82 -21q31 0 65 48l102 -59q-30 -59 -66.5 -86.5t-86.5 -27.5
q-39 0 -99 20.5t-82 20.5q-32 0 -64 -47z" />
    <glyph glyph-name="notequal" unicode="&#x2260;" horiz-adv-x="609" 
d="M121 54l44 112h-85v139h150l36 90h-186v138h236l44 112h128l-45 -112h86v-138h-151l-36 -90h187v-139h-236l-45 -112h-127z" />
    <glyph glyph-name="lessequal" unicode="&#x2264;" horiz-adv-x="609" 
d="M483 6h-392v131h308l-308 165v104l392 209v-145l-234 -116l234 -116v-232z" />
    <glyph glyph-name="greaterequal" unicode="&#x2265;" horiz-adv-x="609" 
d="M518 6h-392v232l233 116l-233 116v145l392 -209v-104l-308 -165h308v-131z" />
    <glyph glyph-name="lozenge" unicode="&#x25ca;" horiz-adv-x="487" 
d="M181 0l-171 371l171 370h118l172 -370l-172 -371h-118zM241 144l99 224l-100 229l-100 -225z" />
    <glyph glyph-name="commaaccent" unicode="&#xf6c3;" horiz-adv-x="260" 
d="M95 -287l-32 57q39 22 49 32t10 33h-58v130h132v-118q0 -51 -18 -77t-83 -57z" />
    <glyph glyph-name="apple" unicode="&#xf8ff;" horiz-adv-x="832" 
d="M172 654l-7 8q107 97 251 97t252 -97l-7 -8q-105 95 -245 95q-139 0 -244 -95zM610 597q-81 75 -194 75q-110 0 -194 -74l-7 7q87 77 201 77t201 -77zM706 120q-3 3 -8 7q88 106 88 244t-88 244l8 7q90 -108 90 -251q0 -142 -90 -251zM570 552q-65 59 -154 59
q-87 0 -153 -58l-7 7q69 61 160 61q92 0 161 -61q-2 -3 -7 -8zM126 120q-90 108 -90 251q0 142 90 250q3 -2 7 -6q-87 -106 -87 -244t88 -244zM295 516l-7 8q54 48 128 48t128 -49l-2 -1l-2 -4l-2 -2q-52 46 -122 46t-121 -46zM183 170q-72 88 -72 201t71 200q1 -1 3.5 -3
t4.5 -4q-69 -83 -69 -193q0 -111 69 -194zM649 171q-1 1 -3.5 3t-3.5 3q69 85 69 194q0 110 -70 193l8 7q72 -86 72 -200t-72 -200zM320 487l-7 8q44 38 103 38q58 0 102 -39l-6 -7q-41 36 -96 36q-53 0 -96 -36zM604 211q-3 2 -8 7q55 66 55 153q0 89 -55 153l8 7
q57 -68 57 -160t-57 -160zM228 211q-57 70 -57 160t56 160q2 -1 4.5 -3.5l3.5 -3.5q-54 -67 -54 -153q0 -88 54 -153q-1 -1 -2 -2.5t-2.5 -2.5t-2.5 -2zM341 464l-7 7q36 31 82 31q47 0 82 -30l-7 -8q-33 28 -75 28t-75 -28zM568 243q-5 5 -8 7q43 53 43 121t-43 121l8 7
q45 -56 45 -128t-45 -128zM264 243q-45 56 -45 128t45 128q1 -1 4 -3.5t4 -3.5q-43 -53 -43 -121t43 -121q-2 -1 -4.5 -3.5zM358 445q-3 2 -7 7l-1 1q29 24 66 24t66 -24l-8 -8q-25 22 -58 22t-58 -22zM540 269q-2 1 -4 3.5t-4 3.5q33 43 33 95q0 53 -34 95l8 7
q36 -44 36 -102q0 -57 -35 -102zM292 269q-35 45 -35 102q0 58 36 102l7 -7q-33 -43 -33 -95t33 -95q-5 -5 -8 -7zM371 430l-7 8q22 19 52 19t52 -19l-7 -8q-19 17 -45 17t-45 -17zM516 290l-7 7q25 33 25 74t-26 75l8 7q28 -36 28 -82q0 -47 -28 -81zM316 289
q-28 36 -28 82q0 47 28 81l7 -7q-25 -33 -25 -74t26 -75q-2 -1 -4 -3.5t-4 -3.5zM384 416l-7 7q17 14 39 14q21 0 38 -14q-4 -4 -6 -7q-14 12 -32 12q-17 0 -32 -12zM334 306q-21 29 -21 65t21 65q3 -2 8 -7q-19 -25 -19 -58q0 -32 19 -57zM498 306q-3 2 -8 7q19 25 19 58
t-19 58l7 7q22 -28 22 -65q0 -34 -21 -65zM482 319q-3 4 -7 7q14 20 14 45t-14 44l7 7q17 -22 17 -51t-17 -52zM349 320q-16 22 -16 51t16 51q2 -1 4 -3.5t4 -3.5q-14 -20 -14 -44t14 -44q-3 -2 -8 -7zM395 403l-5 6q10 9 26 9t26 -9l-5 -6q-11 7 -21 7q-13 0 -21 -7z
M364 333q-12 17 -12 38t12 38q1 -1 2 -2.5t2.5 -2.5t2.5 -2q-9 -16 -9 -31t9 -31zM468 333q-5 5 -8 7q10 15 10 31t-10 31l8 7q12 -16 12 -38q0 -21 -12 -38zM454 346l-6 5q5 10 5 20t-5 20l6 5q7 -12 7 -25t-7 -25zM378 346q-7 12 -7 25t7 25l6 -5q-5 -10 -5 -20t5 -20
q-2 -2 -6 -5zM416 324q-15 0 -27 9l6 6q10 -7 21 -7q13 0 21 7q2 -2 5 -6q-10 -9 -26 -9zM416 305q-21 0 -40 14l7 7q17 -12 33 -12q17 0 32 12l7 -7q-17 -14 -39 -14zM416 285q-29 0 -53 19l7 8q22 -17 46 -17q25 0 45 17l7 -8q-22 -19 -52 -19zM416 265q-37 0 -66 24l7 8
q25 -22 59 -22q33 0 58 22q1 -2 3.5 -4t3.5 -4q-29 -24 -65 -24zM416 240q-48 0 -83 30l7 8q35 -28 76 -28q42 0 75 28l7 -7q-36 -31 -82 -31zM416 209q-57 0 -103 38l7 8q43 -36 96 -36t96 36q2 -2 6 -8q-45 -38 -102 -38zM416 170q-72 0 -129 49l7 7q52 -46 122 -46
t121 46l3.5 -3.5t3.5 -4.5q-54 -48 -128 -48zM416 121q-92 0 -161 61l7 8q65 -59 154 -59t153 59q1 -1 3.5 -4t3.5 -4q-67 -61 -160 -61zM416 60q-116 0 -201 77l7 7q84 -74 194 -74q111 0 193 74q1 -2 3.5 -4t3.5 -4q-86 -76 -200 -76zM416 -17q-144 0 -252 97l7 8
q105 -95 245 -95q139 0 244 94l2 -1l4 -4l1 -2q-107 -97 -251 -97z" />
    <glyph glyph-name="nbspace" horiz-adv-x="170" 
 />
    <glyph glyph-name="commaaccent.scrap" horiz-adv-x="260" 
d="M64 620v117q0 51 18.5 77t83.5 57l31 -56q-39 -23 -48.5 -33t-9.5 -32h57v-130h-132z" />
    <glyph glyph-name="registered.sups" horiz-adv-x="552" 
d="M275 175q-68 0 -114 21t-70.5 62t-34.5 89.5t-10 114.5q0 65 10 114t34.5 90t71 62.5t113.5 21.5q68 0 114.5 -21.5t71 -62.5t35 -90t10.5 -114t-10.5 -114t-35 -90t-71 -62t-114.5 -21zM275 218q55 0 92.5 18t57 53t27.5 76t8 97t-8 97t-27.5 76t-57 53t-92.5 18
t-92 -18t-56.5 -53t-27.5 -76t-8 -97t8 -97t27.5 -76t56.5 -53t92 -18zM232 471h57q24 0 33 11t9 38q0 29 -9 39.5t-33 10.5h-57v-99zM232 293h-72v341h131q64 0 88 -26.5t24 -81.5q0 -87 -58 -106l56 -127h-74l-52 119h-43v-119z" />
    <glyph glyph-name="zero.numr" horiz-adv-x="458" 
d="M230 250q-61 0 -99.5 15.5t-57.5 51t-25.5 76t-6.5 105.5q0 51 3.5 85t14.5 68t31.5 53t55 31t84.5 12q61 0 99 -16.5t57 -52.5t25 -76.5t6 -103.5q0 -66 -6 -106.5t-25 -75.5t-57 -50.5t-99 -15.5zM230 357q41 0 52.5 28t11.5 113q0 84 -11.5 111t-52.5 27
q-42 0 -54 -27t-12 -111q0 -85 12 -113t54 -28z" />
    <glyph glyph-name="one.numr" horiz-adv-x="281" 
d="M92 256v375h-68v110h194v-485h-126z" />
    <glyph glyph-name="two.numr" horiz-adv-x="391" 
d="M25 256v88l123 131q53 56 65.5 75.5t12.5 41.5q0 27 -13.5 36t-43.5 9q-48 0 -96 -23l-51 99q70 34 167 34q156 0 156 -133q0 -58 -20.5 -96t-89.5 -108l-55 -56h174v-98h-329z" />
    <glyph glyph-name="three.numr" horiz-adv-x="397" 
d="M187 250q-104 0 -166 37l51 93q49 -27 105 -27q42 0 55.5 12.5t13.5 47.5q0 28 -15 38.5t-60 10.5h-75v96h75q37 0 50 9t13 33q0 25 -12 32.5t-47 7.5q-54 0 -100 -22l-48 93q63 36 169 36q78 0 117 -25.5t39 -92.5q0 -45 -10 -70.5t-37 -36.5q35 -12 47 -38t12 -84
q0 -81 -43.5 -115.5t-133.5 -34.5z" />
    <glyph glyph-name="four.numr" horiz-adv-x="428" 
d="M403 337h-59v-81h-112v81h-205v92l170 312h123l-167 -307h81l20 105h90v-105h59v-97z" />
    <glyph glyph-name="five.numr" horiz-adv-x="413" 
d="M197 250q-107 0 -175 36l52 96q50 -27 115 -27q40 0 54.5 13.5t14.5 54.5q0 38 -14.5 49.5t-54.5 11.5q-38 0 -65 -17l-82 23l13 251h299v-104h-197l-4 -71q24 19 82 19q78 0 110.5 -36t32.5 -129q0 -101 -44 -135.5t-137 -34.5z" />
    <glyph glyph-name="six.numr" horiz-adv-x="441" 
d="M229 250q-60 0 -98.5 14.5t-58 45t-26.5 66.5t-7 91q0 79 8 125.5t32.5 83t72 51t125.5 14.5h67v-102h-72q-68 0 -90.5 -16t-25.5 -61q28 31 107 31q81 0 113 -44.5t32 -124.5q0 -89 -41 -131.5t-138 -42.5zM230 350q35 0 47 18t12 63q0 42 -12.5 59t-44.5 17
q-35 0 -52 -17t-17 -57q0 -46 13 -64.5t54 -18.5z" />
    <glyph glyph-name="seven.numr" horiz-adv-x="373" 
d="M79 256l137 375h-195v110h328v-96l-141 -389h-129z" />
    <glyph glyph-name="eight.numr" horiz-adv-x="439" 
d="M218 250q-59 0 -97.5 11.5t-56.5 33.5t-24.5 45t-6.5 55q0 50 12.5 81t51.5 47q-49 24 -49 104q0 55 37 87.5t133 32.5q98 0 134.5 -32.5t36.5 -87.5q0 -81 -50 -104q29 -11 44 -32t18 -41.5t3 -54.5q0 -32 -6.5 -55t-24.5 -45t-57 -33.5t-98 -11.5zM218 557
q33 0 44.5 11.5t11.5 37.5t-11.5 37t-44.5 11q-32 0 -43.5 -11.5t-11.5 -36.5q0 -26 11.5 -37.5t43.5 -11.5zM218 343q40 0 53 16.5t13 50.5t-13 50t-53 16q-39 0 -51.5 -16t-12.5 -50t12.5 -50.5t51.5 -16.5z" />
    <glyph glyph-name="nine.numr" horiz-adv-x="426" 
d="M82 256v100h72q67 0 90 16t26 60q-27 -30 -107 -30q-81 0 -113 45t-32 126q0 89 41 131.5t138 42.5q60 0 98 -14t57.5 -45t26.5 -67t7 -91q0 -80 -7.5 -126.5t-32.5 -82.5t-72 -50.5t-125 -14.5h-67zM194 488q34 0 51 17t17 57q0 47 -12.5 65t-53.5 18q-35 0 -47 -18
t-12 -62q0 -43 12.5 -60t44.5 -17z" />
    <glyph glyph-name="zero.dnom" horiz-adv-x="458" 
d="M230 -5q-61 0 -99.5 15.5t-57.5 51t-25.5 76t-6.5 105.5q0 51 3.5 85t14.5 68t31.5 53t55 31t84.5 12q61 0 99 -16.5t57 -52.5t25 -76.5t6 -103.5q0 -66 -6 -106.5t-25 -75.5t-57 -50.5t-99 -15.5zM230 102q41 0 52.5 28t11.5 113q0 84 -11.5 111t-52.5 27q-42 0 -54 -27
t-12 -111q0 -85 12 -113t54 -28z" />
    <glyph glyph-name="one.dnom" horiz-adv-x="281" 
d="M92 1v375h-68v110h194v-485h-126z" />
    <glyph glyph-name="two.dnom" horiz-adv-x="391" 
d="M25 1v88l123 131q53 56 65.5 75t12.5 42q0 27 -13.5 36t-43.5 9q-48 0 -96 -23l-51 99q70 34 167 34q156 0 156 -133q0 -58 -20.5 -96t-89.5 -108l-55 -56h174v-98h-329z" />
    <glyph glyph-name="three.dnom" horiz-adv-x="397" 
d="M187 -5q-104 0 -166 37l51 93q49 -27 105 -27q42 0 55.5 12.5t13.5 47.5q0 28 -15 38.5t-60 10.5h-75v96h75q37 0 50 9t13 33q0 25 -12 32.5t-47 7.5q-54 0 -100 -22l-48 93q63 36 169 36q78 0 117 -25.5t39 -92.5q0 -45 -10 -70.5t-37 -36.5q35 -12 47 -38t12 -84
q0 -81 -43.5 -115.5t-133.5 -34.5z" />
    <glyph glyph-name="four.dnom" horiz-adv-x="428" 
d="M403 82h-59v-81h-112v81h-205v92l170 312h123l-167 -307h81l20 105h90v-105h59v-97z" />
    <glyph glyph-name="five.dnom" horiz-adv-x="413" 
d="M197 -5q-107 0 -175 36l52 96q50 -27 115 -27q40 0 54.5 13.5t14.5 54.5q0 38 -14.5 49.5t-54.5 11.5q-38 0 -65 -17l-82 23l13 251h299v-104h-197l-4 -71q24 19 82 19q78 0 110.5 -36t32.5 -129q0 -101 -44 -135.5t-137 -34.5z" />
    <glyph glyph-name="six.dnom" horiz-adv-x="441" 
d="M229 -5q-60 0 -98.5 14.5t-58 45t-26.5 66.5t-7 91q0 79 8 125.5t32.5 83t72 51t125.5 14.5h67v-102h-72q-68 0 -90.5 -16t-25.5 -61q28 31 107 31q81 0 113 -44.5t32 -124.5q0 -89 -41 -131.5t-138 -42.5zM230 95q35 0 47 18t12 63q0 42 -12.5 59t-44.5 17
q-35 0 -52 -17t-17 -57q0 -46 13 -64.5t54 -18.5z" />
    <glyph glyph-name="seven.dnom" horiz-adv-x="373" 
d="M79 1l137 375h-195v110h328v-96l-141 -389h-129z" />
    <glyph glyph-name="eight.dnom" horiz-adv-x="439" 
d="M218 -5q-59 0 -97.5 11.5t-56.5 33.5t-24.5 45t-6.5 55q0 50 12.5 81t51.5 47q-49 24 -49 104q0 55 37 87.5t133 32.5q98 0 134.5 -32.5t36.5 -87.5q0 -81 -50 -104q29 -11 44 -32t18 -41.5t3 -54.5q0 -32 -6.5 -55t-24.5 -45t-57 -33.5t-98 -11.5zM218 302
q33 0 44.5 11.5t11.5 37.5t-11.5 37t-44.5 11q-32 0 -43.5 -11.5t-11.5 -36.5t11.5 -37t43.5 -12zM218 88q40 0 53 16.5t13 50.5t-13 50t-53 16q-39 0 -51.5 -16t-12.5 -50t12.5 -50.5t51.5 -16.5z" />
    <glyph glyph-name="nine.dnom" horiz-adv-x="426" 
d="M82 1v100h72q67 0 90 16t26 60q-27 -30 -107 -30q-81 0 -113 45t-32 126q0 89 41 131.5t138 42.5q60 0 98 -14t57.5 -45t26.5 -67t7 -91q0 -80 -7.5 -126.5t-32.5 -82.5t-72 -50.5t-125 -14.5h-67zM194 233q34 0 51 17t17 57q0 47 -12.5 65t-53.5 18q-35 0 -47 -18
t-12 -62q0 -43 12.5 -60t44.5 -17z" />
    <glyph glyph-name="zero.tab" 
d="M326 -9q-71 0 -120.5 17.5t-79 46.5t-46 79.5t-22 104t-5.5 131.5t5 130.5t21.5 103.5t46 80.5t79.5 47.5t121 18t120.5 -18.5t78.5 -48t45 -81t21 -103.5t5 -129q0 -66 -3.5 -112.5t-13.5 -92.5t-28.5 -75.5t-48 -53.5t-73.5 -34.5t-103 -10.5zM326 131q70 0 92.5 52
t22.5 187q0 133 -22.5 183.5t-92.5 50.5q-71 0 -94 -50.5t-23 -183.5q0 -134 23 -186.5t94 -52.5z" />
    <glyph glyph-name="one.tab" 
d="M122 0v132h136v471h-137v138h288v-609h117v-132h-404z" />
    <glyph glyph-name="two.tab" 
d="M79 0v120l186 200q79 84 99.5 121t20.5 86q0 42 -21 60.5t-74 18.5q-75 0 -147 -35l-65 127q104 52 238 52q117 0 169 -49.5t52 -150.5q0 -86 -30.5 -143t-134.5 -170l-97 -105h274v-132h-470z" />
    <glyph glyph-name="three.tab" 
d="M303 -9q-133 0 -231 55l68 125q78 -42 153 -42q66 0 89.5 22t23.5 84q0 52 -23.5 72t-93.5 20h-105v125h107q57 0 77 18t20 61q0 44 -21.5 59.5t-74.5 15.5q-75 0 -146 -34l-64 123q96 55 234 55q114 0 167.5 -38.5t53.5 -140.5q0 -73 -16 -111t-56 -54q53 -17 72.5 -57
t19.5 -130q0 -125 -61 -176.5t-193 -51.5z" />
    <glyph glyph-name="four.tab" 
d="M599 146h-90v-146h-141v146h-312v117l259 478h158l-255 -470h152l30 207h109v-207h90v-125z" />
    <glyph glyph-name="five.tab" 
d="M316 -9q-152 0 -253 56l68 124q77 -42 175 -42q63 0 89.5 23.5t26.5 94.5q0 70 -25 93t-81 23q-63 0 -105 -26l-117 34l20 370h424v-138h-295l-7 -132q43 25 136 25q108 0 155 -53.5t47 -192.5q0 -80 -16 -131.5t-51.5 -79t-79.5 -38t-111 -10.5z" />
    <glyph glyph-name="six.tab" 
d="M337 -9q-72 0 -122 15.5t-79 41t-45 69.5t-21 89.5t-5 113.5q0 67 2.5 112.5t10.5 93.5t23.5 78.5t40.5 59t62 44t88.5 24.5t119.5 9h87v-138h-95q-57 0 -93 -9t-55 -30t-26.5 -45t-10.5 -63q43 51 170 51q63 0 105 -17.5t63.5 -53t30 -77.5t8.5 -102
q0 -139 -57.5 -202.5t-201.5 -63.5zM340 124q59 0 81.5 31t22.5 101q0 68 -23 97.5t-79 29.5q-119 0 -119 -122q0 -75 23.5 -106t93.5 -31z" />
    <glyph glyph-name="seven.tab" 
d="M179 0l212 603h-299v138h464v-119l-215 -622h-162z" />
    <glyph glyph-name="eight.tab" 
d="M324 -9q-68 0 -117.5 12.5t-77 32t-44 50t-21 59t-4.5 67.5q0 38 3 64t12.5 53.5t30 47t52.5 31.5q-46 21 -61.5 60.5t-15.5 99.5q0 39 10 69t35 57t75 41.5t123 14.5t123.5 -14.5t75 -42t34.5 -57t10 -68.5q0 -60 -16.5 -100.5t-61.5 -59.5q34 -12 55.5 -31.5t31 -47.5
t12 -53t2.5 -64t-4.5 -67.5t-21 -59t-44.5 -50t-77.5 -32t-118.5 -12.5zM324 453q53 0 74 20.5t21 63.5t-21 63.5t-74 20.5q-52 0 -73.5 -20.5t-21.5 -63.5t21.5 -63.5t73.5 -20.5zM324 120q64 0 88 28.5t24 84.5t-23.5 83.5t-88.5 27.5q-64 0 -87 -27.5t-23 -83.5t23 -84.5
t87 -28.5z" />
    <glyph glyph-name="nine.tab" 
d="M150 0v132h96q105 0 142 34t42 115q-40 -51 -169 -51q-63 0 -105 17.5t-63.5 52.5t-30 77t-8.5 102q0 140 57 205.5t201 65.5q72 0 122 -15.5t79.5 -41t45.5 -69.5t21 -89.5t5 -113.5q0 -67 -3 -113.5t-11 -94t-24 -78.5t-41.5 -58.5t-62.5 -43t-88 -24.5t-118 -9h-87z
M307 353q120 0 120 123q0 75 -24 105.5t-94 30.5q-59 0 -81.5 -31t-22.5 -101q0 -68 23.5 -97.5t78.5 -29.5z" />
    <glyph glyph-name="plus.tab" 
d="M253 105v182h-154v131h154v180h143v-180h154v-131h-154v-182h-143z" />
    <glyph glyph-name="minus.tab" 
d="M99 287v131h451v-131h-451z" />
    <glyph glyph-name="multiply.tab" 
d="M200 134l-92 94l124 124l-123 123l92 94l123 -123l124 123l92 -94l-124 -123l123 -122l-91 -95l-124 123z" />
    <glyph glyph-name="divide.tab" 
d="M249 480v130h150v-130h-150zM95 283v139h459v-139h-459zM249 94v130h150v-130h-150z" />
    <glyph glyph-name="less.tab" 
d="M504 77l-392 217v104l392 217v-145l-234 -123l234 -124v-146z" />
    <glyph glyph-name="equal.tab" 
d="M100 395v138h449v-138h-449zM100 166v139h449v-139h-449z" />
    <glyph glyph-name="greater.tab" 
d="M144 77v145l235 123l-235 124v146l393 -217v-104z" />
    <glyph glyph-name="numbersign.tab" 
d="M266 308h99l15 98h-99zM89 0l27 181h-74v138h95l11 76h-106v137h127l31 209h143l-31 -209h75l31 209h143l-32 -209h77v-137h-97l-12 -76h109v-138h-130l-27 -181h-142l27 181h-75l-27 -181h-143z" />
    <glyph glyph-name="dollar.tab" 
d="M401 -93h-144v94q-113 10 -195 68l71 113q84 -58 187 -58q60 0 82 20.5t22 63.5q0 39 -24 59.5t-87 41.5q-103 34 -136 53q-84 54 -85 165q0 95 40 146t124 65v81h145v-81q82 -11 145 -47l-69 -121q-66 35 -149 35q-48 0 -68 -18.5t-20 -54.5q0 -34 24.5 -52.5
t87.5 -37.5q36 -11 55 -17.5t49.5 -20t47 -28.5t34.5 -37t26 -52t8 -68q0 -97 -39.5 -149t-131.5 -66v-97z" />
    <glyph glyph-name="cent.tab" 
d="M535 33q-54 -27 -105 -34v-94h-146v99q-89 19 -123.5 87.5t-34.5 193.5q0 123 34 191t124 89v80h146v-74q56 -5 99 -27l-64 -128q-38 20 -84 20q-57 0 -78.5 -34.5t-21.5 -121.5q0 -88 21.5 -122.5t81.5 -34.5q41 0 95 23z" />
    <glyph glyph-name="sterling.tab" 
d="M588 191q0 -108 -36 -152t-127 -44t-178 40q-55 -35 -191 -35v132q78 0 99 11t21 54q0 34 -18 115h-99v122h71q-16 78 -16 118q0 102 56 150t172 48q126 0 214 -45l-64 -123q-59 29 -149 29q-79 0 -79 -77q0 -33 12 -100h143v-122h-120q14 -75 14 -113q0 -35 -4 -58
q46 -18 96 -18q31 0 41 17t10 57v57h132v-63z" />
    <glyph glyph-name="yen.tab" 
d="M554 56h-156v-56h-147v56h-155v107h155v53h-155v107h149l-203 418h161l122 -284l123 284h159l-202 -418h149v-107h-156v-53h156v-107z" />
    <glyph glyph-name="florin.tab" 
d="M514 329h-145l-76 -487h-151l73 487h-79v131h99l16 107q7 45 18 74.5t32.5 53.5t58 35t90.5 11q30 0 64 -2v-131h-50q-33 0 -44.5 -13t-16.5 -45l-14 -90h125v-131z" />
    <glyph glyph-name="Euro.tab" 
d="M601 43q-91 -52 -204 -52q-120 0 -178.5 57.5t-73.5 188.5h-102v107h95v26v26h-95v107h102q16 131 76.5 189t186.5 58q115 0 194 -47l-71 -128q-56 29 -124 29q-49 0 -74 -23.5t-35 -77.5h170v-107h-178v-25v-27h178v-107h-170q10 -55 35.5 -80.5t73.5 -25.5q64 0 126 33
z" />
    <glyph glyph-name="fraction.tab" 
d="M87 0l340 741h134l-340 -741h-134z" />
    <glyph glyph-name="degree.tab" 
d="M325 266q-60 0 -101 18.5t-62.5 54t-30.5 76t-9 93.5t9 93.5t30.5 75.5t62.5 54t101 19t101.5 -19t63.5 -54t31 -75.5t9 -93.5t-9 -93.5t-31 -76t-63.5 -54t-101.5 -18.5zM325 379q50 0 66.5 32t16.5 93t-16.5 92t-66.5 31q-48 0 -65 -31.5t-17 -91.5q0 -61 17 -93
t65 -32z" />
    <glyph glyph-name="percent.tab" horiz-adv-x="870" 
d="M192 265q-97 0 -132 60.5t-35 182.5q0 124 34.5 183.5t132.5 59.5q42 0 72.5 -11.5t48.5 -30.5t28.5 -51.5t14 -66.5t3.5 -83q0 -126 -33 -184.5t-134 -58.5zM249 0l269 741h102l-269 -741h-102zM192 367q32 0 42.5 28t10.5 111t-10.5 111t-42.5 28q-33 0 -43.5 -28
t-10.5 -111t10.5 -111t43.5 -28zM678 -9q-97 0 -132 60t-35 183q0 124 34.5 183.5t132.5 59.5q42 0 72.5 -11.5t48.5 -30.5t28.5 -51.5t14 -66.5t3.5 -83q0 -126 -33 -184.5t-134 -58.5zM678 93q32 0 42.5 28t10.5 111t-10.5 111t-42.5 28q-33 0 -43.5 -28t-10.5 -111
t10.5 -111t43.5 -28z" />
    <glyph glyph-name="perthousand.tab" horiz-adv-x="1230" 
d="M194 265q-97 0 -132 60.5t-35 182.5q0 123 34.5 183t132.5 60q53 0 87 -16t51.5 -50.5t23.5 -75t6 -101.5q0 -62 -6 -102t-23 -74.5t-51.5 -50.5t-87.5 -16zM252 0l269 741h101l-269 -741h-101zM194 367q33 0 43.5 28t10.5 111t-10.5 111t-43.5 28t-43.5 -28t-10.5 -111
t10.5 -111t43.5 -28zM1036 -9q-97 0 -132.5 60.5t-35.5 182.5q0 123 35 183t133 60q52 0 86 -16t51.5 -50.5t23.5 -75t6 -101.5q0 -126 -33 -184.5t-134 -58.5zM680 -9q-97 0 -132 60.5t-35 182.5q0 124 34.5 183.5t132.5 59.5q42 0 72.5 -11.5t48.5 -30.5t28.5 -51.5
t14 -66.5t3.5 -83q0 -126 -33 -184.5t-134 -58.5zM1036 93q32 0 42.5 28t10.5 111t-10.5 111t-42.5 28q-33 0 -44 -28t-11 -111t11 -111t44 -28zM680 93q32 0 42.5 28t10.5 111t-10.5 111t-42.5 28q-33 0 -43.5 -28t-10.5 -111t10.5 -111t43.5 -28z" />
    <glyph glyph-name="ordfeminine.tab" 
d="M298 376q39 0 58.5 17.5t19.5 62.5v36h-15q-70 0 -94.5 -11t-24.5 -48q0 -30 13 -43.5t43 -13.5zM392 327q-18 -28 -47 -39.5t-85 -11.5q-135 0 -135 143q0 93 53.5 126t182.5 33h15q-1 33 -13 46.5t-47 13.5q-63 0 -117 -24l-49 100q72 36 180 36q94 0 129.5 -35
t35.5 -122v-170q0 -22 5.5 -28.5t26.5 -6.5v-108q-7 0 -19.5 -0.5t-17.5 -0.5q-47 0 -68 9t-30 39zM140 118v108h365v-108h-365z" />
    <glyph glyph-name="ordmasculine.tab" 
d="M325 274q-114 0 -158 60t-44 178q0 117 44 177.5t158 60.5q116 0 159.5 -60.5t43.5 -177.5q0 -120 -43 -179t-160 -59zM325 382q49 0 63.5 29.5t14.5 97.5q0 67 -14.5 96.5t-63.5 29.5q-48 0 -63 -29.5t-15 -96.5t15 -97t63 -30zM140 118v108h369v-108h-369z" />
    <glyph glyph-name="space.tab" horiz-adv-x="325" 
 />
    <glyph glyph-name="comma.tab" horiz-adv-x="325" 
d="M121 -153l-41 76q49 27 61 38.5t12 38.5h-77v179h173v-164q0 -65 -23.5 -96.5t-104.5 -71.5z" />
    <glyph glyph-name="period.tab" horiz-adv-x="325" 
d="M76 0v179h173v-179h-173z" />
    <glyph glyph-name="quotesingle.tab" 
d="M254 392l-7 349h157l-7 -349h-143z" />
    <glyph glyph-name="quotedbl.tab" 
d="M363 392l-8 349h156l-8 -349h-140zM146 392l-7 349h156l-7 -349h-142z" />
    <glyph glyph-name="a.salt" horiz-adv-x="564" 
d="M268 124q61 0 79 36.5t18 122.5q0 85 -17.5 119.5t-79.5 34.5q-54 0 -71.5 -35.5t-17.5 -118.5q0 -86 17 -122.5t72 -36.5zM216 -7q-60 0 -99.5 22.5t-58 67t-25 90.5t-6.5 113q0 43 3 76.5t10 68.5t21 60t35.5 45.5t53.5 30.5t73 10q73 0 106.5 -11t52.5 -35l24 41
l110 -10v-557l-121 -10l-11 51q-40 -53 -168 -53z" />
    <glyph glyph-name="aacute.salt" horiz-adv-x="564" 
d="M193 620l106 183h167l-144 -183h-129zM268 124q61 0 79 36.5t18 122.5q0 85 -17.5 119.5t-79.5 34.5q-54 0 -71.5 -35.5t-17.5 -118.5q0 -86 17 -122.5t72 -36.5zM216 -7q-60 0 -99.5 22.5t-58 67t-25 90.5t-6.5 113q0 43 3 76.5t10 68.5t21 60t35.5 45.5t53.5 30.5
t73 10q73 0 106.5 -11t52.5 -35l24 41l110 -10v-557l-121 -10l-11 51q-40 -53 -168 -53z" />
    <glyph glyph-name="abreve.salt" horiz-adv-x="564" 
d="M281 614q-96 0 -133.5 41t-50.5 136l108 16q8 -46 23 -62.5t53 -16.5t53.5 16.5t22.5 62.5l109 -15q-14 -97 -51.5 -137.5t-133.5 -40.5zM268 124q61 0 79 36.5t18 122.5q0 85 -17.5 119.5t-79.5 34.5q-54 0 -71.5 -35.5t-17.5 -118.5q0 -86 17 -122.5t72 -36.5zM216 -7
q-60 0 -99.5 22.5t-58 67t-25 90.5t-6.5 113q0 43 3 76.5t10 68.5t21 60t35.5 45.5t53.5 30.5t73 10q73 0 106.5 -11t52.5 -35l24 41l110 -10v-557l-121 -10l-11 51q-40 -53 -168 -53z" />
    <glyph glyph-name="acircumflex.salt" horiz-adv-x="564" 
d="M103 620l109 183h139l110 -183h-120l-61 79l-60 -79h-117zM268 124q61 0 79 36.5t18 122.5q0 85 -17.5 119.5t-79.5 34.5q-54 0 -71.5 -35.5t-17.5 -118.5q0 -86 17 -122.5t72 -36.5zM216 -7q-60 0 -99.5 22.5t-58 67t-25 90.5t-6.5 113q0 43 3 76.5t10 68.5t21 60
t35.5 45.5t53.5 30.5t73 10q73 0 106.5 -11t52.5 -35l24 41l110 -10v-557l-121 -10l-11 51q-40 -53 -168 -53z" />
    <glyph glyph-name="adieresis.salt" horiz-adv-x="564" 
d="M313 620v134h133v-134h-133zM117 620v134h134v-134h-134zM268 124q61 0 79 36.5t18 122.5q0 85 -17.5 119.5t-79.5 34.5q-54 0 -71.5 -35.5t-17.5 -118.5q0 -86 17 -122.5t72 -36.5zM216 -7q-60 0 -99.5 22.5t-58 67t-25 90.5t-6.5 113q0 43 3 76.5t10 68.5t21 60
t35.5 45.5t53.5 30.5t73 10q73 0 106.5 -11t52.5 -35l24 41l110 -10v-557l-121 -10l-11 51q-40 -53 -168 -53z" />
    <glyph glyph-name="agrave.salt" horiz-adv-x="564" 
d="M241 620l-145 183h168l106 -183h-129zM268 124q61 0 79 36.5t18 122.5q0 85 -17.5 119.5t-79.5 34.5q-54 0 -71.5 -35.5t-17.5 -118.5q0 -86 17 -122.5t72 -36.5zM216 -7q-60 0 -99.5 22.5t-58 67t-25 90.5t-6.5 113q0 43 3 76.5t10 68.5t21 60t35.5 45.5t53.5 30.5
t73 10q73 0 106.5 -11t52.5 -35l24 41l110 -10v-557l-121 -10l-11 51q-40 -53 -168 -53z" />
    <glyph glyph-name="amacron.salt" horiz-adv-x="564" 
d="M101 620v125h360v-125h-360zM268 124q61 0 79 36.5t18 122.5q0 85 -17.5 119.5t-79.5 34.5q-54 0 -71.5 -35.5t-17.5 -118.5q0 -86 17 -122.5t72 -36.5zM216 -7q-60 0 -99.5 22.5t-58 67t-25 90.5t-6.5 113q0 43 3 76.5t10 68.5t21 60t35.5 45.5t53.5 30.5t73 10
q73 0 106.5 -11t52.5 -35l24 41l110 -10v-557l-121 -10l-11 51q-40 -53 -168 -53z" />
    <glyph glyph-name="aogonek.salt" horiz-adv-x="564" 
d="M216 -7q-60 0 -99.5 22.5t-58 67t-25 90.5t-6.5 113q0 43 3 76.5t10 68.5t21 60t35.5 45.5t53.5 30.5t73 10q73 0 106.5 -11t52.5 -35l24 41l110 -10v-557q-90 -67 -90 -112q0 -42 49 -42h30v-85h-43q-74 0 -105.5 21.5t-31.5 81.5q0 42 20.5 75.5t48.5 53.5l-10 48
q-40 -53 -168 -53zM268 124q61 0 79 36.5t18 122.5q0 85 -17.5 119.5t-79.5 34.5q-54 0 -71.5 -35.5t-17.5 -118.5q0 -86 17 -122.5t72 -36.5z" />
    <glyph glyph-name="aring.salt" horiz-adv-x="564" 
d="M281 611q-123 0 -123 134q0 136 123 136q63 0 93.5 -37t30.5 -99q0 -61 -30.5 -97.5t-93.5 -36.5zM281 683q49 0 49 62q0 63 -49 63t-49 -63q0 -62 49 -62zM268 124q61 0 79 36.5t18 122.5q0 85 -17.5 119.5t-79.5 34.5q-54 0 -71.5 -35.5t-17.5 -118.5q0 -86 17 -122.5
t72 -36.5zM216 -7q-60 0 -99.5 22.5t-58 67t-25 90.5t-6.5 113q0 43 3 76.5t10 68.5t21 60t35.5 45.5t53.5 30.5t73 10q73 0 106.5 -11t52.5 -35l24 41l110 -10v-557l-121 -10l-11 51q-40 -53 -168 -53z" />
    <glyph glyph-name="atilde.salt" horiz-adv-x="564" 
d="M165 614l-97 56q56 110 146 110q29 0 67.5 -21.5t50.5 -21.5q28 0 63 48l96 -56q-30 -58 -64 -84.5t-81 -26.5q-30 0 -68.5 21t-49.5 21q-31 0 -63 -46zM268 124q61 0 79 36.5t18 122.5q0 85 -17.5 119.5t-79.5 34.5q-54 0 -71.5 -35.5t-17.5 -118.5q0 -86 17 -122.5
t72 -36.5zM216 -7q-60 0 -99.5 22.5t-58 67t-25 90.5t-6.5 113q0 43 3 76.5t10 68.5t21 60t35.5 45.5t53.5 30.5t73 10q73 0 106.5 -11t52.5 -35l24 41l110 -10v-557l-121 -10l-11 51q-40 -53 -168 -53z" />
    <glyph glyph-name="g.salt" horiz-adv-x="568" 
d="M268 132q62 0 81.5 36.5t19.5 117.5t-19 116t-82 35q-54 0 -71.5 -35t-17.5 -116q0 -82 17 -118t72 -36zM288 -167q-128 0 -218 25l41 128q75 -23 152 -23q62 0 84.5 19.5t22.5 57.5v20q-39 -50 -154 -50q-49 0 -84 14.5t-55 37t-31.5 60.5t-15 75t-3.5 89q0 43 3 76.5
t10 68.5t21 60t35.5 45.5t53.5 30.5t73 10q73 0 108.5 -11t56.5 -36l22 42l111 -10v-512q0 -111 -50 -164t-183 -53z" />
    <glyph glyph-name="gbreve.salt" horiz-adv-x="568" 
d="M284 614q-96 0 -133.5 41t-50.5 136l108 16q8 -46 23 -62.5t53 -16.5t53.5 16.5t22.5 62.5l109 -15q-14 -97 -51.5 -137.5t-133.5 -40.5zM268 132q62 0 81.5 36.5t19.5 117.5t-19 116t-82 35q-54 0 -71.5 -35t-17.5 -116q0 -82 17 -118t72 -36zM288 -167q-128 0 -218 25
l41 128q75 -23 152 -23q62 0 84.5 19.5t22.5 57.5v20q-39 -50 -154 -50q-49 0 -84 14.5t-55 37t-31.5 60.5t-15 75t-3.5 89q0 43 3 76.5t10 68.5t21 60t35.5 45.5t53.5 30.5t73 10q73 0 108.5 -11t56.5 -36l22 42l111 -10v-512q0 -111 -50 -164t-183 -53z" />
    <glyph glyph-name="gcommaaccent.salt" horiz-adv-x="568" 
d="M218 620v117q0 51 18.5 77t83.5 57l31 -56q-39 -23 -48.5 -33t-9.5 -32h57v-130h-132zM268 132q62 0 81.5 36.5t19.5 117.5t-19 116t-82 35q-54 0 -71.5 -35t-17.5 -116q0 -82 17 -118t72 -36zM288 -167q-128 0 -218 25l41 128q75 -23 152 -23q62 0 84.5 19.5t22.5 57.5
v20q-39 -50 -154 -50q-49 0 -84 14.5t-55 37t-31.5 60.5t-15 75t-3.5 89q0 43 3 76.5t10 68.5t21 60t35.5 45.5t53.5 30.5t73 10q73 0 108.5 -11t56.5 -36l22 42l111 -10v-512q0 -111 -50 -164t-183 -53z" />
    <glyph glyph-name="l.salt" horiz-adv-x="256" 
d="M52 0v769h151v-769h-151z" />
    <glyph glyph-name="lacute.salt" horiz-adv-x="256" 
d="M65 816l106 183h167l-144 -183h-129zM52 0v769h151v-769h-151z" />
    <glyph glyph-name="lcommaaccent.salt" horiz-adv-x="256" 
d="M52 0v769h151v-769h-151zM93 -287l-32 57q39 22 49 32t10 33h-58v130h132v-118q0 -51 -18 -77t-83 -57z" />
    <glyph glyph-name="lslash.salt" horiz-adv-x="296" 
d="M223 0h-151v382l-71 -41v132l71 41v255h151v-167l71 41v-132l-71 -41v-470z" />
    <glyph glyph-name="lcaron.salt" horiz-adv-x="376" 
d="M52 0v769h151v-769h-151zM282 518l-31 56q39 23 48.5 33t9.5 32h-58v130h133v-118q0 -50 -18.5 -76.5t-83.5 -56.5z" />
    <glyph glyph-name="f_l.salt" horiz-adv-x="607" 
d="M403 0v770h151v-770h-151zM354 435h-99v-435h-151v435h-92v132h92v46q0 174 198 174q44 0 52 -1v-131h-37q-38 0 -50 -13.5t-12 -45.5v-29h99v-132z" />
    <glyph glyph-name="f_f_l.salt" horiz-adv-x="906" 
d="M703 0v770h151v-770h-151zM403 0v435h-148v-435h-151v435h-92v132h92v46q0 174 198 174q44 0 52 -1v-131h-37q-38 0 -50 -13.5t-12 -45.5v-29h148v46q0 174 199 174q44 0 51 -1v-131h-37q-37 0 -49.5 -13.5t-12.5 -45.5v-29h99v-132h-99v-435h-151z" />
    <glyph glyph-name="u.salt" horiz-adv-x="559" 
d="M210 -7q-50 0 -84 15t-51.5 44.5t-24 64t-6.5 83.5v367h152v-344q0 -55 13.5 -77t59.5 -22q57 0 74 26.5t17 93.5v323h151v-562l-121 -9l-11 49q-41 -52 -169 -52z" />
    <glyph glyph-name="uacute.salt" horiz-adv-x="559" 
d="M190 620l106 183h167l-144 -183h-129zM210 -7q-50 0 -84 15t-51.5 44.5t-24 64t-6.5 83.5v367h152v-344q0 -55 13.5 -77t59.5 -22q57 0 74 26.5t17 93.5v323h151v-562l-121 -9l-11 49q-41 -52 -169 -52z" />
    <glyph glyph-name="ucircumflex.salt" horiz-adv-x="559" 
d="M100 620l109 183h139l110 -183h-120l-61 79l-60 -79h-117zM210 -7q-50 0 -84 15t-51.5 44.5t-24 64t-6.5 83.5v367h152v-344q0 -55 13.5 -77t59.5 -22q57 0 74 26.5t17 93.5v323h151v-562l-121 -9l-11 49q-41 -52 -169 -52z" />
    <glyph glyph-name="udieresis.salt" horiz-adv-x="559" 
d="M310 620v134h133v-134h-133zM114 620v134h134v-134h-134zM210 -7q-50 0 -84 15t-51.5 44.5t-24 64t-6.5 83.5v367h152v-344q0 -55 13.5 -77t59.5 -22q57 0 74 26.5t17 93.5v323h151v-562l-121 -9l-11 49q-41 -52 -169 -52z" />
    <glyph glyph-name="ugrave.salt" horiz-adv-x="559" 
d="M238 620l-145 183h168l106 -183h-129zM210 -7q-50 0 -84 15t-51.5 44.5t-24 64t-6.5 83.5v367h152v-344q0 -55 13.5 -77t59.5 -22q57 0 74 26.5t17 93.5v323h151v-562l-121 -9l-11 49q-41 -52 -169 -52z" />
    <glyph glyph-name="uhungarumlaut.salt" horiz-adv-x="559" 
d="M311 620l101 183h154l-140 -183h-115zM104 620l101 183h155l-140 -183h-116zM210 -7q-50 0 -84 15t-51.5 44.5t-24 64t-6.5 83.5v367h152v-344q0 -55 13.5 -77t59.5 -22q57 0 74 26.5t17 93.5v323h151v-562l-121 -9l-11 49q-41 -52 -169 -52z" />
    <glyph glyph-name="umacron.salt" horiz-adv-x="559" 
d="M98 620v125h360v-125h-360zM210 -7q-50 0 -84 15t-51.5 44.5t-24 64t-6.5 83.5v367h152v-344q0 -55 13.5 -77t59.5 -22q57 0 74 26.5t17 93.5v323h151v-562l-121 -9l-11 49q-41 -52 -169 -52z" />
    <glyph glyph-name="uogonek.salt" horiz-adv-x="559" 
d="M210 -7q-50 0 -84 15t-51.5 44.5t-24 64t-6.5 83.5v367h152v-344q0 -55 13.5 -77t59.5 -22q57 0 74 26.5t17 93.5v323h151v-562q-90 -67 -90 -112q0 -42 49 -42h30v-85h-43q-74 0 -105.5 21.5t-31.5 81.5q0 42 20.5 75.5t48.5 53.5l-10 47q-41 -52 -169 -52z" />
    <glyph glyph-name="uring.salt" horiz-adv-x="559" 
d="M278 611q-123 0 -123 134q0 136 123 136q63 0 93.5 -37t30.5 -99q0 -61 -30.5 -97.5t-93.5 -36.5zM278 683q49 0 49 62q0 63 -49 63t-49 -63q0 -62 49 -62zM210 -7q-50 0 -84 15t-51.5 44.5t-24 64t-6.5 83.5v367h152v-344q0 -55 13.5 -77t59.5 -22q57 0 74 26.5t17 93.5
v323h151v-562l-121 -9l-11 49q-41 -52 -169 -52z" />
    <glyph glyph-name="A.unic" horiz-adv-x="638" 
d="M286 130q64 0 98.5 26t34.5 95v95h-40q-114 0 -151.5 -21.5t-37.5 -87.5q0 -60 23 -83.5t73 -23.5zM450 54q-49 -61 -205 -61q-114 0 -163 57.5t-49 170.5q0 79 18.5 128.5t62.5 78t105.5 39t159.5 10.5h40v20q0 52 -25 76.5t-81 24.5q-99 0 -165 -39l-79 131
q39 26 111.5 43t151.5 17q135 0 187.5 -55.5t52.5 -185.5v-319q0 -32 8 -41t40 -9v-138q-24 -4 -52 -4q-57 0 -81.5 11.5t-36.5 44.5z" />
    <glyph glyph-name="AE.unic" horiz-adv-x="999" 
d="M704 601q-73 0 -102.5 -40t-34.5 -132h255q0 92 -22 132t-96 40zM286 130q64 0 98.5 26t34.5 95v95h-40q-114 0 -151.5 -21.5t-37.5 -87.5q0 -60 23 -83.5t73 -23.5zM969 59q-102 -68 -255 -68q-156 0 -222 85q-74 -83 -247 -83q-114 0 -163 57.5t-49 170.5
q0 79 18.5 128.5t62.5 78t105.5 39t159.5 10.5h40v20q0 52 -25 76.5t-81 24.5q-99 0 -165 -39l-79 131q39 26 111.5 43t151.5 17q135 0 184 -59q65 59 188 59q66 0 114.5 -15.5t77.5 -44t47 -69.5t24 -91t8.5 -109t-0.5 -124h-408q6 -89 38 -128.5t107 -39.5q98 0 188 50z
" />
    <glyph glyph-name="Aacute.unic" horiz-adv-x="638" 
d="M230 779l106 183h167l-144 -183h-129zM286 130q64 0 98.5 26t34.5 95v95h-40q-114 0 -151.5 -21.5t-37.5 -87.5q0 -60 23 -83.5t73 -23.5zM450 54q-49 -61 -205 -61q-114 0 -163 57.5t-49 170.5q0 79 18.5 128.5t62.5 78t105.5 39t159.5 10.5h40v20q0 52 -25 76.5
t-81 24.5q-99 0 -165 -39l-79 131q39 26 111.5 43t151.5 17q135 0 187.5 -55.5t52.5 -185.5v-319q0 -32 8 -41t40 -9v-138q-24 -4 -52 -4q-57 0 -81.5 11.5t-36.5 44.5z" />
    <glyph glyph-name="Abreve.unic" horiz-adv-x="638" 
d="M318 773q-96 0 -133.5 41t-50.5 136l108 16q8 -46 23 -62.5t53 -16.5t53.5 16.5t22.5 62.5l109 -15q-14 -97 -51.5 -137.5t-133.5 -40.5zM286 130q64 0 98.5 26t34.5 95v95h-40q-114 0 -151.5 -21.5t-37.5 -87.5q0 -60 23 -83.5t73 -23.5zM450 54q-49 -61 -205 -61
q-114 0 -163 57.5t-49 170.5q0 79 18.5 128.5t62.5 78t105.5 39t159.5 10.5h40v20q0 52 -25 76.5t-81 24.5q-99 0 -165 -39l-79 131q39 26 111.5 43t151.5 17q135 0 187.5 -55.5t52.5 -185.5v-319q0 -32 8 -41t40 -9v-138q-24 -4 -52 -4q-57 0 -81.5 11.5t-36.5 44.5z" />
    <glyph glyph-name="Acircumflex.unic" horiz-adv-x="638" 
d="M140 779l109 183h139l110 -183h-120l-61 79l-60 -79h-117zM286 130q64 0 98.5 26t34.5 95v95h-40q-114 0 -151.5 -21.5t-37.5 -87.5q0 -60 23 -83.5t73 -23.5zM450 54q-49 -61 -205 -61q-114 0 -163 57.5t-49 170.5q0 79 18.5 128.5t62.5 78t105.5 39t159.5 10.5h40v20
q0 52 -25 76.5t-81 24.5q-99 0 -165 -39l-79 131q39 26 111.5 43t151.5 17q135 0 187.5 -55.5t52.5 -185.5v-319q0 -32 8 -41t40 -9v-138q-24 -4 -52 -4q-57 0 -81.5 11.5t-36.5 44.5z" />
    <glyph glyph-name="Adieresis.unic" horiz-adv-x="638" 
d="M350 779v134h133v-134h-133zM154 779v134h134v-134h-134zM286 130q64 0 98.5 26t34.5 95v95h-40q-114 0 -151.5 -21.5t-37.5 -87.5q0 -60 23 -83.5t73 -23.5zM450 54q-49 -61 -205 -61q-114 0 -163 57.5t-49 170.5q0 79 18.5 128.5t62.5 78t105.5 39t159.5 10.5h40v20
q0 52 -25 76.5t-81 24.5q-99 0 -165 -39l-79 131q39 26 111.5 43t151.5 17q135 0 187.5 -55.5t52.5 -185.5v-319q0 -32 8 -41t40 -9v-138q-24 -4 -52 -4q-57 0 -81.5 11.5t-36.5 44.5z" />
    <glyph glyph-name="Agrave.unic" horiz-adv-x="638" 
d="M278 779l-145 183h168l106 -183h-129zM286 130q64 0 98.5 26t34.5 95v95h-40q-114 0 -151.5 -21.5t-37.5 -87.5q0 -60 23 -83.5t73 -23.5zM450 54q-49 -61 -205 -61q-114 0 -163 57.5t-49 170.5q0 79 18.5 128.5t62.5 78t105.5 39t159.5 10.5h40v20q0 52 -25 76.5
t-81 24.5q-99 0 -165 -39l-79 131q39 26 111.5 43t151.5 17q135 0 187.5 -55.5t52.5 -185.5v-319q0 -32 8 -41t40 -9v-138q-24 -4 -52 -4q-57 0 -81.5 11.5t-36.5 44.5z" />
    <glyph glyph-name="Amacron.unic" horiz-adv-x="638" 
d="M138 779v125h360v-125h-360zM286 130q64 0 98.5 26t34.5 95v95h-40q-114 0 -151.5 -21.5t-37.5 -87.5q0 -60 23 -83.5t73 -23.5zM450 54q-49 -61 -205 -61q-114 0 -163 57.5t-49 170.5q0 79 18.5 128.5t62.5 78t105.5 39t159.5 10.5h40v20q0 52 -25 76.5t-81 24.5
q-99 0 -165 -39l-79 131q39 26 111.5 43t151.5 17q135 0 187.5 -55.5t52.5 -185.5v-319q0 -32 8 -41t40 -9v-138q-24 -4 -52 -4q-57 0 -81.5 11.5t-36.5 44.5z" />
    <glyph glyph-name="Aogonek.unic" horiz-adv-x="638" 
d="M245 -7q-114 0 -163 57.5t-49 170.5q0 79 18.5 128.5t62.5 78t105.5 39t159.5 10.5h40v20q0 52 -25 76.5t-81 24.5q-99 0 -165 -39l-79 131q39 26 111.5 43t151.5 17q135 0 187.5 -55.5t52.5 -185.5v-319q0 -32 8 -41t40 -9v-138q-90 -60 -90 -109q0 -42 49 -42h30v-85
h-43q-74 0 -105.5 21.5t-31.5 81.5q0 46 23.5 81t53.5 53q-42 8 -56 51q-49 -61 -205 -61zM286 130q64 0 98.5 26t34.5 95v95h-40q-114 0 -151.5 -21.5t-37.5 -87.5q0 -60 23 -83.5t73 -23.5z" />
    <glyph glyph-name="Aring.unic" horiz-adv-x="638" 
d="M318 770q-123 0 -123 134q0 136 123 136q63 0 93.5 -37t30.5 -99q0 -61 -30.5 -97.5t-93.5 -36.5zM318 842q49 0 49 62q0 63 -49 63t-49 -63q0 -62 49 -62zM286 130q64 0 98.5 26t34.5 95v95h-40q-114 0 -151.5 -21.5t-37.5 -87.5q0 -60 23 -83.5t73 -23.5zM450 54
q-49 -61 -205 -61q-114 0 -163 57.5t-49 170.5q0 79 18.5 128.5t62.5 78t105.5 39t159.5 10.5h40v20q0 52 -25 76.5t-81 24.5q-99 0 -165 -39l-79 131q39 26 111.5 43t151.5 17q135 0 187.5 -55.5t52.5 -185.5v-319q0 -32 8 -41t40 -9v-138q-24 -4 -52 -4q-57 0 -81.5 11.5
t-36.5 44.5z" />
    <glyph glyph-name="Atilde.unic" horiz-adv-x="638" 
d="M202 773l-97 56q56 110 146 110q29 0 68 -21.5t50 -21.5q28 0 63 48l96 -56q-30 -58 -64 -84.5t-81 -26.5q-30 0 -68.5 21t-49.5 21q-31 0 -63 -46zM286 130q64 0 98.5 26t34.5 95v95h-40q-114 0 -151.5 -21.5t-37.5 -87.5q0 -60 23 -83.5t73 -23.5zM450 54
q-49 -61 -205 -61q-114 0 -163 57.5t-49 170.5q0 79 18.5 128.5t62.5 78t105.5 39t159.5 10.5h40v20q0 52 -25 76.5t-81 24.5q-99 0 -165 -39l-79 131q39 26 111.5 43t151.5 17q135 0 187.5 -55.5t52.5 -185.5v-319q0 -32 8 -41t40 -9v-138q-24 -4 -52 -4q-57 0 -81.5 11.5
t-36.5 44.5z" />
    <glyph glyph-name="E.unic" horiz-adv-x="616" 
d="M321 601q-73 0 -102.5 -40t-34.5 -132h256q0 91 -22.5 131.5t-96.5 40.5zM587 59q-104 -68 -256 -68q-170 0 -237 94.5t-67 285.5q0 187 66.5 283t228.5 96q66 0 114.5 -15.5t77 -44t46.5 -69.5t24 -91t8.5 -109t-0.5 -124h-408q6 -89 38 -128.5t108 -39.5q97 0 187 50z
" />
    <glyph glyph-name="Eacute.unic" horiz-adv-x="616" 
d="M219 779l106 183h167l-144 -183h-129zM321 601q-73 0 -102.5 -40t-34.5 -132h256q0 91 -22.5 131.5t-96.5 40.5zM587 59q-104 -68 -256 -68q-170 0 -237 94.5t-67 285.5q0 187 66.5 283t228.5 96q66 0 114.5 -15.5t77 -44t46.5 -69.5t24 -91t8.5 -109t-0.5 -124h-408
q6 -89 38 -128.5t108 -39.5q97 0 187 50z" />
    <glyph glyph-name="Ecaron.unic" horiz-adv-x="616" 
d="M238 779l-109 183h120l60 -79l60 79h118l-110 -183h-139zM321 601q-73 0 -102.5 -40t-34.5 -132h256q0 91 -22.5 131.5t-96.5 40.5zM587 59q-104 -68 -256 -68q-170 0 -237 94.5t-67 285.5q0 187 66.5 283t228.5 96q66 0 114.5 -15.5t77 -44t46.5 -69.5t24 -91t8.5 -109
t-0.5 -124h-408q6 -89 38 -128.5t108 -39.5q97 0 187 50z" />
    <glyph glyph-name="Ecircumflex.unic" horiz-adv-x="616" 
d="M129 779l109 183h139l110 -183h-120l-61 79l-60 -79h-117zM321 601q-73 0 -102.5 -40t-34.5 -132h256q0 91 -22.5 131.5t-96.5 40.5zM587 59q-104 -68 -256 -68q-170 0 -237 94.5t-67 285.5q0 187 66.5 283t228.5 96q66 0 114.5 -15.5t77 -44t46.5 -69.5t24 -91t8.5 -109
t-0.5 -124h-408q6 -89 38 -128.5t108 -39.5q97 0 187 50z" />
    <glyph glyph-name="Edieresis.unic" horiz-adv-x="616" 
d="M339 779v134h133v-134h-133zM143 779v134h134v-134h-134zM321 601q-73 0 -102.5 -40t-34.5 -132h256q0 91 -22.5 131.5t-96.5 40.5zM587 59q-104 -68 -256 -68q-170 0 -237 94.5t-67 285.5q0 187 66.5 283t228.5 96q66 0 114.5 -15.5t77 -44t46.5 -69.5t24 -91t8.5 -109
t-0.5 -124h-408q6 -89 38 -128.5t108 -39.5q97 0 187 50z" />
    <glyph glyph-name="Edotaccent.unic" horiz-adv-x="616" 
d="M232 779v137h152v-137h-152zM321 601q-73 0 -102.5 -40t-34.5 -132h256q0 91 -22.5 131.5t-96.5 40.5zM587 59q-104 -68 -256 -68q-170 0 -237 94.5t-67 285.5q0 187 66.5 283t228.5 96q66 0 114.5 -15.5t77 -44t46.5 -69.5t24 -91t8.5 -109t-0.5 -124h-408
q6 -89 38 -128.5t108 -39.5q97 0 187 50z" />
    <glyph glyph-name="Egrave.unic" horiz-adv-x="616" 
d="M267 779l-145 183h168l106 -183h-129zM321 601q-73 0 -102.5 -40t-34.5 -132h256q0 91 -22.5 131.5t-96.5 40.5zM587 59q-104 -68 -256 -68q-170 0 -237 94.5t-67 285.5q0 187 66.5 283t228.5 96q66 0 114.5 -15.5t77 -44t46.5 -69.5t24 -91t8.5 -109t-0.5 -124h-408
q6 -89 38 -128.5t108 -39.5q97 0 187 50z" />
    <glyph glyph-name="Emacron.unic" horiz-adv-x="616" 
d="M127 779v125h360v-125h-360zM321 601q-73 0 -102.5 -40t-34.5 -132h256q0 91 -22.5 131.5t-96.5 40.5zM587 59q-104 -68 -256 -68q-170 0 -237 94.5t-67 285.5q0 187 66.5 283t228.5 96q66 0 114.5 -15.5t77 -44t46.5 -69.5t24 -91t8.5 -109t-0.5 -124h-408
q6 -89 38 -128.5t108 -39.5q97 0 187 50z" />
    <glyph glyph-name="Eogonek.unic" horiz-adv-x="616" 
d="M441 -234q-74 0 -105.5 21.5t-31.5 81.5q0 67 62 123q-5 0 -17 -0.5t-18 -0.5q-170 0 -237 94.5t-67 285.5q0 187 66.5 283t228.5 96q66 0 114.5 -15.5t77 -44t46.5 -69.5t24 -91t8.5 -109t-0.5 -124h-408q6 -89 38 -128.5t108 -39.5q97 0 187 50l70 -120
q-52 -33 -105 -49q-77 -68 -77 -117q0 -42 50 -42h29v-85h-43zM321 601q-73 0 -103 -40t-35 -132h257q0 91 -22.5 131.5t-96.5 40.5z" />
    <glyph glyph-name="OE.unic" horiz-adv-x="1063" 
d="M768 601q-73 0 -102.5 -40.5t-34.5 -131.5h256q0 93 -22 132.5t-97 39.5zM334 130q39 0 66 11.5t43 30t25 50.5t11.5 64t2.5 79q0 46 -2.5 78t-11.5 64t-25 50.5t-43 30t-66 11.5t-66 -11.5t-43 -30t-25 -50.5t-11.5 -64t-2.5 -78q0 -47 2.5 -79t11.5 -64t25 -50.5
t43 -30t66 -11.5zM1034 59q-102 -68 -255 -68q-155 0 -221 83q-70 -83 -224 -83q-77 0 -133.5 21t-89.5 54t-52 84.5t-25.5 102t-6.5 117.5t6.5 118t25.5 102.5t52 84.5t89.5 54t133.5 21q155 0 224 -84q67 84 211 84q66 0 114.5 -15.5t77 -44t46.5 -69.5t24 -91t8.5 -109
t-0.5 -124h-408q6 -89 38 -128.5t108 -39.5q99 0 187 50z" />
    <glyph glyph-name="M.unic" horiz-adv-x="1037" 
d="M58 0v733l118 9l11 -56q23 30 79 46.5t119 16.5q135 0 174 -71q50 71 207 71q120 0 168.5 -65t48.5 -190v-494h-156v481q0 63 -24.5 90t-78.5 27q-64 0 -94.5 -32t-30.5 -108v-458h-156v481q0 63 -24.5 90t-78.5 27q-64 0 -94.5 -32t-30.5 -108v-458h-157z" />
    <glyph glyph-name="N.unic" horiz-adv-x="674" 
d="M58 0v733l118 9l13 -56q48 63 202 63q133 0 181.5 -63.5t48.5 -191.5v-494h-156v481q0 63 -26.5 90t-87.5 27q-71 0 -103.5 -31.5t-32.5 -108.5v-458h-157z" />
    <glyph glyph-name="Nacute.unic" horiz-adv-x="674" 
d="M248 779l106 183h167l-144 -183h-129zM58 0v733l118 9l13 -56q48 63 202 63q133 0 181.5 -63.5t48.5 -191.5v-494h-156v481q0 63 -26.5 90t-87.5 27q-71 0 -103.5 -31.5t-32.5 -108.5v-458h-157z" />
    <glyph glyph-name="Ncaron.unic" horiz-adv-x="674" 
d="M267 779l-109 183h120l60 -79l60 79h118l-110 -183h-139zM58 0v733l118 9l13 -56q48 63 202 63q133 0 181.5 -63.5t48.5 -191.5v-494h-156v481q0 63 -26.5 90t-87.5 27q-71 0 -103.5 -31.5t-32.5 -108.5v-458h-157z" />
    <glyph glyph-name="Ncommaaccent.unic" horiz-adv-x="674" 
d="M58 0v733l118 9l13 -56q48 63 202 63q133 0 181.5 -63.5t48.5 -191.5v-494h-156v481q0 63 -26.5 90t-87.5 27q-71 0 -103.5 -31.5t-32.5 -108.5v-458h-157zM302 -287l-32 57q39 22 49 32t10 33h-58v130h132v-118q0 -51 -18 -77t-83 -57z" />
    <glyph glyph-name="Ntilde.unic" horiz-adv-x="674" 
d="M220 773l-97 56q56 110 146 110q29 0 68 -21.5t50 -21.5q28 0 63 48l96 -56q-30 -58 -64 -84.5t-81 -26.5q-30 0 -68.5 21t-49.5 21q-31 0 -63 -46zM58 0v733l118 9l13 -56q48 63 202 63q133 0 181.5 -63.5t48.5 -191.5v-494h-156v481q0 63 -26.5 90t-87.5 27
q-71 0 -103.5 -31.5t-32.5 -108.5v-458h-157z" />
    <glyph glyph-name="R.unic" horiz-adv-x="414" 
d="M58 0v733l118 9l12 -63q21 29 68.5 47.5t115.5 18.5v-150q-85 0 -121 -34t-36 -112v-449h-157z" />
    <glyph glyph-name="Racute.unic" horiz-adv-x="414" 
d="M119 779l106 183h167l-144 -183h-129zM58 0v733l118 9l12 -63q21 29 68.5 47.5t115.5 18.5v-150q-85 0 -121 -34t-36 -112v-449h-157z" />
    <glyph glyph-name="Rcaron.unic" horiz-adv-x="414" 
d="M138 779l-109 183h120l60 -79l60 79h118l-110 -183h-139zM58 0v733l118 9l12 -63q21 29 68.5 47.5t115.5 18.5v-150q-85 0 -121 -34t-36 -112v-449h-157z" />
    <glyph glyph-name="Rcommaaccent.unic" horiz-adv-x="414" 
d="M58 0v733l118 9l12 -63q21 29 68.5 47.5t115.5 18.5v-150q-85 0 -121 -34t-36 -112v-449h-157zM101 -287l-32 57q39 22 49 32t10 33h-58v130h132v-118q0 -51 -18 -77t-83 -57z" />
    <glyph glyph-name="U.unic" horiz-adv-x="674" 
d="M283 -8q-133 0 -181.5 64t-48.5 192v493h157v-492q0 -63 26 -90t87 -27q71 0 103 31.5t32 107.5v470h158v-736l-117 -10l-12 59q-48 -62 -204 -62z" />
    <glyph glyph-name="Uacute.unic" horiz-adv-x="674" 
d="M248 779l106 183h167l-144 -183h-129zM283 -8q-133 0 -181.5 64t-48.5 192v493h157v-492q0 -63 26 -90t87 -27q71 0 103 31.5t32 107.5v470h158v-736l-117 -10l-12 59q-48 -62 -204 -62z" />
    <glyph glyph-name="Ucircumflex.unic" horiz-adv-x="674" 
d="M158 779l109 183h139l110 -183h-120l-61 79l-60 -79h-117zM283 -8q-133 0 -181.5 64t-48.5 192v493h157v-492q0 -63 26 -90t87 -27q71 0 103 31.5t32 107.5v470h158v-736l-117 -10l-12 59q-48 -62 -204 -62z" />
    <glyph glyph-name="Udieresis.unic" horiz-adv-x="674" 
d="M368 779v134h133v-134h-133zM172 779v134h134v-134h-134zM283 -8q-133 0 -181.5 64t-48.5 192v493h157v-492q0 -63 26 -90t87 -27q71 0 103 31.5t32 107.5v470h158v-736l-117 -10l-12 59q-48 -62 -204 -62z" />
    <glyph glyph-name="Ugrave.unic" horiz-adv-x="674" 
d="M296 779l-145 183h168l106 -183h-129zM283 -8q-133 0 -181.5 64t-48.5 192v493h157v-492q0 -63 26 -90t87 -27q71 0 103 31.5t32 107.5v470h158v-736l-117 -10l-12 59q-48 -62 -204 -62z" />
    <glyph glyph-name="Uhungarumlaut.unic" horiz-adv-x="674" 
d="M369 779l101 183h154l-140 -183h-115zM162 779l101 183h155l-140 -183h-116zM283 -8q-133 0 -181.5 64t-48.5 192v493h157v-492q0 -63 26 -90t87 -27q71 0 103 31.5t32 107.5v470h158v-736l-117 -10l-12 59q-48 -62 -204 -62z" />
    <glyph glyph-name="Umacron.unic" horiz-adv-x="674" 
d="M156 779v125h360v-125h-360zM283 -8q-133 0 -181.5 64t-48.5 192v493h157v-492q0 -63 26 -90t87 -27q71 0 103 31.5t32 107.5v470h158v-736l-117 -10l-12 59q-48 -62 -204 -62z" />
    <glyph glyph-name="Uogonek.unic" horiz-adv-x="674" 
d="M283 -8q-133 0 -181.5 64t-48.5 192v493h157v-492q0 -63 26 -90t87 -27q71 0 103 31.5t32 107.5v470h158v-736q-44 -33 -67 -59.5t-23 -52.5q0 -42 49 -42h30v-85h-43q-74 0 -105.5 21.5t-31.5 81.5q0 44 21.5 78t51.5 53l-11 54q-48 -62 -204 -62z" />
    <glyph glyph-name="Uring.unic" horiz-adv-x="674" 
d="M336 770q-123 0 -123 134q0 136 123 136q63 0 93.5 -37t30.5 -99q0 -61 -30.5 -97.5t-93.5 -36.5zM336 842q49 0 49 62q0 63 -49 63t-49 -63q0 -62 49 -62zM283 -8q-133 0 -181.5 64t-48.5 192v493h157v-492q0 -63 26 -90t87 -27q71 0 103 31.5t32 107.5v470h158v-736
l-117 -10l-12 59q-48 -62 -204 -62z" />
    </font>
</defs>
</svg>
